<?xml version="1.0" encoding="UTF-8" standalone="no"?>
<!-- Created with Inkscape (http://www.inkscape.org/) -->

<svg
   xmlns:dc="http://purl.org/dc/elements/1.1/"
   xmlns:cc="http://creativecommons.org/ns#"
   xmlns:rdf="http://www.w3.org/1999/02/22-rdf-syntax-ns#"
   xmlns:svg="http://www.w3.org/2000/svg"
   xmlns="http://www.w3.org/2000/svg"
   xmlns:xlink="http://www.w3.org/1999/xlink"
   xmlns:sodipodi="http://sodipodi.sourceforge.net/DTD/sodipodi-0.dtd"
   xmlns:inkscape="http://www.inkscape.org/namespaces/inkscape"
   version="1.1"
   id="svg1292"
   width="409.28"
   height="40.959999"
   viewBox="0 0 409.28 40.959999"
   sodipodi:docname="divider-8.svg"
   inkscape:version="0.92.2 5c3e80d, 2017-08-06">
  <metadata
     id="metadata1298">
    <rdf:RDF>
      <cc:Work
         rdf:about="">
        <dc:format>image/svg+xml</dc:format>
        <dc:type
           rdf:resource="http://purl.org/dc/dcmitype/StillImage" />
        <dc:title></dc:title>
      </cc:Work>
    </rdf:RDF>
  </metadata>
  <defs
     id="defs1296">
    <linearGradient
       inkscape:collect="always"
       id="linearGradient1897">
       <stop offset="0%" stop-color="#FCF6BA" stop-opacity="1"/>
       <stop offset="33%" stop-color="#FBF5B7" stop-opacity="1"/>
       <stop offset="66%" stop-color="#BF953F" stop-opacity="1"/>
       <stop offset="100%" stop-color="#AA771C" stop-opacity="1"/>
    </linearGradient>
    <linearGradient
       inkscape:collect="always"
       xlink:href="#linearGradient1897"
       id="linearGradient1899"
       x2="0%" y2="100%"
       gradientUnits="userSpaceOnUse" />
  </defs>
  <sodipodi:namedview
     pagecolor="#ffffff"
     bordercolor="#666666"
     borderopacity="1"
     objecttolerance="10"
     gridtolerance="10"
     guidetolerance="10"
     inkscape:pageopacity="0"
     inkscape:pageshadow="2"
     id="namedview1294"
     showgrid="false"
     inkscape:zoom="1"
     inkscape:cx="204.64"
     inkscape:cy="20.48"
     inkscape:window-x="0"
     inkscape:window-y="0"
     inkscape:window-maximized="0"
     inkscape:current-layer="svg1292" />
  <g
     id="g1869"
     style="fill-opacity:1;fill:url(#linearGradient1899)">
    <path
       style="fill:url(#linearGradient1899);stroke-width:0.31999999;fill-opacity:1"
       d="M 21.560428,40.7151 C 20.782777,40.206645 7.6442992,19.138682 7.7402192,18.553959 7.9118992,17.507408 21.482356,0 22.121886,0 22.438148,0 29.891411,3.8879999 38.684691,8.6399998 L 54.672474,17.28 h 69.709226 69.70922 l 3.51454,-3.541366 c 1.93299,-1.947751 3.76654,-3.680818 4.07454,-3.8512589 0.84372,-0.4668979 1.84,0.1984919 1.84,1.2288889 0,0.687514 -1.50926,2.367613 -7.75133,8.628741 l -7.75133,7.774994 H 122.7493 c -64.65898,0 -65.274359,0.0059 -65.944058,0.635077 -1.15752,1.087431 -2.460189,1.146631 -3.626996,0.164828 -1.831462,-1.541073 -1.147267,-4.203416 1.231837,-4.793326 0.577143,-0.143105 1.156336,0.03411 2.014211,0.616279 l 1.204128,0.817142 h 64.393798 64.3938 l 2.38398,-2.4 L 191.18398,20.16 H 122.95149 54.718992 L 38.69551,30.559999 c -8.812913,5.72 -16.192686,10.397795 -16.399495,10.395101 -0.206808,-0.0026 -0.537822,-0.110695 -0.735587,-0.24 z M 37.096032,28.268696 C 44.589216,23.413083 50.89008,19.27824 51.097955,19.080154 51.38201,18.80948 47.938134,16.811915 37.236438,11.04 29.404727,6.8159998 22.898647,3.3287698 22.778482,3.2905996 22.505618,3.203925 15.52,12.445852 15.52,12.893524 c 0,0.179807 1.872,1.348321 4.16,2.596699 5.780999,3.154225 5.782172,3.100361 -0.151358,6.94907 -2.4822,1.610048 -4.47159,3.03164 -4.420867,3.159095 0.05072,0.127456 1.748225,2.844122 3.772225,6.037037 2.568129,4.051294 3.817785,5.753387 4.136033,5.63348 0.250817,-0.0945 6.586817,-4.144595 14.079999,-9.000209 z M 19.453675,19.107961 c 0.309675,-0.246306 -0.399868,-0.766588 -2.822322,-2.069504 -1.779798,-0.957265 -3.26697,-1.690526 -3.304826,-1.629469 -0.03786,0.06106 -0.617379,0.799804 -1.287828,1.641661 -1.347976,1.692601 -1.347187,1.7052 0.264873,4.225255 l 1.124289,1.757546 2.806069,-1.798232 c 1.543339,-0.989028 2.992224,-1.946294 3.219745,-2.127257 z M 370.56,30.553355 354.72,20.20277 286.40801,20.181385 218.09602,20.16 l 2.38398,2.399999 2.38398,2.4 h 64.3938 64.3938 l 1.20413,-0.817142 c 0.85786,-0.58217 1.43706,-0.759384 2.01421,-0.616279 2.3791,0.58991 3.0633,3.252253 1.23184,4.793326 -1.16682,0.981803 -2.46947,0.922603 -3.62701,-0.164828 -0.66969,-0.62915 -1.28509,-0.635077 -65.94405,-0.635077 h -65.26804 l -7.75133,-7.774994 C 207.26926,13.483877 205.76,11.803778 205.76,11.116264 c 0,-1.030397 0.99628,-1.6957868 1.84,-1.2288889 0.308,0.1704409 2.14155,1.9035079 4.07454,3.8512589 L 215.18908,17.28 h 69.70922 69.70922 L 370.5953,8.6399998 C 379.38858,3.8879999 386.84186,0 387.15811,0 c 0.63952,0 14.20999,17.507408 14.38167,18.553959 0.0959,0.584723 -13.04256,21.652686 -13.8202,22.161141 -0.19779,0.129305 -0.57558,0.224691 -0.83958,0.211968 -0.264,-0.01274 -7.608,-4.680893 -16.32,-10.373713 z m 19.84,1.079636 c 2.024,-3.191576 3.7215,-5.907147 3.77222,-6.034603 0.0507,-0.127455 -1.93865,-1.549047 -4.42086,-3.159095 -5.93354,-3.848709 -5.93235,-3.794845 -0.15136,-6.94907 2.288,-1.248378 4.16,-2.416892 4.16,-2.596699 0,-0.447672 -6.98563,-9.689599 -7.2585,-9.6029244 -0.12016,0.03817 -6.62624,3.5254002 -14.45795,7.7494004 -10.73939,5.792249 -14.14656,7.769177 -13.8615,8.042801 0.49107,0.471393 28.12755,18.357848 28.36064,18.355128 0.0975,-0.0013 1.83331,-2.61336 3.85731,-5.804938 z m 7.33254,-11.580975 0.77258,-1.416022 -1.24141,-1.557997 c -0.68278,-0.856899 -1.27238,-1.607953 -1.31024,-1.669009 -0.0378,-0.06106 -1.54291,0.681816 -3.34454,1.650827 l -3.27571,1.761839 3.1734,2.07846 3.17338,2.07846 0.64,-0.755268 c 0.352,-0.415397 0.98765,-1.392477 1.41254,-2.17129 z M 187.12,35.494367 c -1.41574,-0.824595 -0.78284,-1.602921 8.07749,-9.933401 C 201.7637,19.38742 204.02803,17.44 204.64,17.44 c 0.61197,0 2.8763,1.94742 9.44251,8.120966 8.91696,8.383728 9.52696,9.140486 8.01853,9.947776 -0.84374,0.451555 -34.20462,0.437846 -34.98104,-0.01437 z m 29.19579,-3.956568 c -0.78968,-0.782211 -3.73756,-3.574873 -6.55084,-6.205916 l -5.11504,-4.783715 -3.36496,3.141689 c -1.85072,1.727929 -4.80495,4.513399 -6.56495,6.189934 l -3.2,3.048247 13.11579,0.01597 13.11579,0.01597 -1.43579,-1.422201 z M 0.78545456,20.654545 C -0.94021808,18.928872 0.27709468,16 2.72,16 5.1629053,16 6.3802182,18.928872 4.6545456,20.654545 4.1122515,21.196839 3.5133558,21.439999 2.72,21.439999 c -0.7933558,0 -1.3922516,-0.24316 -1.93454544,-0.785454 z m 403.83998544,0 C 402.89978,18.928872 404.11709,16 406.56,16 c 1.56051,0 2.72,1.159494 2.72,2.72 0,1.560505 -1.15949,2.719999 -2.72,2.719999 -0.79334,0 -1.39226,-0.24316 -1.93456,-0.785454 z m -239.0712,-5.60496 c -0.939,-0.388369 -1.71424,-1.574557 -1.71424,-2.622943 0,-1.138779 1.18592,-2.4586701 2.42175,-2.6953357 1.41597,-0.2711597 3.01825,1.1087197 3.01825,2.5992947 0,1.927913 -2.03961,3.416375 -3.72576,2.718984 z m 10.88,0 c -1.72858,-0.714937 -2.20972,-2.917866 -0.95571,-4.375741 1.55195,-1.8042465 4.68147,-0.6784458 4.68147,1.684092 0,1.900432 -2.05291,3.383539 -3.72576,2.691649 z m 10.88,0 c -1.72858,-0.714937 -2.20972,-2.917866 -0.95571,-4.375741 1.55195,-1.8042465 4.68147,-0.6784458 4.68147,1.684092 0,1.900432 -2.05291,3.383539 -3.72576,2.691649 z m 32.64,0 c -1.77449,-0.733928 -2.2735,-3.212626 -0.90549,-4.497805 1.72912,-1.6244266 4.63125,-0.416127 4.63125,1.92822 0,1.778275 -2.11395,3.236226 -3.72576,2.569585 z m 10.88,0 c -1.77449,-0.733928 -2.2735,-3.212626 -0.90549,-4.497805 1.72912,-1.6244266 4.63125,-0.416127 4.63125,1.92822 0,1.778275 -2.11395,3.236226 -3.72576,2.569585 z m 10.88,0 C 240.73163,14.643178 240,13.459958 240,12.277244 c 0,-1.436176 1.63066,-2.8116638 3.01825,-2.5459377 1.25726,0.2407696 2.42175,1.5624667 2.42175,2.7486937 0,1.778275 -2.11395,3.236226 -3.72576,2.569585 z"
       id="path1883"
       inkscape:connector-curvature="0" />
    <path
       style="fill:url(#linearGradient1899);stroke-width:0.31999999;fill-opacity:1"
       d="M 21.032587,39.947564 C 18.851643,37.044569 7.6615734,19.024582 7.7445738,18.549144 7.8888755,17.722562 21.193083,0.38006316 21.862292,0.14620562 22.263501,0.00600148 27.445131,2.6385124 38.524445,8.6113607 L 54.604307,17.28 h 69.743063 69.74307 L 197.76,13.6 c 2.90159,-2.909845 3.85355,-3.6800002 4.54868,-3.6800002 0.6805,0 0.92644,0.1885022 1.08853,0.8343172 0.19022,0.757911 -0.51965,1.563801 -7.75151,8.799999 l -7.9609,7.965683 H 122.62944 57.574083 l -0.932086,0.689123 C 54.72463,29.626691 52.16,28.481411 52.16,26.20761 c 0,-2.127258 2.983344,-3.384265 4.48,-1.887611 0.63577,0.635771 1.066666,0.64 65.20801,0.64 h 64.56801 l 2.38398,-2.4 L 191.18398,20.16 H 122.9084 54.632822 L 38.782243,30.444123 c -8.717821,5.65627 -16.097416,10.348673 -16.399103,10.427566 -0.351446,0.0919 -0.836676,-0.240116 -1.350553,-0.924125 z M 37.390781,28.159999 c 7.754141,-5.016 14.105363,-9.19589 14.113827,-9.288644 C 51.537846,18.507173 22.64986,3.1440655 22.419575,3.4034534 22.28454,3.5555538 20.569042,5.7913067 18.607358,8.3717928 l -3.566698,4.6917932 4.39967,2.365782 c 5.990296,3.22109 5.988486,3.091209 0.09663,6.937053 -2.473331,1.61444 -4.496965,3.019063 -4.496965,3.121385 0,0.554496 7.557573,11.95827 7.874799,11.882439 0.20765,-0.04963 6.721842,-4.194246 14.475982,-9.210246 z m -20.716501,-7.12 C 18.396119,19.94 19.812795,18.957516 19.822448,18.856703 19.839281,18.680921 14.265024,15.614507 13.595035,15.430986 13.250093,15.336501 10.88,18.326215 10.88,18.855821 c 0,0.336346 2.313024,4.145698 2.531832,4.169711 0.07251,0.008 1.540609,-0.885533 3.262448,-1.985533 z M 370.71504,30.568577 354.72,20.177155 l -68.31199,-0.0086 -68.31199,-0.0086 2.38398,2.399999 2.38398,2.4 h 64.56801 c 64.14135,0 64.57223,-0.0042 65.20801,-0.64 1.49664,-1.496654 4.48,-0.239647 4.48,1.887611 0,2.273801 -2.56464,3.419081 -4.48198,2.001512 l -0.9321,-0.689123 H 286.65056 221.5952 l -7.9609,-7.965683 c -7.23186,-7.236198 -7.94173,-8.042088 -7.75151,-8.799999 0.16209,-0.645815 0.40803,-0.8343172 1.08853,-0.8343172 0.69513,0 1.64709,0.7701552 4.54868,3.6800002 l 3.66956,3.68 h 69.74393 69.74395 l 16.08214,-8.6676405 c 11.02682,-5.9430303 16.2642,-8.60399057 16.66128,-8.46515511 0.66711,0.23324405 13.97069,17.57785661 14.11456,18.40193961 0.0525,0.300639 -2.73539,4.99807 -6.19526,10.438736 -6.91958,10.881034 -7.67069,11.972119 -8.24141,11.972119 -0.21376,0 -7.58643,-4.676141 -16.38371,-10.391422 z m 19.78285,0.988345 c 2.05817,-3.235692 3.74211,-5.966794 3.74211,-6.069116 0,-0.102322 -2.02365,-1.506945 -4.49696,-3.121385 -5.89187,-3.845844 -5.89366,-3.715963 0.0966,-6.937053 l 4.39965,-2.365782 -3.56669,-4.6917932 c -1.9617,-2.5804861 -3.67718,-4.816239 -3.81222,-4.9683394 -0.23056,-0.2597002 -29.11972,15.1047306 -29.08368,15.4679016 0.0243,0.247024 28.24233,18.518628 28.64115,18.545703 0.18585,0.01261 2.02185,-2.624444 4.08,-5.860136 z M 397.2,21.089665 c 0.66,-1.056769 1.2,-2.061999 1.2,-2.233844 0,-0.529606 -2.37008,-3.51932 -2.71504,-3.424835 -0.67094,0.183785 -6.24419,3.250047 -6.22659,3.425717 0.0198,0.198809 6.11869,4.17734 6.38163,4.163054 0.088,-0.0048 0.7,-0.873322 1.36,-1.930092 z M 187.12,35.494367 c -1.37759,-0.802374 -0.73492,-1.58672 8.11407,-9.902736 6.11952,-5.750946 8.8896,-8.151631 9.40593,-8.151631 0.51633,0 3.28641,2.400685 9.40593,8.151631 8.90822,8.371677 9.52467,9.130624 8.05511,9.917111 -0.84374,0.451555 -34.20462,0.437846 -34.98104,-0.01437 z m 26.16,-6.886598 c -2.464,-2.375833 -5.43064,-5.172403 -6.59253,-6.2146 l -2.11252,-1.894903 -6.44748,6.087786 c -3.54611,3.348283 -6.44747,6.152174 -6.44747,6.230866 0,0.07869 5.868,0.135763 13.04,0.126816 l 13.04,-0.01626 -4.48,-4.319696 z M 0.93538461,20.504615 C 0.42092307,19.990153 0,19.276929 0,18.919672 0,17.298313 1.2983139,16 2.9196724,16 3.8617082,16 5.44,17.703331 5.44,18.72 c 0,1.122561 -1.5974384,2.719999 -2.72,2.719999 -0.5119568,0 -1.2207209,-0.37149 -1.78461539,-0.935384 z m 403.84000539,0 C 404.21149,19.94072 403.84,19.231956 403.84,18.72 c 0,-1.016669 1.5783,-2.72 2.52032,-2.72 1.62138,0 2.91968,1.298313 2.91968,2.919672 0,0.942036 -1.70333,2.520327 -2.72,2.520327 -0.51197,0 -1.22074,-0.37149 -1.78461,-0.935384 z M 164.89654,14.559602 c -1.50693,-1.055494 -1.16703,-3.714941 0.56805,-4.444485 1.29703,-0.5453627 2.40079,-0.3072027 3.18261,0.686719 1.91106,2.429521 -1.19873,5.545206 -3.75066,3.757766 z m 10.86744,-0.0088 c -0.85273,-0.597274 -1.24172,-2.383403 -0.72808,-3.343149 0.46269,-0.864527 2.03499,-1.5588779 3.07832,-1.3594315 1.03247,0.1973695 2.04578,1.5295095 2.04578,2.6894785 0,2.009091 -2.6616,3.227938 -4.39602,2.013102 z m 10.88,0 c -0.85273,-0.597274 -1.24172,-2.383403 -0.72808,-3.343149 0.46269,-0.864527 2.03499,-1.5588779 3.07832,-1.3594315 1.03247,0.1973695 2.04578,1.5295095 2.04578,2.6894785 0,2.009091 -2.6616,3.227938 -4.39602,2.013102 z m 32.38148,-0.296257 c -0.9607,-0.960689 -1.02201,-2.34751 -0.15266,-3.452709 0.77675,-0.9874833 1.88428,-1.2326276 3.15498,-0.698337 1.2417,0.522096 1.76412,1.519679 1.50874,2.880998 -0.38582,2.056556 -2.99107,2.790042 -4.51106,1.270048 z m 10.88,0 c -0.9607,-0.960689 -1.02201,-2.34751 -0.15266,-3.452709 0.77675,-0.9874833 1.88428,-1.2326276 3.15498,-0.698337 1.2417,0.522096 1.76412,1.519679 1.50874,2.880998 -0.38582,2.056556 -2.99107,2.790042 -4.51106,1.270048 z m 10.88,0 c -0.9607,-0.960689 -1.02201,-2.34751 -0.15266,-3.452709 1.74289,-2.2157264 5.24873,-0.420586 4.63508,2.373358 -0.41644,1.89601 -3.03518,2.526595 -4.48242,1.079351 z"
       id="path1881"
       inkscape:connector-curvature="0" />
    <path
       style="fill:url(#linearGradient1899);stroke-width:0.31999999;fill-opacity:1"
       d="M 21.364267,40.399999 C 20.471179,39.389484 7.68,19.094429 7.68,18.687931 7.68,18.254596 19.667793,2.3479474 21.151204,0.81293864 l 0.915226,-0.94706131 1.366785,0.67268096 C 24.184947,0.90853281 31.489234,4.8267103 39.664963,9.2456193 L 54.52993,17.28 h 69.7588 69.75879 l 3.7259,-3.68 c 2.19796,-2.170887 3.98274,-3.6800002 4.35223,-3.6800002 0.7531,0 1.39435,0.5824062 1.39435,1.2664002 0,0.27412 -3.56506,4.06132 -7.92236,8.416 l -7.92235,7.917599 h -65.19765 c -64.770974,0 -65.201829,0.0042 -65.83764,0.64 -0.422723,0.422724 -1.066666,0.64 -1.896774,0.64 -2.322538,0 -3.439424,-2.692891 -1.79777,-4.334545 0.995126,-0.995129 2.774803,-1.065195 3.694544,-0.145455 0.63577,0.635771 1.066666,0.64 65.20801,0.64 h 64.56801 l 2.38398,-2.4 2.38398,-2.399999 -68.31199,0.0039 -68.31199,0.0039 -16,10.392895 c -8.8,5.716091 -16.157682,10.394344 -16.350404,10.396117 -0.192722,0.0018 -0.57312,-0.248778 -0.845329,-0.556778 z m 16.045957,-12.24 c 7.751251,-5.016 14.096915,-9.202744 14.101478,-9.303876 0.0046,-0.101133 -6.491516,-3.689912 -14.435731,-7.975065 -12.223984,-6.5936834 -14.498741,-7.7176316 -14.8,-7.3126181 -0.195784,0.2632131 -1.850791,2.4336278 -3.677795,4.8231439 -1.827003,2.3895162 -3.339003,4.4381872 -3.36,4.5526012 -0.021,0.114415 1.905824,1.26184 4.281824,2.549833 5.863461,3.178492 5.860843,3.075798 0.171968,6.744112 -2.388441,1.540121 -4.423212,2.93062 -4.521713,3.089998 -0.267618,0.433015 7.264188,12.154722 7.739802,12.04541 0.223842,-0.05145 6.748917,-4.197539 14.500167,-9.213539 z m -20.733297,-7.12 C 18.413169,19.94 19.835141,18.955816 19.836865,18.852924 19.84023,18.652106 13.860272,15.36 13.492131,15.36 c -0.121309,0 -0.815544,0.761812 -1.542746,1.692917 l -1.322186,1.692917 1.326401,2.143633 c 0.72952,1.178999 1.380428,2.145186 1.446462,2.147083 0.06603,0.0019 1.540623,-0.896551 3.276865,-1.996551 z M 370.72,30.56066 l -16,-10.392895 -68.31199,-0.0039 -68.31199,-0.0039 2.38398,2.399999 2.38398,2.4 h 64.56801 c 64.14135,0 64.57223,-0.0042 65.20801,-0.64 0.91974,-0.91974 2.69942,-0.849674 3.69456,0.145455 1.64163,1.641654 0.52474,4.334545 -1.79779,4.334545 -0.83011,0 -1.47405,-0.217276 -1.89677,-0.64 -0.63581,-0.635812 -1.06666,-0.64 -65.8424,-0.64 h -65.2024 l -7.9176,-7.922353 c -4.35468,-4.357294 -7.9176,-8.144494 -7.9176,-8.416 0,-0.679686 0.64317,-1.2616462 1.39435,-1.2616462 0.36949,0 2.15427,1.5091132 4.35223,3.6800002 l 3.7259,3.68 h 69.75612 69.75614 L 370.85347,8.5875649 C 383.40182,1.8163566 387.0769,-0.03473803 387.48112,0.21243493 388.36714,0.75424523 401.6,18.07687 401.6,18.694932 c 0,0.401728 -12.80067,20.705288 -13.68426,21.705067 -0.27222,0.308 -0.6526,0.55855 -0.84534,0.556778 -0.1927,-0.0019 -7.5504,-4.680026 -16.3504,-10.396117 z m 19.82147,0.968293 c 2.06106,-3.251076 3.66679,-6.041447 3.56829,-6.200825 -0.0985,-0.159378 -2.13328,-1.549877 -4.52173,-3.089998 -5.67465,-3.659137 -5.67533,-3.574406 0.0542,-6.680219 2.31123,-1.252851 4.23805,-2.400275 4.28183,-2.549832 0.0437,-0.149556 -1.41527,-2.226979 -3.24228,-4.6164952 -1.827,-2.3895161 -3.48201,-4.5599308 -3.67779,-4.8231439 -0.30125,-0.4050135 -2.57603,0.7189347 -14.8,7.3126181 -7.94422,4.285153 -14.44009,7.873932 -14.43526,7.975065 0.0125,0.263436 28.23913,18.542452 28.66829,18.565063 0.19635,0.01034 2.04336,-2.641158 4.10441,-5.892233 z m 6.78493,-10.639486 1.3264,-2.143633 -1.32218,-1.692917 C 396.60342,16.121812 395.90918,15.36 395.78787,15.36 c -0.36851,0 -6.34813,3.292235 -6.34413,3.492924 0.004,0.187671 6.09591,4.163633 6.39626,4.174427 0.088,0.0032 0.7569,-0.958885 1.4864,-2.137884 z M 187.44022,35.623535 c -0.30788,-0.08271 -0.65457,-0.528019 -0.77041,-0.989577 -0.17891,-0.712826 0.009,-1.038112 1.24842,-2.160154 0.80248,-0.726529 4.7284,-4.40635 8.72429,-8.177382 5.04177,-4.758079 7.48631,-6.856422 7.9876,-6.856422 0.84771,0 18.08747,16.016684 18.08289,16.799999 -0.009,1.475203 0.44395,1.437101 -17.66121,1.486957 -9.37849,0.02582 -17.3037,-0.0207 -17.61158,-0.103421 z m 27.66867,-5.326972 c -1.53389,-1.46489 -4.50653,-4.275267 -6.60587,-6.245282 l -3.81697,-3.581846 -0.82303,0.743027 c -0.45266,0.408665 -3.41502,3.174527 -6.58302,6.146361 -3.168,2.971834 -5.82,5.447848 -5.89333,5.502255 -0.0733,0.05441 5.86167,0.09892 13.18889,0.09892 h 13.32223 z M 0.93538461,20.504615 C 0.37149014,19.94072 0,19.231956 0,18.72 0,17.597438 1.5974384,16 2.72,16 c 1.1225616,0 2.72,1.597438 2.72,2.72 0,1.122561 -1.5974384,2.719999 -2.72,2.719999 -0.5119568,0 -1.2207209,-0.37149 -1.78461539,-0.935384 z m 403.84000539,0 C 404.21149,19.94072 403.84,19.231956 403.84,18.72 c 0,-1.122562 1.59744,-2.72 2.72,-2.72 1.12256,0 2.72,1.597438 2.72,2.72 0,1.122561 -1.59744,2.719999 -2.72,2.719999 -0.51197,0 -1.22074,-0.37149 -1.78461,-0.935384 z M 165.19327,14.825826 c -0.72766,-0.292771 -1.40696,-2.012883 -1.18823,-3.008785 C 164.63569,8.9457095 169.28,9.5294081 169.28,12.48 c 0,1.852248 -2.18963,3.109119 -4.08673,2.345826 z m 10.88,0 c -0.72766,-0.292771 -1.40696,-2.012883 -1.18823,-3.008785 C 175.51569,8.9457095 180.16,9.5294081 180.16,12.48 c 0,1.852248 -2.18963,3.109119 -4.08673,2.345826 z m 10.88,0 c -0.72766,-0.292771 -1.40696,-2.012883 -1.18823,-3.008785 C 186.39569,8.9457095 191.04,9.5294081 191.04,12.48 c 0,1.852248 -2.18963,3.109119 -4.08673,2.345826 z m 32.07219,-0.571281 c -1.61912,-1.619117 -0.46092,-4.3345452 1.84879,-4.3345452 2.15987,0 3.33655,1.8853232 2.35788,3.7778652 -0.82358,1.592633 -2.89642,1.866936 -4.20667,0.55668 z m 10.88,0 c -1.61912,-1.619117 -0.46092,-4.3345452 1.84879,-4.3345452 2.15987,0 3.33655,1.8853232 2.35788,3.7778652 -0.82358,1.592633 -2.89642,1.866936 -4.20667,0.55668 z m 10.88,0 c -1.61912,-1.619117 -0.46092,-4.3345452 1.84879,-4.3345452 2.15987,0 3.33655,1.8853232 2.35788,3.7778652 -0.82358,1.592633 -2.89642,1.866936 -4.20667,0.55668 z"
       id="path1879"
       inkscape:connector-curvature="0" />
    <path
       style="fill:url(#linearGradient1899);stroke-width:0.31999999;fill-opacity:1"
       d="M 21.487428,40.383954 C 20.791925,39.777519 7.9872403,19.700328 7.7726691,18.879807 7.634801,18.352597 20.787059,0.84855835 21.790716,0.22350805 22.186932,-0.02324384 25.908224,1.8531137 38.388992,8.5927236 L 54.47655,17.28 h 69.96694 69.96695 L 198.08,13.6 c 2.01826,-2.024 3.89511,-3.6800002 4.17078,-3.6800002 0.64192,0 1.26922,0.6259042 1.26922,1.2664002 0,0.27412 -3.56506,4.06132 -7.92236,8.416 l -7.92235,7.917599 h -65.19765 c -64.770974,0 -65.201829,0.0042 -65.83764,0.64 -1.510992,1.510992 -4.48,0.23856 -4.48,-1.92 0,-2.130615 2.944906,-3.439462 4.32,-1.92 0.575562,0.635989 0.98559,0.64 65.41761,0.64 h 64.83841 l 2.38398,-2.4 L 191.50398,20.16 H 123.02648 54.548982 L 38.851245,30.343984 c -8.633755,5.601193 -15.93224,10.273973 -16.218854,10.383957 -0.289328,0.111024 -0.798597,-0.04198 -1.144963,-0.343987 z m 15.82431,-12.143955 c 7.809235,-5.06 14.20078,-9.291455 14.203433,-9.403233 C 51.525171,18.415879 22.682156,3.1100598 22.409186,3.3913974 22.255175,3.5501289 20.536898,5.7679999 18.590794,8.3199998 15.804383,11.973924 15.144896,13.028005 15.487563,13.28 c 0.239328,0.176 2.178636,1.255206 4.309575,2.398235 2.130938,1.14303 3.951595,2.279316 4.045903,2.525081 0.357733,0.932237 -0.301363,1.556231 -4.522822,4.28194 -3.02524,1.953335 -4.291148,2.9447 -4.168458,3.264425 0.417259,1.08736 7.344816,11.690318 7.637995,11.690318 0.177855,0 6.712746,-4.14 14.521982,-9.2 z M 16.974135,20.884032 c 1.574545,-1.014218 2.863497,-1.939197 2.864337,-2.05551 C 19.84017,18.593473 13.903796,15.36 13.470568,15.36 c -0.150521,0 -0.853029,0.767348 -1.561128,1.705218 l -1.287452,1.705219 1.327915,2.138738 c 0.814833,1.312368 1.488941,2.076945 1.744668,1.978814 0.229215,-0.08796 1.705018,-0.989739 3.279564,-2.003957 z M 386.61632,40.722197 c -0.23302,-0.08323 -7.50256,-4.743769 -16.1545,-10.35676 L 354.73101,20.16 h -68.47749 -68.4775 l 2.38398,2.399999 2.38398,2.4 h 64.83841 c 64.43201,0 64.84206,-0.004 65.41761,-0.64 1.3751,-1.519462 4.32,-0.210615 4.32,1.92 0,2.15856 -2.96899,3.430992 -4.48,1.92 -0.63581,-0.635812 -1.06666,-0.64 -65.8424,-0.64 h -65.2024 l -7.9176,-7.922353 c -4.35468,-4.357294 -7.9176,-8.144494 -7.9176,-8.416 0,-0.636292 0.62911,-1.2616462 1.26922,-1.2616462 0.27567,0 2.15252,1.6560002 4.17078,3.6800002 l 3.66956,3.68 h 69.97591 69.97591 l 16.07715,-8.6881797 c 12.49849,-6.7542484 16.19117,-8.6171804 16.58931,-8.36921584 0.99584,0.62019914 14.15757,18.12924754 14.02086,18.65196354 -0.23843,0.911737 -13.4519,21.47857 -13.96937,21.743409 -0.27463,0.140547 -0.68999,0.187446 -0.92301,0.10422 z m 3.7665,-8.897773 c 1.96307,-3.088566 3.64851,-5.8222 3.7454,-6.074743 0.12269,-0.31964 -1.14224,-1.311612 -4.16259,-3.264425 -2.38633,-1.542891 -4.42009,-3.005543 -4.51949,-3.250337 -0.38752,-0.954678 0.28592,-1.548777 4.02964,-3.554919 2.13481,-1.144 4.07734,-2.224 4.31667,-2.4 0.34265,-0.251995 -0.31683,-1.306076 -3.10323,-4.9600002 -1.94612,-2.5519999 -3.66439,-4.7698709 -3.8184,-4.9286024 -0.273,-0.2813639 -29.1161,15.0245666 -29.10589,15.4453686 0.007,0.283168 28.23033,18.577867 28.68189,18.591863 0.20172,0.0062 1.97296,-2.515638 3.936,-5.604205 z m 6.94972,-10.919206 1.32548,-2.134781 -1.28746,-1.705219 C 396.66246,16.127348 395.95997,15.36 395.80944,15.36 c -0.43238,0 -6.36947,3.233151 -6.36931,3.468522 1.6e-4,0.208934 6.08528,4.211477 6.40278,4.211477 0.0903,0 0.76064,-0.960651 1.48963,-2.134781 z M 186.7078,34.841545 c -0.14034,-0.442144 -0.009,-0.935562 0.37843,-1.416611 0.94427,-1.173888 16.43345,-15.635587 17.07165,-15.939196 0.32024,-0.152348 0.78803,-0.152348 1.05237,0 0.63625,0.366696 16.22717,14.998924 16.98352,15.939196 0.38695,0.481049 0.51877,0.974467 0.37843,1.416611 l -0.21533,0.678454 H 204.64 186.92313 Z m 30.88077,-2.307901 c -0.25771,-0.234496 -2.99019,-2.790496 -6.07216,-5.68 -3.08197,-2.889505 -5.90812,-5.511806 -6.28033,-5.827336 -0.66887,-0.567024 -0.75065,-0.504256 -7.03641,5.400597 -3.49782,3.285859 -6.49647,6.100019 -6.66367,6.253693 -0.17364,0.159593 5.44731,0.279401 13.10857,0.279401 11.19338,0 13.33505,-0.07054 12.944,-0.426355 z M 0.93538461,20.504615 C 0.37149014,19.94072 0,19.231956 0,18.72 0,17.597438 1.5974384,16 2.72,16 c 1.1225616,0 2.72,1.597438 2.72,2.72 0,1.122561 -1.5974384,2.719999 -2.72,2.719999 -0.5119568,0 -1.2207209,-0.37149 -1.78461539,-0.935384 z m 403.84000539,0 C 404.21149,19.94072 403.84,19.231956 403.84,18.72 c 0,-1.122562 1.59744,-2.72 2.72,-2.72 1.12256,0 2.72,1.597438 2.72,2.72 0,1.122561 -1.59744,2.719999 -2.72,2.719999 -0.51197,0 -1.22074,-0.37149 -1.78461,-0.935384 z M 165.08196,14.717852 c -0.92985,-0.543308 -1.37539,-2.103169 -0.91689,-3.210082 0.47487,-1.146446 1.18321,-1.5877702 2.54844,-1.5877702 1.32223,0 2.56649,1.2411072 2.56649,2.5600002 0,1.928662 -2.47196,3.246391 -4.19804,2.237852 z m 10.88,0 c -0.92985,-0.543308 -1.37539,-2.103169 -0.91689,-3.210082 0.74403,-1.7962701 2.94958,-2.1822115 4.36753,-0.764261 1.56892,1.568922 0.33666,4.308697 -1.92805,4.28676 -0.5525,-0.0054 -1.23767,-0.14594 -1.52259,-0.312417 z m 10.88,0 c -0.92985,-0.543308 -1.37539,-2.103169 -0.91689,-3.210082 0.47007,-1.134868 1.18274,-1.5877702 2.49844,-1.5877702 1.51364,0 2.44195,0.9731892 2.44195,2.5600002 0,1.027228 -0.17818,1.492601 -0.74818,1.954162 -0.79564,0.644271 -2.41774,0.784768 -3.27532,0.28369 z M 219.22572,14.48 c -0.37685,-0.308 -0.76993,-1.089421 -0.87351,-1.736491 -0.47158,-2.946107 3.85191,-4.0140657 5.00272,-1.235739 0.47132,1.137859 -0.003,2.702915 -0.97778,3.224459 -0.90052,0.481943 -2.39998,0.361932 -3.15143,-0.252229 z m 10.88,0 c -0.37685,-0.308 -0.76993,-1.089421 -0.87351,-1.736491 -0.47158,-2.946107 3.85191,-4.0140657 5.00272,-1.235739 0.47132,1.137859 -0.003,2.702915 -0.97778,3.224459 -0.90052,0.481943 -2.39998,0.361932 -3.15143,-0.252229 z m 10.67974,-0.225455 c -2.13892,-2.138913 0.64028,-5.4778783 3.35169,-4.026775 0.97451,0.521545 1.4491,2.0866 0.97778,3.224459 -0.73392,1.771838 -2.94939,2.182399 -4.32947,0.802316 z"
       id="path1877"
       inkscape:connector-curvature="0" />
    <path
       style="fill:url(#linearGradient1899);stroke-width:0.31999999;fill-opacity:1"
       d="M 21.511803,40.395356 C 20.791332,39.757849 7.68,19.160511 7.68,18.666191 7.68,18.230962 21.139618,0.63761054 21.782552,0.23244642 22.169791,-0.01158421 25.970236,1.9078892 38.34561,8.597874 L 54.406112,17.28 h 70.002168 70.00216 L 198.08,13.6 c 2.01826,-2.024 3.89511,-3.6800002 4.17078,-3.6800002 0.64192,0 1.26922,0.6259042 1.26922,1.2664002 0,0.27412 -3.56506,4.06132 -7.92236,8.416 l -7.92235,7.917599 h -65.21102 c -64.768712,0 -65.215691,0.0043 -65.897988,0.64 -0.988509,0.920934 -2.637124,0.838248 -3.658884,-0.183509 -1.57888,-1.578882 -0.340121,-4.296491 1.958458,-4.296491 0.628554,0 1.262384,0.25131 1.614144,0.64 0.575562,0.635988 0.98559,0.64 65.40207,0.64 h 64.82288 l 2.32752,-2.311991 c 1.28014,-1.271595 2.32753,-2.423595 2.32753,-2.56 C 191.36,19.951603 160.67703,19.84 123.17562,19.84 H 54.991242 L 39.255619,30.03905 c -8.65459,5.609477 -16.046247,10.359387 -16.425904,10.555355 -0.552346,0.285104 -0.815703,0.245328 -1.317912,-0.199049 z M 48.237494,21.163871 C 50.040118,19.995742 51.477757,18.924917 51.43225,18.78426 51.251558,18.225781 22.871452,3.1623415 22.482294,3.4183593 22.263556,3.5622617 20.500845,5.7679999 18.565158,8.3199998 15.668044,12.139543 15.127606,13.021 15.508779,13.304978 c 0.254677,0.189738 2.194869,1.269737 4.311537,2.4 2.116668,1.130262 3.926271,2.255308 4.021341,2.500102 0.363413,0.935746 -0.307741,1.56034 -4.633579,4.312143 l -4.460121,2.837224 1.049335,1.642776 c 0.577134,0.903527 1.960967,3.082776 3.075185,4.842776 1.114218,1.76 2.437218,3.804112 2.94,4.542471 l 0.914149,1.34247 11.116686,-7.218598 c 6.114179,-3.970229 12.591562,-8.174341 14.394182,-9.342471 z M 17.03498,20.863426 c 1.537239,-1.002885 2.797239,-1.918999 2.8,-2.035809 C 19.840777,18.582349 13.953156,15.36 13.499224,15.36 c -0.166282,0 -0.888069,0.775804 -1.603971,1.72401 l -1.301641,1.72401 1.343194,2.118952 c 0.934046,1.473501 1.489406,2.064265 1.823194,1.939417 0.264,-0.09875 1.737741,-1.000078 3.27498,-2.002963 z M 385.2423,39.886284 c -0.94726,-0.578035 -8.30057,-5.324918 -16.3407,-10.548628 L 354.2832,19.84 h -68.18159 c -37.49989,0 -68.18161,0.111603 -68.18161,0.248008 0,0.136405 1.04739,1.288405 2.32753,2.56 l 2.32752,2.311991 h 64.82288 c 64.41647,0 64.82652,-0.004 65.40207,-0.64 0.72435,-0.800394 2.40355,-0.840684 3.33427,-0.08 0.37687,0.308 0.76995,1.089421 0.87351,1.736491 0.15689,0.980194 0.0509,1.313893 -0.63517,2 -1.02176,1.021757 -2.67037,1.104443 -3.65888,0.183509 -0.68231,-0.635659 -1.12928,-0.64 -65.90275,-0.64 H 221.5952 l -7.9176,-7.922353 c -4.35468,-4.357294 -7.9176,-8.144494 -7.9176,-8.416 0,-0.636292 0.62911,-1.2616462 1.26922,-1.2616462 0.27567,0 2.15252,1.6560002 4.17078,3.6800002 l 3.66956,3.68 h 70.00216 70.00217 L 370.9344,8.597874 C 383.30976,1.9078892 387.11021,-0.01158421 387.49744,0.23244642 388.13645,0.63513998 401.6,18.229593 401.6,18.661977 c 0,0.556161 -13.57331,21.705379 -14.1177,21.997491 -0.36483,0.19575 -1.02633,-0.03259 -2.24,-0.773184 z m 4.39008,-6.849184 c 1.54224,-2.418406 3.27559,-5.13635 3.85188,-6.039877 l 1.04777,-1.642776 -4.45427,-2.837224 c -2.44986,-1.560473 -4.53485,-3.03751 -4.63328,-3.282304 -0.38352,-0.953701 0.29091,-1.547507 4.00922,-3.529941 2.11996,-1.130263 4.06284,-2.210262 4.31753,-2.4 0.38115,-0.283978 -0.15926,-1.165435 -3.05638,-4.9849782 -1.93568,-2.5519999 -3.6984,-4.7592277 -3.91715,-4.9049509 -0.25626,-0.1707335 -5.48992,2.4865382 -14.7177,7.4725841 -7.876,4.255644 -14.31907,7.830872 -14.31795,7.944951 0.003,0.301569 28.59776,18.849642 28.85209,18.714986 0.11776,-0.06235 1.47597,-2.092067 3.01824,-4.51047 z m 7.70016,-12.131882 1.32548,-2.134781 -1.28746,-1.705219 C 396.66246,16.127348 395.94707,15.36 395.78077,15.36 c -0.45232,0 -6.34115,3.221692 -6.33834,3.467617 0.003,0.225715 6.02666,4.212382 6.36512,4.212382 0.10976,0 0.796,-0.960651 1.52499,-2.134781 z M 186.87368,35.032383 c -0.26591,-0.3204 -0.30678,-0.688269 -0.11918,-1.072745 C 187.21076,33.024537 204.09356,17.28 204.64,17.28 c 0.54644,0 17.42924,15.744537 17.8855,16.679638 0.1876,0.384476 0.14673,0.752345 -0.11918,1.072745 -0.35343,0.425856 -2.60363,0.487616 -17.76632,0.487616 -15.16269,0 -17.41289,-0.06176 -17.76632,-0.487616 z m 30.55743,-2.659977 C 217.084,32.049228 214.28,29.41989 211.2,26.529433 c -3.08,-2.890457 -5.83988,-5.441608 -6.13305,-5.669224 -0.46722,-0.362733 -1.2972,0.304572 -6.72,5.40292 -3.40283,3.199221 -6.39781,6.01479 -6.65552,6.256819 -0.39809,0.373856 1.55011,0.440051 12.95111,0.440051 13.03654,0 13.40166,-0.01677 12.78857,-0.587593 z M 1.6,21.033649 C -0.1388877,20.137298 -0.34722698,17.851292 1.1991156,16.634938 2.2688706,15.793469 3.2905578,15.83334 4.3661555,16.75853 6.6271571,18.703362 4.2391434,22.394059 1.6,21.033649 Z m 403.84,0 c -1.73888,-0.896351 -1.94723,-3.182357 -0.4009,-4.398711 1.06976,-0.841469 2.09146,-0.801598 3.16704,0.123592 2.26103,1.944832 -0.127,5.635529 -2.76614,4.275119 z M 165.05258,14.603744 c -1.33969,-1.017829 -1.29174,-3.636347 0.08,-4.370499 0.93228,-0.4989422 2.41308,-0.3645803 3.22466,0.292593 0.57,0.46156 0.74818,0.926934 0.74818,1.954162 0,1.027228 -0.17818,1.492601 -0.74818,1.954162 -0.8581,0.694846 -2.50228,0.779218 -3.3047,0.169582 z m 10.88,0 c -0.87994,-0.668537 -1.23562,-1.962139 -0.84645,-3.078526 0.8118,-2.3287267 4.37985,-2.1166115 4.90883,0.291823 0.23312,1.061405 -0.46956,2.709618 -1.2893,3.024181 -0.84335,0.323625 -2.18587,0.208657 -2.77308,-0.237478 z m 10.90938,0.114108 c -0.92985,-0.543308 -1.37539,-2.103169 -0.91689,-3.210082 0.4665,-1.126238 1.18235,-1.5877702 2.46269,-1.5877702 2.0118,0 3.1496,1.9499852 2.20437,3.7778652 -0.26865,0.519518 -0.72156,1.034029 -1.00647,1.143357 -0.75273,0.28885 -2.14537,0.22623 -2.7437,-0.12337 z m 32.75131,0.107974 c -0.72766,-0.292771 -1.40696,-2.012883 -1.18823,-3.008785 0.50009,-2.276871 3.74249,-2.6522863 4.82515,-0.558669 0.3929,0.759793 0.41648,1.153018 0.12253,2.043678 -0.20019,0.606575 -0.63098,1.245757 -0.95731,1.420406 -0.61832,0.330913 -2.10069,0.385597 -2.80214,0.10337 z m 10.88,0 c -0.72766,-0.292771 -1.40696,-2.012883 -1.18823,-3.008785 0.35338,-1.60892 2.40833,-2.4261823 3.98234,-1.583796 1.37178,0.734152 1.41973,3.35267 0.08,4.370499 -0.54481,0.413917 -2.09891,0.534 -2.87415,0.222082 z m 10.44945,-0.391664 c -0.57,-0.461561 -0.74818,-0.926934 -0.74818,-1.954162 0,-1.027228 0.17818,-1.492602 0.74818,-1.954162 0.81158,-0.6571733 2.29238,-0.7915352 3.22466,-0.292593 1.37178,0.734152 1.41973,3.35267 0.08,4.370499 -0.80242,0.609636 -2.4466,0.525264 -3.3047,-0.169582 z"
       id="path1875"
       inkscape:connector-curvature="0" />
    <path
       style="fill:url(#linearGradient1899);stroke-width:0.31999999;fill-opacity:1"
       d="M 14.546656,29.702221 C 8.2346301,19.766243 7.6360102,18.703926 8.0108499,18.103712 9.1168758,16.332682 21.512668,0.36058761 21.894978,0.21388141 c 0.241529,-0.0926833 0.993966,0.12505637 1.672083,0.483866 0.678116,0.35880969 8.013336,4.30860219 16.300488,8.77731669 L 54.935098,17.6 H 124.51255 194.09 l 3.83,-3.84 c 2.1065,-2.112 4.05545,-3.8400002 4.331,-3.8400002 0.63516,0 1.269,0.6239982 1.269,1.2492962 0,0.264712 -3.56017,4.051912 -7.91149,8.416 l -7.9115,7.934703 H 122.3781 c -64.91251,0 -65.322513,0.004 -65.8981,0.64 -1.194653,1.320077 -3.759971,0.541322 -4.155965,-1.261629 -0.534448,-2.433322 2.129328,-4.115351 4.083283,-2.578371 0.80754,0.635211 1.29817,0.64 65.555632,0.64 h 64.742 l 2.32752,-2.311991 c 1.28014,-1.271595 2.32753,-2.423595 2.32753,-2.56 0,-0.136405 -30.708,-0.245305 -68.24,-0.242 l -68.24,0.006 -16,10.389965 c -8.8,5.714478 -16.311604,10.391774 -16.692452,10.393991 -0.562319,0.0033 -1.998286,-2.051532 -7.640892,-10.933752 z m 22.59153,-1.276489 C 45.057619,23.291885 51.490979,18.952936 51.434541,18.783622 51.330202,18.470604 23.955849,3.5568386 22.995405,3.2897548 22.620007,3.1853623 21.41471,4.5266053 18.757417,8.0057489 c -2.042366,2.6740321 -3.639641,4.9812101 -3.549499,5.1270631 0.09014,0.145853 1.941649,1.20828 4.11446,2.36095 4.165433,2.20975 4.865836,2.754196 4.561939,3.54614 -0.103006,0.268429 -2.209991,1.800056 -4.682189,3.403616 l -4.494906,2.915564 0.644454,1.000458 c 0.35445,0.550253 2.121281,3.340459 3.926291,6.200459 1.805011,2.86 3.322205,5.2 3.371542,5.2 0.04934,0 6.569242,-4.200419 14.488677,-9.334267 z M 16.792963,21.075307 c 1.688817,-1.080581 3.023059,-2.107241 2.964985,-2.281465 -0.05807,-0.174225 -1.53045,-1.080708 -3.271944,-2.014409 l -3.166352,-1.697636 -1.3875,1.867147 -1.3875,1.867148 1.346432,2.111954 c 0.740538,1.161574 1.455528,2.111953 1.588868,2.111953 0.13334,0 1.624195,-0.884111 3.313011,-1.964692 z M 370.4,30.24198 l -16,-10.389964 -68.24,-0.006 c -37.532,-0.0033 -68.24,0.105597 -68.24,0.242002 0,0.136405 1.04739,1.288405 2.32753,2.56 l 2.32752,2.311991 h 64.742 c 64.25745,0 64.7481,-0.0048 65.55562,-0.64 1.95395,-1.53698 4.61773,0.145049 4.0833,2.578371 -0.396,1.802951 -2.96131,2.581706 -4.15597,1.261629 -0.57558,-0.636018 -0.9856,-0.64 -65.8981,-0.64 h -65.31891 l -7.9115,-7.934703 c -4.35132,-4.364088 -7.91149,-8.151288 -7.91149,-8.416 0,-0.625298 0.63384,-1.2492962 1.269,-1.2492962 0.27555,0 2.2245,1.7280002 4.331,3.8400002 l 3.83,3.84 h 69.57745 69.57745 l 15.06755,-8.1249359 c 8.28717,-4.4687145 15.62237,-8.418507 16.30048,-8.77731669 0.67811,-0.35880963 1.43056,-0.57654934 1.67209,-0.483866 0.38231,0.1467062 12.77812,16.11880059 13.88413,17.88983059 0.37485,0.600214 -0.22377,1.662531 -6.53581,11.598509 -5.64259,8.88222 -7.07856,10.937023 -7.64089,10.933752 C 386.71162,40.633733 379.2,35.95646 370.4,30.24198 Z m 19.60205,2.318019 c 1.80499,-2.86 3.57184,-5.650206 3.92627,-6.200459 l 0.64445,-1.000458 -4.49488,-2.915564 c -2.47223,-1.60356 -4.5792,-3.135187 -4.68221,-3.403616 -0.3039,-0.791944 0.39651,-1.33639 4.56195,-3.54614 2.1728,-1.15267 4.02432,-2.215097 4.11447,-2.36095 0.0901,-0.145853 -1.50714,-2.453031 -3.54951,-5.1270631 C 387.86528,4.5266053 386.66,3.1853623 386.28461,3.2897548 385.07885,3.6250566 357.92,18.521171 357.92,18.847205 c 0,0.290311 28.10656,18.832608 28.6401,18.894285 0.0881,0.01018 1.63692,-2.321491 3.44195,-5.181491 z m 7.38688,-11.631953 1.34643,-2.111954 -1.38752,-1.867148 -1.38749,-1.867147 -3.18019,1.705047 C 391.03107,17.72462 389.6,18.65561 389.6,18.855712 c 0,0.372818 5.48589,4.111874 6.10125,4.158455 0.18768,0.01421 0.94713,-0.924547 1.68768,-2.086121 z M 186.944,35.135999 c -0.2112,-0.2112 -0.384,-0.562694 -0.384,-0.781097 0,-0.527578 17.52137,-17.074902 18.08,-17.074902 0.55863,0 18.08,16.547324 18.08,17.074902 0,1.135961 -0.45212,1.165097 -18.08,1.165097 -13.03822,0 -17.4068,-0.0948 -17.696,-0.384 z M 217.92,33.027436 C 217.92,32.736182 204.94826,20.48 204.64,20.48 c -0.30826,0 -13.28,12.256182 -13.28,12.547436 0,0.138909 5.976,0.252563 13.28,0.252563 7.304,0 13.28,-0.113654 13.28,-0.252563 z M 2.0334174,21.188203 C 0.26536479,20.920496 -0.45116016,18.228937 0.8888889,16.888889 2.4998621,15.277915 5.184,16.409938 5.184,18.700332 c 0,1.827567 -1.2085674,2.781917 -3.1505826,2.487871 z m 403.8399926,0 c -1.72407,-0.261049 -2.43091,-3.012924 -1.11251,-4.331314 1.56182,-1.561833 4.3271,-0.385911 4.3271,1.840083 0,1.777507 -1.29584,2.781754 -3.21459,2.491231 z M 165.00316,14.376774 c -1.71294,-1.347394 -0.68645,-4.4567742 1.47129,-4.4567742 1.28013,0 1.82495,0.3119582 2.36343,1.3532432 1.30072,2.515322 -1.59901,4.862143 -3.83472,3.103531 z m 10.88,0 c -1.71294,-1.347394 -0.68645,-4.4567742 1.47129,-4.4567742 1.28013,0 1.82495,0.3119582 2.36343,1.3532432 1.30072,2.515322 -1.59901,4.862143 -3.83472,3.103531 z m 10.88,0 c -1.71294,-1.347394 -0.68645,-4.4567742 1.47129,-4.4567742 1.28013,0 1.82495,0.3119582 2.36343,1.3532432 1.30072,2.515322 -1.59901,4.862143 -3.83472,3.103531 z m 32.50105,0.01437 c -0.96456,-0.898628 -1.16753,-1.985783 -0.58209,-3.117899 1.25697,-2.4307136 4.67788,-1.491618 4.67788,1.284155 0,2.107312 -2.56804,3.25706 -4.09579,1.833745 z m 10.88,0 c -0.96456,-0.898628 -1.16753,-1.985783 -0.58209,-3.117899 1.25697,-2.4307136 4.67788,-1.491618 4.67788,1.284155 0,2.107312 -2.56804,3.25706 -4.09579,1.833745 z m 10.88,0 c -0.96456,-0.898628 -1.16753,-1.985783 -0.58209,-3.117899 1.25697,-2.4307136 4.67788,-1.491618 4.67788,1.284155 0,2.107312 -2.56804,3.25706 -4.09579,1.833745 z"
       id="path1873"
       inkscape:connector-curvature="0" />
    <path
       style="fill:url(#linearGradient1899);stroke-width:0.31999999;fill-opacity:1"
       d="M 21.541908,40.262245 C 20.1098,38.448405 8.1767526,19.220497 8.1725581,18.72 8.1670048,18.057426 21.278391,0.68192891 21.98996,0.40887429 22.210738,0.32415391 29.62375,4.1574988 38.463322,8.9274183 L 54.535267,17.6 h 69.927743 69.92775 l 3.90491,-3.895538 c 3.36449,-3.356407 3.97407,-3.8381422 4.40462,-3.480818 0.27484,0.228096 0.49971,0.652915 0.49971,0.944042 0,0.291128 -3.57062,4.089496 -7.9347,8.440818 l -7.93471,7.911495 H 122.13234 56.934083 l -0.892429,0.659804 c -2.026355,1.498147 -4.477673,-0.910282 -3.253884,-3.196953 0.169273,-0.316291 0.753606,-0.759745 1.298515,-0.985453 0.883731,-0.366054 1.091033,-0.336231 1.91927,0.276111 l 0.928528,0.686491 h 65.061547 65.06153 l 2.15142,-2.16803 c 1.18328,-1.192417 2.15142,-2.344417 2.15142,-2.56 0,-0.308071 -14.64065,-0.391931 -68.4,-0.391789 l -68.4,1.81e-4 -15.84,10.283953 C 30.008,35.780489 22.653941,40.470418 22.377646,40.54638 22.101351,40.62234 21.725269,40.49448 21.541908,40.262245 Z M 37.299475,28.559999 C 45.999638,22.926574 51.51016,19.165387 51.513898,18.857996 51.520842,18.286675 23.852862,3.1999999 22.798149,3.1999999 c -0.434404,0 -1.732444,1.4489507 -4.193644,4.6812012 C 16.644027,10.455862 15.04,12.750194 15.04,12.979717 c 0,0.229523 1.644239,1.294377 3.653864,2.366341 4.35748,2.324346 5.16535,2.925355 4.891501,3.638994 -0.110749,0.288606 -2.149929,1.787035 -4.531513,3.329842 -2.381584,1.542808 -4.330985,2.937619 -4.332002,3.099581 -0.0017,0.270741 1.549657,2.784979 5.98859,9.705524 0.931333,1.452 1.847993,2.64 2.037024,2.64 0.18903,0 6.737435,-4.14 14.552011,-9.2 z m -20.346932,-7.36 c 1.641709,-1.047027 2.885582,-2.05853 2.886262,-2.347075 C 19.839882,18.395841 14.196454,15.04 13.426713,15.04 13.067502,15.04 10.56,18.334878 10.56,18.806883 c 0,0.759252 2.421147,4.226204 2.953738,4.229593 0.304556,0.002 1.852018,-0.824477 3.438805,-1.836477 z M 370.72,30.235882 l -16,-10.395393 -68.4,-2.45e-4 c -55.27306,-1.97e-4 -68.4,0.07817 -68.4,0.408338 0,0.22472 0.97561,1.37672 2.16803,2.56 l 2.16803,2.151417 h 65.04493 65.04493 l 0.92851,-0.686491 c 0.82826,-0.612342 1.03555,-0.642165 1.9193,-0.276111 0.54489,0.225708 1.12921,0.669162 1.29849,0.985453 1.22381,2.286671 -1.22752,4.6951 -3.25388,3.196953 l -0.89242,-0.659804 h -65.19826 -65.19825 l -7.93471,-7.911495 c -4.36408,-4.351322 -7.9347,-8.14969 -7.9347,-8.440818 0,-0.291127 0.22487,-0.715946 0.49971,-0.944042 0.43055,-0.3573242 1.04013,0.124411 4.40462,3.480818 L 214.88924,17.6 h 69.92775 69.92775 l 16.07193,-8.6725817 c 8.83959,-4.7699195 16.25258,-8.60326439 16.47338,-8.51854401 0.51181,0.19640253 13.70784,17.41678771 13.87913,18.11180371 0.15888,0.644702 -13.3552,21.92951 -13.99014,22.034611 C 386.92656,40.597081 379.52,35.95335 370.72,30.235882 Z m 20.05171,1.443985 c 2.07674,-3.255927 3.77783,-6.063868 3.78023,-6.239868 0.003,-0.176 -1.9442,-1.582297 -4.3258,-3.125105 -2.38156,-1.542807 -4.42076,-3.041236 -4.53152,-3.329842 -0.27382,-0.713639 0.53402,-1.314648 4.89152,-3.638994 2.00964,-1.071964 3.65386,-2.136818 3.65386,-2.366341 0,-0.229523 -1.60403,-2.523855 -3.56451,-5.0985159 -2.46119,-3.2322505 -3.75923,-4.6812012 -4.19363,-4.6812012 -1.05479,0 -28.72272,15.0866831 -28.71568,15.6579961 0.007,0.58239 28.0558,18.921411 28.77174,18.81183 0.25187,-0.03855 2.15709,-2.734032 4.23379,-5.989959 z M 397.52,21.094281 c 0.66,-1.066269 1.2,-2.095598 1.2,-2.287398 0,-0.472005 -2.50749,-3.766883 -2.86672,-3.766883 -0.76963,0 -6.41318,3.355847 -6.41219,3.812924 0,0.597971 5.30041,4.131706 6.23891,4.160436 0.44736,0.0137 1.00118,-0.563908 1.84,-1.919079 z M 187.17774,35.013177 c -0.30277,-0.364813 -0.32763,-0.656218 -0.0887,-1.04 C 187.7638,32.889126 204.15276,17.6 204.64,17.6 c 0.48724,0 16.8762,15.289126 17.551,16.373177 0.23889,0.383782 0.21403,0.675187 -0.0887,1.04 -0.37415,0.450819 -2.30367,0.506822 -17.46226,0.506822 -15.15859,0 -17.08811,-0.056 -17.46226,-0.506822 z m 30.68572,-2.187722 C 217.7023,32.117423 205.23723,20.48 204.64,20.48 c -0.59723,0 -13.0623,11.637423 -13.22346,12.345455 -0.0881,0.387104 1.8738,0.454544 13.22346,0.454544 11.34966,0 13.31158,-0.06744 13.22346,-0.454544 z M 1.1054546,20.334545 C 0.67345456,19.902545 0.32,19.176 0.32,18.72 c 0,-1.066916 1.3330843,-2.4 2.4,-2.4 1.0669155,0 2.4,1.333084 2.4,2.4 0,1.066915 -1.3330845,2.399999 -2.4,2.399999 -0.456,0 -1.1825454,-0.353454 -1.6145454,-0.785454 z m 403.8399854,0 C 404.51344,19.902545 404.16,19.176 404.16,18.72 c 0,-1.066916 1.33309,-2.4 2.4,-2.4 1.06691,0 2.4,1.333084 2.4,2.4 0,1.066915 -1.33309,2.399999 -2.4,2.399999 -0.456,0 -1.18256,-0.353454 -1.61456,-0.785454 z M 165.14455,14.211554 c -1.16032,-0.976343 -1.29804,-2.234385 -0.35538,-3.246215 0.90927,-0.9759834 1.76474,-1.1476634 2.8702,-0.576007 1.70054,0.879385 1.71902,3.292398 0.0319,4.164847 -1.2466,0.644641 -1.39753,0.624334 -2.5467,-0.342625 z m 10.88,0 c -1.16032,-0.976343 -1.29804,-2.234385 -0.35538,-3.246215 0.90927,-0.9759834 1.76474,-1.1476634 2.8702,-0.576007 1.70054,0.879385 1.71902,3.292398 0.0319,4.164847 -1.2466,0.644641 -1.39753,0.624334 -2.5467,-0.342625 z m 10.88,0 c -1.16032,-0.976343 -1.29804,-2.234385 -0.35538,-3.246215 0.90927,-0.9759834 1.76474,-1.1476634 2.8702,-0.576007 1.70054,0.879385 1.71902,3.292398 0.0319,4.164847 -1.2466,0.644641 -1.39753,0.624334 -2.5467,-0.342625 z m 32.85952,0.327544 c -1.62684,-0.882715 -1.57089,-3.287497 0.0966,-4.149766 1.10546,-0.5716564 1.96093,-0.3999764 2.8702,0.576007 0.94266,1.01183 0.80494,2.269872 -0.35538,3.246215 -1.12737,0.948617 -1.40303,0.983193 -2.61138,0.327544 z m 10.88,0 c -1.62684,-0.882715 -1.57089,-3.287497 0.0966,-4.149766 1.10546,-0.5716564 1.96093,-0.3999764 2.8702,0.576007 0.94266,1.01183 0.80494,2.269872 -0.35538,3.246215 -1.12737,0.948617 -1.40303,0.983193 -2.61138,0.327544 z m 10.88,0 c -1.62684,-0.882715 -1.57089,-3.287497 0.0966,-4.149766 1.10546,-0.5716564 1.96093,-0.3999764 2.8702,0.576007 0.94266,1.01183 0.80494,2.269872 -0.35538,3.246215 -1.12737,0.948617 -1.40303,0.983193 -2.61138,0.327544 z"
       id="path1871"
       inkscape:connector-curvature="0" />
  </g>
</svg>
