<?xml version="1.0" encoding="UTF-8" standalone="no"?>
<!-- Created with Inkscape (http://www.inkscape.org/) -->

<svg
   xmlns:dc="http://purl.org/dc/elements/1.1/"
   xmlns:cc="http://creativecommons.org/ns#"
   xmlns:rdf="http://www.w3.org/1999/02/22-rdf-syntax-ns#"
   xmlns:svg="http://www.w3.org/2000/svg"
   xmlns="http://www.w3.org/2000/svg"
   xmlns:xlink="http://www.w3.org/1999/xlink"
   xmlns:sodipodi="http://sodipodi.sourceforge.net/DTD/sodipodi-0.dtd"
   xmlns:inkscape="http://www.inkscape.org/namespaces/inkscape"
   version="1.1"
   id="svg2787"
   width="363.20001"
   height="49.919998"
   viewBox="0 0 363.20001 49.919998"
   sodipodi:docname="divider-9.svg"
   inkscape:version="0.92.2 5c3e80d, 2017-08-06">
  <metadata
     id="metadata2793">
    <rdf:RDF>
      <cc:Work
         rdf:about="">
        <dc:format>image/svg+xml</dc:format>
        <dc:type
           rdf:resource="http://purl.org/dc/dcmitype/StillImage" />
        <dc:title></dc:title>
      </cc:Work>
    </rdf:RDF>
  </metadata>
  <defs
     id="defs2791">
    <linearGradient
       inkscape:collect="always"
       id="linearGradient3360">
       <stop offset="0%" stop-color="#FCF6BA" stop-opacity="1"/>
       <stop offset="33%" stop-color="#BF953F" stop-opacity="1"/>
       <stop offset="66%" stop-color="#FBF5B7" stop-opacity="1"/>
       <stop offset="100%" stop-color="#AA771C" stop-opacity="1"/>
    </linearGradient>
    <linearGradient
       inkscape:collect="always"
       xlink:href="#linearGradient3360"
       id="linearGradient3362"
       x2="0%" y2="100%"
       gradientUnits="userSpaceOnUse" />
  </defs>
  <sodipodi:namedview
     pagecolor="#ffffff"
     bordercolor="#666666"
     borderopacity="1"
     objecttolerance="10"
     gridtolerance="10"
     guidetolerance="10"
     inkscape:pageopacity="0"
     inkscape:pageshadow="2"
     id="namedview2789"
     showgrid="false"
     inkscape:zoom="2"
     inkscape:cx="181.60001"
     inkscape:cy="24.959999"
     inkscape:window-x="0"
     inkscape:window-y="0"
     inkscape:window-maximized="0"
     inkscape:current-layer="svg2787" />
  <g
     id="g3340"
     style="fill-opacity:1;fill:url(#linearGradient3362)">
    <path
       style="fill:url(#linearGradient3362);stroke-width:0.31999999;fill-opacity:1"
       d="m 179.66546,48.814542 c -1.90976,-1.90976 -0.0373,-5.178681 2.58878,-4.519565 3.07494,0.77176 2.51588,5.305021 -0.65424,5.305021 -0.79335,0 -1.39225,-0.243162 -1.93454,-0.785456 z M 1.7142396,44.489582 c -2.70590462,-1.119158 -1.91423573,-5.257584 1.0057605,-5.257584 2.3151063,0 3.5366174,2.698384 2,4.418109 -0.8231469,0.921235 -2.0079968,1.25215 -3.0057605,0.839475 z m 357.7600104,0 c -2.70592,-1.119158 -1.91424,-5.257584 1.00576,-5.257584 2.3151,0 3.53661,2.698384 2,4.418109 -0.82314,0.921235 -2.008,1.25215 -3.00576,0.839475 z m -209.68272,-11.211609 -5.84769,-6.082028 -46.710503,0.0062 -46.71051,0.0062 -0.926458,0.684961 c -1.88088,1.390595 -4.476368,0.322048 -4.476368,-1.842893 0,-1.477619 0.272544,-2.009416 1.302887,-2.542226 1.210435,-0.625941 1.976125,-0.589835 2.899814,0.136739 0.438976,0.345298 1.384503,0.63841 2.203155,0.682975 0.788781,0.04294 21.213403,0.05873 45.38805,0.0351 l 43.953903,-0.04298 -2.30781,-2.56 -2.3078,-2.56 H 82.366098 28.480001 v 6.818838 c 0,5.206508 -0.101759,6.958003 -0.430356,7.407386 -0.328987,0.449916 -2.646773,1.064476 -9.84,2.609072 -5.175305,1.111289 -9.8005782,2.025964 -10.2783859,2.032614 -1.5673456,0.02182 -1.574538,-0.574634 -0.1041158,-8.634249 0.7539488,-4.132513 1.546839,-8.560939 1.7619776,-9.840945 0.2151389,-1.280006 0.6038841,-2.540006 0.8638771,-2.8 0.415773,-0.415773 21.032019,-0.472716 171.147002,-0.472716 150.11499,0 170.73124,0.05694 171.14702,0.472716 0.26,0.259994 0.64873,1.519994 0.86387,2.8 0.21514,1.280006 1.00803,5.708432 1.76198,9.840945 1.4704,8.059615 1.46324,8.65606 -0.10412,8.634249 -0.4778,-0.0067 -5.10308,-0.921325 -10.27837,-2.032614 -7.19325,-1.544596 -9.51104,-2.159156 -9.84,-2.609072 -0.32861,-0.449383 -0.43037,-2.200878 -0.43037,-7.407386 v -6.818838 h -53.8861 -53.8861 l -2.3078,2.56 -2.30781,2.56 h 45.02343 c 44.53889,0 45.03219,-0.0069 45.83706,-0.64 0.9673,-0.760877 1.72037,-0.804826 2.94443,-0.171835 1.03034,0.53281 1.30289,1.064607 1.30289,2.542226 0,2.168516 -2.59564,3.233374 -4.482,1.838732 l -0.93208,-0.689123 H 265.6391 219.25227 l -5.84574,6.08 -5.84574,6.079999 H 181.6 155.63922 Z m 21.59963,-5.366719 7.07116,-8.551255 -4.02217,-0.09009 c -3.66925,-0.08219 -4.06508,-0.03529 -4.51116,0.534515 -0.26894,0.343532 -3.13927,4.056073 -6.37851,8.25009 -3.23924,4.194017 -6.02887,7.805486 -6.19918,8.025486 -0.24371,0.314809 0.46539,0.398137 3.32952,0.391254 l 3.63918,-0.0087 z m 6.4847,7.528745 c -2.11663,-3.024925 -4.21449,-5.656814 -4.41179,-5.534871 -0.12299,0.07601 -1.40891,1.586451 -2.8576,3.356535 l -2.63399,3.218336 h 5.31555 5.31556 z m 14.71768,-2.178336 c -1.44869,-1.770084 -2.73461,-3.280525 -2.8576,-3.356535 -0.1973,-0.121943 -2.29516,2.509946 -4.41179,5.534871 l -0.72773,1.04 h 5.31556 5.31555 z m 13.25517,2.818336 c -0.17031,-0.22 -2.95994,-3.831469 -6.19918,-8.025486 -3.23924,-4.194017 -6.10957,-7.906558 -6.37851,-8.25009 -0.44608,-0.5698 -0.84191,-0.616701 -4.51116,-0.534515 l -4.02217,0.09009 7.07116,8.551255 7.07116,8.551253 3.63918,0.0087 c 2.86413,0.0069 3.57323,-0.07644 3.32952,-0.391254 z M 184.4562,31.826207 c 1.52596,-2.031585 2.85396,-3.900911 2.9511,-4.154059 0.10677,-0.278255 -0.9856,-1.854606 -2.76234,-3.986208 -1.61643,-1.939268 -2.98666,-3.525941 -3.04496,-3.525941 -0.0583,0 -1.42852,1.586673 -3.04495,3.525941 -1.77674,2.131602 -2.86911,3.707953 -2.76234,3.986208 0.17307,0.451018 5.64662,7.847851 5.80729,7.847851 0.045,0 1.33023,-1.662205 2.8562,-3.693792 z M 17.104354,33.431935 c 3.684143,-0.796436 6.741052,-1.490675 6.793132,-1.542755 0.05208,-0.05208 -2.501902,-2.586098 -5.675514,-5.631153 -3.173612,-3.045054 -5.839592,-5.467074 -5.9244,-5.382266 -0.08481,0.08481 -0.650748,2.946457 -1.257643,6.359217 -0.606895,3.412762 -1.1818974,6.529021 -1.2777835,6.925021 -0.1118886,0.462086 -0.027811,0.72 0.2347146,0.72 0.2249789,0 3.4233519,-0.651629 7.1074939,-1.448064 z m 336.333516,0.728064 c -0.0959,-0.396 -0.67088,-3.512259 -1.2778,-6.925021 -0.60688,-3.41276 -1.17283,-6.274408 -1.25763,-6.359217 -0.0848,-0.08481 -2.75917,2.345246 -5.94301,5.400121 -3.34227,3.206888 -5.61356,5.614233 -5.37411,5.696084 0.89792,0.306958 12.61869,2.837485 13.3008,2.871658 0.59757,0.02992 0.69523,-0.09105 0.55175,-0.683625 z M 166.1867,19.972623 l 0.58668,-0.772624 h -13.38123 -13.38123 l 3.51394,3.6 c 1.93267,1.98 5.29985,5.423683 7.48262,7.65263 l 3.96867,4.05263 5.31193,-6.880007 c 2.92156,-3.784003 5.57593,-7.227686 5.89862,-7.652629 z m 50.20409,6.187376 6.725,-6.96 h -13.3589 -13.35891 l 0.8178,1.04 c 0.44978,0.572 3.09624,4.0108 5.88101,7.641777 l 5.06322,6.601778 0.75289,-0.681779 c 0.41409,-0.374976 3.77914,-3.813776 7.47789,-7.641776 z m -190.790789,-1.84 v -5.12 l -5.36,0.01224 L 14.88,19.224479 20.160001,24.32 c 2.904,2.802537 5.316,5.101029 5.36,5.10776 0.044,0.0067 0.08,-2.29176 0.08,-5.107761 z M 348.16001,19.320323 c 0,-0.06618 -2.376,-0.120324 -5.28,-0.120324 h -5.28 v 5.154868 5.154867 l 5.28,-5.034544 c 2.904,-2.768999 5.28,-5.088689 5.28,-5.154867 z M 66.080002,12.86737 c -1.12305,-0.230333 -2.08,-1.379125 -2.08,-2.496979 0,-1.4776192 0.272544,-2.009416 1.302886,-2.5422265 1.224067,-0.6329904 1.977133,-0.5890419 2.944432,0.1718352 0.800791,0.629902 1.29817,0.64 31.523972,0.64 26.296618,0 30.765148,-0.06603 31.091638,-0.4594307 0.5405,-0.6512615 1.99636,-0.9038531 3.00319,-0.5210551 0.47152,0.1792701 1.08602,0.8055674 1.36556,1.3917718 1.08227,2.2695473 -1.04246,4.4909463 -3.49714,3.6562493 -0.498,-0.169343 -0.98141,-0.505815 -1.07424,-0.747716 -0.25738,-0.670749 -61.282852,-0.655599 -61.839693,0.01535 -0.490804,0.591384 -1.927248,1.059015 -2.740605,0.892199 z m 76.086378,0.0039 C 141.16393,12.71096 140.16,11.306929 140.16,10.065291 c 0,-1.2444133 1.49538,-2.7052913 2.76917,-2.7052913 1.11017,0 2.67083,1.626903 2.67083,2.7841823 0,1.721676 -1.62928,3.01572 -3.43362,2.727119 z m 12.32758,-0.344907 C 153.1028,11.831583 152.58463,10.060547 153.40583,8.8072547 154.985,6.3971341 158.4,7.3386989 158.4,10.184219 c 0,2.121462 -1.97582,3.30622 -3.90604,2.342174 z M 168.16,12.866279 c -2.44025,-0.504645 -2.96777,-3.9052816 -0.78119,-5.0360025 1.22961,-0.6358595 1.9805,-0.5917181 2.95347,0.1736227 2.22752,1.7521689 0.58344,5.4322618 -2.17228,4.8623798 z m 12.72638,-0.0016 c -0.99982,-0.150634 -2.00638,-1.55502 -2.00638,-2.799388 0,-0.7778565 0.25407,-1.2621826 0.98456,-1.8768452 1.24629,-1.0486899 2.2246,-1.0486899 3.47089,0 2.22475,1.8720042 0.52172,5.1237372 -2.44907,4.6762132 z m 12.49376,-0.228011 c -1.8448,-0.775682 -2.12428,-3.3648553 -0.50102,-4.641709 2.70865,-2.1306284 6.00789,1.9477033 3.39761,4.199932 -0.87006,0.750709 -1.81801,0.895287 -2.89659,0.441777 z m 13.49987,0.236458 c -1.63747,-0.350483 -2.5493,-2.317773 -1.88123,-4.0587577 0.24275,-0.6325942 1.76265,-1.4543366 2.68995,-1.4543366 0.91116,0 2.55245,1.6856441 2.54656,2.6153845 -0.0111,1.7582518 -1.73267,3.2450118 -3.35528,2.8977098 z m 12.37221,-0.256593 c -1.86939,-0.786024 -2.2084,-2.8295481 -0.71683,-4.3211167 1.16008,-1.1600771 2.22986,-1.1925766 3.52006,-0.1069385 1.18051,0.9933276 1.32222,2.4959712 0.35176,3.7297172 -0.77676,0.987484 -1.88428,1.232628 -3.15499,0.698338 z m 10.24519,0.116209 c -0.79968,-0.212766 -1.18319,-0.57134 -1.54997,-1.44916 -0.43921,-1.051184 -0.43715,-1.271752 0.0209,-2.2322643 0.27954,-0.5862044 0.89404,-1.2125017 1.36555,-1.3917718 1.00684,-0.382798 2.4627,-0.1302064 3.00319,0.5210551 0.32649,0.3934006 4.79502,0.4594307 31.09164,0.4594307 30.2258,0 30.72318,-0.010099 31.52397,-0.64 0.9673,-0.7608771 1.72036,-0.8048256 2.94443,-0.1718352 1.03034,0.5328105 1.30289,1.0646073 1.30289,2.5422265 0,2.168516 -2.59564,3.233373 -4.482,1.838731 L 293.78592,11.52 H 263.2472 c -25.61038,0 -30.56596,0.07098 -30.70749,0.439819 -0.26482,0.690101 -1.84482,1.091499 -3.0423,0.772891 z M 83.040002,5.3904855 C 81.404652,4.4960177 81.043138,2.2347065 82.340626,1.0157804 83.308479,0.10652886 85.198342,0.07833772 86.080002,0.95999996 86.717126,1.5971219 87.146668,1.5999999 181.6,1.5999999 c 94.45334,0 94.88288,-0.00288 95.52001,-0.63999994 1.53901,-1.53901002 4.48,-0.33474533 4.48,1.83445234 0,1.4314938 -0.28017,1.9685117 -1.30289,2.4973827 -1.22407,0.6329904 -1.97713,0.5890419 -2.94443,-0.1718352 -0.80948,-0.6367337 -1.29817,-0.64 -95.75269,-0.64 -94.45451,0 -94.943204,0.00327 -95.752679,0.64 -0.902298,0.7097484 -1.839178,0.8000169 -2.807319,0.2704857 z"
       id="path3354"
       inkscape:connector-curvature="0" />
    <path
       style="fill:url(#linearGradient3362);stroke-width:0.31999999;fill-opacity:1"
       d="M 180.23327,49.385825 C 179.6922,49.168126 178.88,47.562932 178.88,46.711275 c 0,-0.96775 1.68825,-2.551277 2.72,-2.551277 1.03176,0 2.72001,1.583527 2.72001,2.551277 0,0.927299 -0.82175,2.447197 -1.45434,2.689945 -0.6007,0.230509 -2.04218,0.222077 -2.6324,-0.01539 z M 0.78545458,43.694542 c -1.65505889,-1.655056 -0.45918062,-4.334544 1.93454552,-4.334544 1.4807421,0 2.72,1.166362 2.72,2.56 0,1.393639 -1.2392579,2.56 -2.72,2.56 -0.7933558,0 -1.3922517,-0.243161 -1.93454552,-0.785456 z m 357.75999542,0 c -1.65504,-1.655056 -0.45917,-4.334544 1.93456,-4.334544 1.48074,0 2.72,1.166362 2.72,2.56 0,1.393639 -1.23926,2.56 -2.72,2.56 -0.79334,0 -1.39226,-0.243161 -1.93456,-0.785456 z m -208.65888,-10.414543 -5.99051,-6.08 H 97.068031 c -46.401364,0 -46.83386,0.0058 -47.46803,0.64 -1.550009,1.550008 -4.48,0.235649 -4.48,-2.009674 0,-2.255965 2.902599,-3.462529 4.567351,-1.898576 l 0.744851,0.699751 45.343902,0.0063 C 120.71525,24.641257 141.12,24.531791 141.12,24.394537 c 0,-0.137254 -1.11918,-1.362174 -2.48707,-2.722045 l -2.48709,-2.472493 H 82.152924 28.160001 v 7.181115 c 0,4.493799 -0.121055,7.255931 -0.323485,7.381038 C 27.100403,34.217096 8.1155858,38.098075 7.4470383,37.93028 6.9157743,37.796942 6.7179909,37.512485 6.7125384,36.873903 6.7084344,36.393256 7.449212,31.823999 8.358711,26.719999 c 1.3344848,-7.488972 1.775084,-9.388079 2.282913,-9.84 0.597639,-0.531843 9.193246,-0.56 170.958376,-0.56 161.76513,0 170.36075,0.02816 170.95838,0.56 0.50784,0.451921 0.94845,2.351028 2.28291,9.84 0.9095,5.104 1.65027,9.673257 1.64618,10.153904 -0.005,0.638582 -0.20324,0.923039 -0.7345,1.056377 -0.66854,0.167795 -19.65338,-3.713184 -20.38947,-4.168128 -0.20243,-0.125107 -0.32349,-2.887239 -0.32349,-7.381038 V 19.199999 H 281.0325 227.02499 l -2.47249,2.48708 c -1.35987,1.367894 -2.47249,2.593766 -2.47249,2.724162 0,0.130396 20.26284,0.231339 45.02853,0.224318 l 45.02853,-0.01276 0.74022,-0.695398 c 1.66031,-1.559779 4.56272,-0.3493 4.56272,1.902928 0,2.245323 -2.92999,3.559682 -4.48,2.009674 -0.63413,-0.634129 -1.06667,-0.64 -47.14803,-0.64 h -46.50803 l -5.99051,6.08 -5.9905,6.079999 h -25.72293 -25.72294 z m 21.41759,-5.2 7.22531,-8.72 -4.06473,-0.09227 -4.06474,-0.09227 -0.73087,0.892272 c -2.31277,2.823522 -12.28039,15.853513 -12.43424,16.254457 -0.15575,0.405875 0.34566,0.477815 3.3303,0.477815 h 3.51366 z m 6.41832,7.04 c -2.02327,-2.804439 -3.99235,-5.36 -4.12992,-5.36 -0.2249,0 -5.59256,6.507785 -5.59256,6.780454 0,0.142749 2.46027,0.259546 5.46726,0.259546 h 5.46725 z m 17.47753,1.420454 c 0,-0.272669 -5.36766,-6.780454 -5.59256,-6.780454 -0.13757,0 -2.10665,2.555561 -4.12992,5.36 l -1.21203,1.68 h 5.46725 c 3.00699,0 5.46726,-0.116797 5.46726,-0.259546 z m 10.76511,-0.218269 C 205.81127,35.92124 195.84365,22.891249 193.53088,20.067727 l -0.73087,-0.892272 -4.06474,0.09227 -4.06473,0.09227 7.22531,8.72 7.22531,8.72 h 3.51366 c 2.98464,0 3.48605,-0.07194 3.3303,-0.477815 z m -21.18165,-4.838179 3.03537,-4.035994 -2.27316,-2.764006 c -3.53968,-4.30401 -3.73155,-4.524006 -3.94568,-4.524006 -0.21412,0 -0.40599,0.219996 -3.94567,4.524006 l -2.27316,2.764006 3.03537,4.035994 c 1.66946,2.219795 3.10202,4.035994 3.18346,4.035994 0.0815,0 1.51401,-1.816199 3.18347,-4.035994 z M 23.360001,32.136242 c 0.738766,-0.183289 0.346873,-0.634751 -5.12,-5.898248 -3.256001,-3.134871 -5.958358,-5.66251 -6.00524,-5.616974 -0.0713,0.06926 -2.6347607,14.041468 -2.6347607,14.360854 0,0.09157 11.5425327,-2.295475 13.7600007,-2.845632 z M 352.33367,27.836805 c -0.70576,-3.923146 -1.32153,-7.17025 -1.36841,-7.215785 -0.0469,-0.04554 -2.74925,2.489939 -6.00525,5.634388 -3.256,3.14445 -5.848,5.729491 -5.76,5.744537 0.088,0.01505 3.328,0.71398 7.2,1.55319 3.872,0.839209 7.07981,1.50127 7.12845,1.471248 0.0486,-0.03002 -0.48903,-3.264432 -1.19479,-7.187578 z M 160.66992,27.259838 c 2.88755,-3.751088 5.44765,-7.099088 5.68911,-7.439999 0.43224,-0.610239 0.23165,-0.61984 -12.94998,-0.61984 h -13.38901 l 1.90651,2 c 5.94823,6.239893 13.12116,13.315676 13.29371,13.113664 0.10977,-0.128516 2.56212,-3.302737 5.44966,-7.053825 z m 58.9085,-4.299839 3.53367,-3.76 h -13.35508 c -13.12092,0 -13.34737,0.0108 -12.91603,0.61608 0.24146,0.338844 2.88703,3.790895 5.87903,7.671224 l 5.44,7.055144 3.94237,-3.911225 c 2.1683,-2.151173 5.53252,-5.603223 7.47604,-7.671223 z m -193.978419,1.36 v -5.12 l -5.36,0.01667 -5.360001,0.01667 5.280001,5.103164 c 2.904,2.80674 5.316,5.103236 5.36,5.103325 0.044,8.9e-5 0.08,-2.303838 0.08,-5.119838 z m 321.107979,-3.493966 1.58797,-1.626034 h -5.34797 -5.34797 v 5.15604 5.15604 l 3.76,-3.530006 c 2.068,-1.941503 4.47459,-4.261722 5.34797,-5.15604 z M 64.785458,12.014545 C 62.361003,9.5900921 66.071445,5.9069662 68.571877,8.2559997 l 0.749373,0.7039999 h 30.285166 30.285164 l 1.17887,-0.7999999 c 1.36637,-0.9272464 1.75234,-0.9701296 2.98667,-0.3318352 1.03034,0.5328105 1.30288,1.0646073 1.30288,2.5422265 0,2.101649 -2.93665,3.31819 -4.32,1.789609 -0.57151,-0.63152 -0.98559,-0.64 -31.249594,-0.64 -30.243738,0 -30.679306,0.0089 -31.310404,0.64 -0.919741,0.91974 -2.699418,0.849674 -3.694544,-0.145455 z m 76.160002,0 c -1.01164,-1.011633 -1.02225,-2.4235655 -0.0269,-3.5807009 1.71274,-1.9911784 4.97829,-0.4871068 4.56399,2.1021179 -0.35492,2.218148 -2.95136,3.064297 -4.53707,1.478583 z m 13.03876,0.136598 c -1.43771,-1.339427 -1.15967,-3.4137066 0.57803,-4.3123046 2.64804,-1.3693526 5.16036,2.0676431 3.0523,4.1757066 -0.9881,0.988096 -2.64927,1.050601 -3.63033,0.136598 z m 12.93894,-0.01437 c -0.64291,-0.50571 -0.84074,-0.94271 -0.83298,-1.84 0.0121,-1.3983005 0.51365,-2.1467808 1.75474,-2.6186441 1.21624,-0.4624112 2.58841,0.1086864 3.22666,1.3429363 1.30558,2.5246998 -1.86881,4.9088498 -4.14842,3.1157078 z m 12.7423,-0.122229 c -1.6496,-1.6496 -0.43017,-4.4625463 1.93454,-4.4625463 0.91608,0 1.38383,0.210295 1.96147,0.8818444 1.56559,1.8201039 0.42179,4.3661549 -1.96147,4.3661549 -0.79335,0 -1.39225,-0.24316 -1.93454,-0.785453 z M 192.73257,12.08 c -0.96785,-1.057437 -1.15338,-1.996822 -0.60414,-3.0589338 0.63825,-1.2342499 2.01042,-1.8053474 3.22666,-1.3429363 1.24109,0.4718634 1.74265,1.2203437 1.75474,2.6186441 0.019,2.197395 -2.90712,3.389449 -4.37726,1.783226 z m 12.85289,-0.06546 c -1.48328,-1.483282 -0.77099,-3.8291444 1.35855,-4.4742541 0.9674,-0.293057 2.60899,0.6144198 3.00749,1.6625449 1.0148,2.6691272 -2.34495,4.8327942 -4.36604,2.8117092 z M 218.58572,12.24 c -1.87644,-1.533617 -0.70951,-4.6880003 1.73429,-4.6880003 2.36471,0 3.58414,2.8129463 1.93454,4.4625453 -0.94588,0.945876 -2.65859,1.051124 -3.66883,0.225455 z m 9.95007,-0.180625 c -0.68424,-0.728334 -0.90632,-2.1783751 -0.49701,-3.2450387 0.21483,-0.5598253 1.7283,-1.4543366 2.46068,-1.4543366 0.24818,0 0.98173,0.36 1.6301,0.8 l 1.17887,0.7999999 h 30.28516 30.28517 l 0.74937,-0.7039999 c 1.66909,-1.56803 4.57188,-0.365281 4.57188,1.8943263 0,2.245323 -2.92999,3.559682 -4.48,2.009674 -0.6311,-0.631097 -1.06667,-0.64 -31.31041,-0.64 -30.264,0 -30.67808,0.0085 -31.24959,0.64 -0.82697,0.91379 -2.72062,0.861214 -3.62422,-0.100625 z M 83.520002,5.5406612 C 81.564783,4.7988145 80.979625,2.5112873 82.385458,1.1054545 83.377017,0.11389529 85.090476,0.04338259 85.920002,0.95999996 86.496719,1.597265 86.905593,1.5999999 181.6,1.5999999 c 94.69442,0 95.10329,-0.00274 95.68001,-0.63999994 1.41175,-1.55997181 4.32,-0.20704959 4.32,2.00967394 0,2.2596069 -2.90279,3.4623559 -4.57188,1.8943259 l -0.74937,-0.704 H 181.6 c -93.021956,0 -94.690308,0.010784 -95.339374,0.6162784 -0.736348,0.68692 -2.009155,1.0419161 -2.740624,0.764383 z"
       id="path3352"
       inkscape:connector-curvature="0" />
    <path
       style="fill:url(#linearGradient3362);stroke-width:0.31999999;fill-opacity:1"
       d="m 180.13227,49.189822 c -1.38342,-1.062163 -1.5861,-2.686035 -0.49373,-3.955981 1.99874,-2.32367 5.74595,0.169594 4.3092,2.867194 -0.20475,0.384429 -0.60075,0.874384 -0.88,1.088787 -0.65336,0.501629 -2.28211,0.501629 -2.93547,0 z M 0.92272361,43.874161 c -1.05777142,-0.856531 -1.05777142,-3.051795 0,-3.908326 1.72873839,-1.399846 4.51727649,-0.193533 4.51727649,1.954163 0,2.147696 -2.7885381,3.35401 -4.51727649,1.954163 z M 358.54545,43.694542 c -1.63421,-1.634208 -0.46016,-4.334544 1.88458,-4.334544 1.65907,0 2.59542,0.923565 2.59542,2.56 0,1.027229 -0.17814,1.492602 -0.74816,1.954163 -1.07056,0.866874 -2.76698,0.785223 -3.73184,-0.179619 z M 149.92,33.279999 l -6.07368,-6.08 H 96.932758 c -46.507166,0 -46.918581,0.0055 -47.492757,0.64 -1.361632,1.504586 -4.32,0.211937 -4.32,-1.88761 0,-2.30698 2.533431,-3.442149 4.476301,-2.005723 l 0.937783,0.693333 h 45.292961 c 24.911124,0 45.292954,-0.111378 45.292954,-0.247507 0,-0.136129 -1.11918,-1.360129 -2.48707,-2.72 l -2.48709,-2.472493 H 82.152924 28.160001 v 7.20792 c 0,7.183587 -0.0024,7.208809 -0.72,7.471036 -0.396,0.144714 -5.00061,1.169594 -10.232467,2.277514 -10.2476743,2.170089 -10.5035729,2.178992 -10.4736852,0.364349 0.00762,-0.462451 0.7782906,-5.003157 1.712609,-10.090459 1.3447623,-7.32214 1.8214072,-9.339321 2.2873132,-9.68 0.878987,-0.642731 340.853469,-0.642731 341.732479,0 0.46589,0.340679 0.94253,2.35786 2.2873,9.68 0.93433,5.087302 1.70499,9.628008 1.7126,10.090459 0.0298,1.814643 -0.22601,1.80574 -10.47366,-0.364349 -5.23187,-1.10792 -9.83648,-2.1328 -10.23248,-2.277514 -0.71757,-0.262227 -0.72,-0.287449 -0.72,-7.471036 v -7.20792 H 281.0325 227.02499 l -2.47249,2.48708 c -1.35987,1.367894 -2.47249,2.591893 -2.47249,2.72 0,0.128106 20.23783,0.23292 44.97295,0.23292 h 44.97297 l 0.93778,-0.693333 c 1.94287,-1.436426 4.4763,-0.301257 4.4763,2.005723 0,2.099547 -2.95837,3.392196 -4.32,1.88761 -0.57414,-0.634418 -0.98559,-0.64 -47.17276,-0.64 h -46.59356 l -6.07368,6.08 -6.07369,6.079999 H 181.6 155.99369 Z m 21.41933,-5.2 7.22851,-8.72 -3.90617,-0.09035 c -2.14839,-0.04969 -4.06734,-0.0285 -4.26432,0.04709 -0.30595,0.117402 -12.64687,15.861099 -13.37325,17.060657 -0.20615,0.340448 0.45779,0.422602 3.41541,0.422602 h 3.67131 z m 7.34032,8.32 c -0.44859,-0.753543 -4.94288,-6.64 -5.06962,-6.64 -0.0696,0 -1.24207,1.332 -2.60544,2.96 -1.36337,1.628 -2.69146,3.212 -2.95131,3.52 -0.44719,0.530038 -0.16919,0.56 5.19601,0.56 4.44846,0 5.61723,-0.08609 5.43036,-0.4 z m 16.46708,-0.16 c -0.25985,-0.308 -1.58794,-1.892 -2.95131,-3.52 -1.36337,-1.628 -2.53582,-2.96 -2.60544,-2.96 -0.12674,0 -4.62103,5.886457 -5.06962,6.64 -0.18687,0.313907 0.9819,0.4 5.43036,0.4 5.3652,0 5.6432,-0.02995 5.19601,-0.56 z m 11.02918,0.137398 c -0.72638,-1.199558 -13.0673,-16.943255 -13.37325,-17.060657 -0.19698,-0.07559 -2.11616,-0.09678 -4.26482,-0.04709 l -3.90667,0.09035 7.23534,8.72 7.23534,8.72 h 3.66498 c 2.95237,0 3.61522,-0.08217 3.40908,-0.422602 z m -21.4006,-4.849059 c 2.61441,-3.542583 2.99054,-4.204684 2.63078,-4.630955 -0.23088,-0.273561 -1.6177,-1.937384 -3.08184,-3.697384 -1.46414,-1.76 -2.69389,-3.2 -2.7328,-3.2 -0.3673,0 -6.13072,7.427808 -5.96795,7.69141 0.56838,0.920454 5.95385,8.117911 6.02269,8.049073 0.0432,-0.04322 1.45132,-1.938679 3.12912,-4.212144 z M 16.8,33.585615 c 3.344001,-0.708327 6.368001,-1.376109 6.720001,-1.483965 0.536032,-0.164245 -0.320592,-1.120914 -5.273182,-5.889028 -3.25225,-3.13111 -5.962569,-5.64354 -6.02293,-5.583178 -0.103112,0.103112 -2.6238887,13.838987 -2.6238887,14.297739 0,0.117094 0.252,0.152912 0.5599997,0.0796 0.308,-0.07332 3.296,-0.712841 6.64,-1.421164 z m 335.68423,-5.149496 c -0.6326,-3.583866 -1.25235,-6.832552 -1.37721,-7.219303 -0.20375,-0.631078 -0.83405,-0.117674 -6.14701,5.006824 -5.8945,5.685418 -5.9159,5.711068 -4.96666,5.956282 1.96957,0.508787 13.45066,2.924909 13.54388,2.850214 0.0535,-0.04284 -0.42039,-3.01015 -1.053,-6.594017 z m -191.54025,-1.55612 5.7958,-7.52 -6.54835,-0.08643 c -3.60159,-0.04753 -9.61236,-0.04753 -13.35727,0 l -6.80892,0.08643 7.34738,7.560594 c 4.04106,4.158327 7.44372,7.542327 7.56147,7.520001 0.11774,-0.02233 2.82219,-3.424595 6.00989,-7.560595 z m 55.63335,-7.606427 c -3.63783,-0.04753 -9.65141,-0.04753 -13.3635,0 l -6.74926,0.08643 5.84772,7.615322 5.84772,7.615321 7.51578,-7.615321 7.51578,-7.615322 z M 25.600001,24.319999 v -5.12 l -5.36,0.01566 -5.360001,0.01566 5.247424,5.104338 c 2.886083,2.807386 5.298083,5.104338 5.36,5.104338 0.06192,0 0.112577,-2.304 0.112577,-5.12 z M 345.75249,21.783694 348.305,19.199999 h -5.35251 -5.35248 v 5.154627 5.154627 l 2.8,-2.570932 c 1.54,-1.414012 3.94861,-3.733594 5.35248,-5.154627 z M 64.785458,12.014545 c -1.007853,-1.007851 -1.02217,-2.4236615 -0.0361,-3.5700343 0.933465,-1.0852211 2.404694,-1.1554259 3.726944,-0.1778445 l 0.937782,0.6933334 h 30.583003 c 26.225563,0 30.608023,-0.065204 30.758613,-0.4576396 0.27544,-0.717769 1.92833,-1.1706128 2.9102,-0.7973072 1.17133,0.4453376 1.67203,1.215967 1.68393,2.5917212 0.0186,2.151015 -2.47646,3.248182 -4.23714,1.863226 -0.80079,-0.629899 -1.29817,-0.64 -31.513565,-0.64 -30.293534,0 -30.707598,0.0085 -31.279124,0.64 -0.829527,0.916617 -2.542986,0.846104 -3.534543,-0.145455 z m 76.160002,0 c -1.64578,-1.645776 -0.46608,-4.3985453 1.88499,-4.3985453 2.13265,0 3.3051,1.940143 2.32169,3.8418653 -0.82359,1.592632 -2.89642,1.866936 -4.20668,0.55668 z M 154.02347,12.08 c -0.96216,-1.068911 -1.10644,-1.757695 -0.61471,-2.9345837 1.11187,-2.6610777 4.99124,-1.7436819 4.99124,1.1803307 0,2.114718 -2.9777,3.308276 -4.37653,1.754253 z m 12.84199,-0.06546 c -2.06827,-2.0682696 0.18645,-5.3266835 2.90104,-4.1924532 2.51026,1.0488541 1.6919,4.9779072 -1.03682,4.9779072 -0.71869,0 -1.34094,-0.262173 -1.86422,-0.785454 z m 13.36781,0.57128 C 179.70414,12.372929 178.88,10.770002 178.88,9.9537353 c 0,-0.3509258 0.32896,-1.0204768 0.73101,-1.4878912 1.02878,-1.1960271 2.94921,-1.1960271 3.97799,0 0.40205,0.4674144 0.73101,1.1369654 0.73101,1.4878912 0,0.8909677 -0.83418,2.4095087 -1.45434,2.6474867 -0.6007,0.230508 -2.04218,0.222077 -2.6324,-0.0154 z M 192.7244,12.08 c -1.32468,-1.429589 -0.97053,-3.5561117 0.70911,-4.2579082 2.71459,-1.1342303 4.96931,2.1241836 2.90104,4.1924532 -1.03007,1.030068 -2.68846,1.060136 -3.61015,0.06546 z m 12.86106,-0.06546 c -1.34632,-1.346323 -0.80332,-3.6586007 1.02215,-4.3526423 1.18434,-0.4502863 2.82284,0.3512947 3.25559,1.5926915 0.93513,2.6825098 -2.2805,4.7571948 -4.27774,2.7599508 z m 13.36781,0.57128 c -0.71352,-0.287084 -1.40689,-2.013212 -1.19542,-2.9760004 0.28343,-1.2904704 1.20476,-1.9938249 2.61171,-1.9938249 2.35107,0 3.53077,2.7527693 1.88499,4.3985453 -0.75334,0.75334 -2.21859,1.006898 -3.30128,0.57128 z m 9.72989,-0.449051 c -0.6429,-0.50571 -0.84074,-0.942709 -0.83298,-1.84 0.0119,-1.3757542 0.5126,-2.1463836 1.68393,-2.5917212 0.98187,-0.3733056 2.63476,0.079538 2.9102,0.7973072 0.15059,0.3924355 4.53305,0.4576396 30.75861,0.4576396 h 30.583 l 0.93779,-0.6933334 c 1.94287,-1.4364258 4.4763,-0.3012563 4.4763,2.0057228 0,2.099548 -2.95837,3.392197 -4.32,1.887611 -0.57153,-0.631528 -0.98559,-0.64 -31.27913,-0.64 -30.21539,0 -30.71277,0.0101 -31.51356,0.64 -1.04653,0.823207 -2.33931,0.814387 -3.40416,-0.02323 z M 83.314242,5.4397115 c -0.945104,-0.3772861 -1.71424,-1.5642371 -1.71424,-2.6454591 0,-2.04839912 2.980813,-3.31403843 4.32,-1.83425244 C 86.496719,1.597265 86.905593,1.5999999 181.6,1.5999999 c 94.69442,0 95.10329,-0.00274 95.68001,-0.63999994 1.36163,-1.50458659 4.32,-0.21193733 4.32,1.88761014 0,2.3069795 -2.53343,3.442149 -4.4763,2.0057231 L 276.18592,4.1599998 H 181.6 c -92.681998,0 -94.603364,0.012339 -95.452954,0.6129974 -1.134768,0.8022775 -1.989373,1.0034128 -2.832804,0.6667143 z"
       id="path3350"
       inkscape:connector-curvature="0" />
    <path
       style="fill:url(#linearGradient3362);stroke-width:0.31999999;fill-opacity:1"
       d="m 179.81539,48.664612 c -1.13969,-1.139692 -1.19668,-2.245155 -0.17685,-3.430771 1.52703,-1.77528 4.68147,-0.637468 4.68147,1.688618 0,1.079725 -1.62316,2.677539 -2.72001,2.677539 -0.51195,0 -1.22072,-0.371491 -1.78461,-0.935386 z M 1.0565404,43.999601 C 0.11316791,43.338837 -0.15746059,41.872712 0.447869,40.702133 1.2185549,39.21179 3.1536769,38.861659 4.5172766,39.965835 c 1.0577712,0.856531 1.0577712,3.051795 0,3.908326 -0.8985347,0.727588 -2.5172792,0.786263 -3.4607362,0.12544 z M 358.68273,43.874161 c -0.57002,-0.461561 -0.74816,-0.926934 -0.74816,-1.954163 0,-1.570422 0.92566,-2.56 2.39472,-2.56 1.34438,0 1.88314,0.298436 2.42285,1.342135 1.34585,2.602585 -1.77165,5.03263 -4.06941,3.172028 z M 149.92,33.279999 l -6.07368,-6.08 H 96.932758 c -46.507166,0 -46.918581,0.0055 -47.492757,0.64 -0.829526,0.916617 -2.542985,0.846104 -3.534544,-0.145455 -0.971657,-0.971656 -1.019917,-2.350165 -0.12223,-3.49139 0.83575,-1.062483 2.689034,-1.158921 3.904093,-0.203155 0.804928,0.633156 1.298169,0.64 46.123156,0.64 24.920244,0 45.309524,-0.111179 45.309524,-0.247065 0,-0.135886 -1.19277,-1.433648 -2.65062,-2.883915 l -2.65061,-2.636851 -53.749389,0.08392 -53.74938,0.08392 -0.08631,7.19031 c -0.04747,3.95467 -0.19147,7.295389 -0.32,7.423821 -0.12853,0.128429 -4.731118,1.196557 -10.227973,2.373616 -10.601306,2.27008 -10.976137,2.292419 -10.9583175,0.653063 0.017315,-1.593098 3.4378645,-19.454084 3.7938075,-19.810026 0.572129,-0.572128 341.585462,-0.572128 342.157582,0 0.35594,0.355942 3.77652,18.216931 3.79383,19.810026 0.0179,1.639356 -0.35703,1.617017 -10.95834,-0.653072 -5.49683,-1.177059 -10.09942,-2.245187 -10.22797,-2.373616 -0.12851,-0.128432 -0.27251,-3.469151 -0.32,-7.423821 l -0.0863,-7.19031 -53.75238,-0.08094 -53.75237,-0.08094 -2.64763,2.633872 c -1.45619,1.448629 -2.64762,2.74505 -2.64762,2.880936 0,0.135886 20.24528,0.247065 44.98952,0.247065 44.50499,0 44.9983,-0.0069 45.80316,-0.64 1.21506,-0.955766 3.06834,-0.859328 3.90409,0.203155 0.89769,1.141225 0.84943,2.519734 -0.12223,3.49139 -0.99156,0.991559 -2.70501,1.062072 -3.53454,0.145455 -0.57414,-0.634418 -0.98559,-0.64 -47.17276,-0.64 h -46.59356 l -6.07368,6.08 -6.07369,6.079999 H 181.6 155.99369 Z m 21.02054,-4.72 c 3.75853,-4.532 7.02812,-8.492 7.26576,-8.8 0.40647,-0.526821 0.18378,-0.56 -3.7585,-0.56 h -4.19057 l -6.50855,8.4 c -3.57971,4.62 -6.61608,8.58 -6.7475,8.8 -0.18557,0.310643 0.58141,0.4 3.43337,0.4 h 3.67231 z m 7.5785,7.607017 c -2.30801,-3.327606 -4.65845,-6.373063 -4.91904,-6.373558 -0.27362,-5.12e-4 -3.51613,3.748864 -5.38669,6.228739 l -0.58668,0.777802 h 5.66572 c 5.57941,0 5.65903,-0.0096 5.22669,-0.632983 z m 16.46766,-0.144819 c -1.87056,-2.479875 -5.11307,-6.229259 -5.38669,-6.228739 -0.26059,4.8e-4 -2.61103,3.045952 -4.91904,6.373558 -0.43234,0.623341 -0.35272,0.632983 5.22669,0.632983 h 5.66572 z m 11.21213,0.377802 c -0.13142,-0.22 -3.16779,-4.18 -6.7475,-8.8 l -6.50855,-8.4 h -4.19057 c -3.94228,0 -4.16497,0.03318 -3.7585,0.56 0.23764,0.308 3.50723,4.268 7.26576,8.8 l 6.83368,8.24 h 3.67231 c 2.85196,0 3.61894,-0.08936 3.43337,-0.4 z m -21.27996,-4.997772 c 1.60172,-2.176774 2.84392,-4.068277 2.76045,-4.203338 -0.4886,-0.790565 -5.97193,-7.190054 -6.12419,-7.147415 -0.52086,0.145866 -6.13736,7.305557 -5.96316,7.601622 0.97511,1.657367 6.02391,8.134429 6.19489,7.947367 0.12088,-0.132256 1.53028,-2.021463 3.13201,-4.198236 z M 16.8,33.599999 c 3.520001,-0.725181 6.616001,-1.395872 6.880001,-1.490423 0.33171,-0.118804 -1.345618,-1.936799 -5.429375,-5.884704 C 15.00047,23.082837 12.29359,20.559742 12.235339,20.617994 12.111085,20.742248 9.6092099,34.215525 9.6037241,34.789957 9.6016761,35.004431 9.7800003,35.121096 10,35.049211 c 0.22,-0.07188 3.28,-0.724032 6.8,-1.449212 z m 335.54935,-5.918915 c -0.70297,-3.826095 -1.32512,-7.003528 -1.38256,-7.060962 -0.0574,-0.05743 -2.73449,2.425511 -5.94899,5.517655 -3.21453,3.092144 -5.75497,5.712112 -5.64541,5.822151 0.33143,0.33289 14.06045,3.148813 14.16135,2.904592 0.0515,-0.124797 -0.48141,-3.357341 -1.18439,-7.183436 z m -196.0151,5.212012 c 0.69616,-0.916796 3.32359,-4.318955 5.83873,-7.560352 2.51515,-3.241398 4.51753,-5.948907 4.44975,-6.016688 -0.0678,-0.06778 -6.08562,-0.08562 -13.37298,-0.03965 L 140,19.359999 l 7.36,7.571971 c 4.048,4.164584 7.43841,7.584582 7.53425,7.6 0.0958,0.01542 0.74383,-0.722077 1.44,-1.638874 z m 59.50867,-6.013097 7.35709,-7.52 -13.24975,-0.08359 c -7.28736,-0.04598 -13.3052,-0.02814 -13.37298,0.03965 -0.0678,0.06778 1.9346,2.77529 4.44975,6.016688 2.51514,3.241397 5.14387,6.645259 5.84162,7.564138 0.69775,0.91888 1.34706,1.632985 1.44291,1.586902 0.0959,-0.04608 3.48496,-3.467785 7.53136,-7.603785 z m -190.242919,-2.72 v -5.28 h -5.466667 c -3.006667,0 -5.418667,0.108745 -5.36,0.241656 0.13066,0.296014 10.524414,10.318344 10.700737,10.318344 0.06926,0 0.12593,-2.376 0.12593,-5.28 z M 344.56001,22.958337 c 2.156,-2.09819 3.92,-3.874167 3.92,-3.946615 0,-0.07245 -2.448,-0.131723 -5.44,-0.131723 h -5.44 v 5.320755 5.320755 l 1.52,-1.37414 c 0.836,-0.755777 3.284,-3.090841 5.44,-5.189032 z M 64.785458,12.014545 C 63.8138,11.042888 63.765541,9.6643795 64.663227,8.5231545 65.498978,7.4606717 67.352261,7.3642336 68.56732,8.3199997 c 0.80072,0.6298457 1.29817,0.6399999 31.35356,0.6399999 30.13353,0 30.54764,-0.00852 31.11912,-0.6399999 0.82697,-0.9137907 2.72062,-0.8612147 3.62422,0.1006243 2.19183,2.333092 -1.02864,5.723887 -3.55153,3.739376 -0.80079,-0.629899 -1.29817,-0.64 -31.513564,-0.64 -30.293534,0 -30.707598,0.0085 -31.279124,0.64 -0.829527,0.916617 -2.542986,0.846104 -3.534544,-0.145455 z m 76.727812,0.57128 C 140.99145,12.375873 140.16,10.774265 140.16,9.9790457 c 0,-0.3370051 0.29846,-0.9921561 0.66323,-1.4558912 0.77228,-0.9817913 2.58419,-1.15847 3.72023,-0.3627574 1.32134,0.925504 1.2187,3.1434619 -0.19572,4.2294259 -0.51066,0.39207 -2.07782,0.500439 -2.83447,0.196002 z M 154.11543,12.08 c -0.75681,-0.680898 -0.95722,-1.269079 -0.87227,-2.5600004 0.12128,-1.8430908 3.27726,-2.5431992 4.49362,-0.9968451 1.99969,2.5422015 -1.2268,5.7112235 -3.62135,3.5568455 z m 12.75003,-0.06546 c -1.64165,-1.641654 -0.52477,-4.3345453 1.79777,-4.3345453 1.67276,0 2.53677,0.8640169 2.53677,2.5367743 0,2.322537 -2.69289,3.439425 -4.33454,1.797771 z m 13.36781,0.57128 c -0.72766,-0.29277 -1.40696,-2.012882 -1.18822,-3.0087841 0.55702,-2.536101 4.55289,-2.536101 5.10991,0 0.23313,1.0614051 -0.46955,2.7096181 -1.28929,3.0241811 -0.6007,0.230508 -2.04218,0.222077 -2.6324,-0.0154 z m 12.60989,-0.449051 c -0.65517,-0.515357 -0.84315,-0.943429 -0.84315,-1.92 0,-1.6727574 0.86401,-2.5367743 2.53677,-2.5367743 2.32254,0 3.43942,2.6928913 1.79777,4.3345453 -0.97166,0.971657 -2.35016,1.019917 -3.49139,0.122229 z m 12.7423,-0.122229 c -1.64165,-1.641654 -0.52477,-4.3345453 1.79777,-4.3345453 2.52633,0 3.57565,2.7137023 1.70135,4.4000003 -1.06643,0.959466 -2.50104,0.932631 -3.49912,-0.06546 z m 13.26681,0.375278 c -1.41442,-1.085964 -1.51706,-3.3039219 -0.19572,-4.2294259 1.13604,-0.7957126 2.94795,-0.6190339 3.72023,0.3627574 0.36477,0.4637351 0.66323,1.1188861 0.66323,1.4558912 0,0.8693573 -0.8418,2.3871223 -1.45434,2.6221763 -0.82588,0.316917 -2.18187,0.212045 -2.7334,-0.211399 z m 9.77319,-0.375278 c -1.03929,-1.039295 -1.05958,-2.6854606 -0.0448,-3.6387649 0.96481,-0.9063871 2.78393,-0.9347362 3.57938,-0.05578 0.57148,0.6314835 0.98559,0.6399999 31.11912,0.6399999 30.05539,0 30.55284,-0.010154 31.35356,-0.6399999 1.21506,-0.9557661 3.06834,-0.859328 3.90409,0.2031548 0.89769,1.141225 0.84943,2.5197331 -0.12223,3.4913901 -0.99156,0.991559 -2.70502,1.062072 -3.53454,0.145455 -0.57153,-0.631528 -0.98559,-0.64 -31.27913,-0.64 -30.21539,0 -30.71277,0.0101 -31.51356,0.64 -1.11371,0.876051 -2.49854,0.817866 -3.46186,-0.145455 z M 82.263228,4.5968449 C 80.292245,2.0911485 83.345993,-1.0075445 85.847321,0.95999996 86.656796,1.5967336 87.14549,1.5999999 181.6,1.5999999 c 94.45452,0 94.94321,-0.00327 95.75269,-0.63999994 1.11372,-0.87605188 2.49854,-0.8178668 3.46186,0.14545454 1.64166,1.6416537 0.52477,4.3345453 -1.79777,4.3345453 -0.83011,0 -1.47405,-0.2172758 -1.89677,-0.64 -0.63713,-0.6371219 -1.06667,-0.64 -95.52001,-0.64 -94.453332,0 -94.882874,0.00288 -95.519998,0.64 -0.978601,0.9786016 -2.970605,0.8725734 -3.816774,-0.2031549 z"
       id="path3348"
       inkscape:connector-curvature="0" />
    <path
       style="fill:url(#linearGradient3362);stroke-width:0.31999999;fill-opacity:1"
       d="m 179.80283,48.652052 c -0.94197,-0.941968 -1.04489,-1.619558 -0.45325,-2.983891 0.24957,-0.575507 1.65538,-1.420764 2.25042,-1.353094 1.48376,0.168739 2.41067,1.102301 2.63806,2.656986 0.14433,0.986809 -1.50312,2.627945 -2.63806,2.627945 -0.51452,0 -1.22284,-0.373613 -1.79717,-0.947946 z M 1.0099127,43.888811 c -1.71371781,-1.318166 -0.51338635,-4.537597 1.6858679,-4.521696 1.5961421,0.01155 2.5114922,0.941975 2.5114922,2.552883 0,1.068061 -0.1689159,1.501299 -0.7636362,1.958592 -0.9717891,0.747229 -2.469759,0.75169 -3.4337239,0.01021 z M 358.75636,43.87859 c -0.59472,-0.457293 -0.76361,-0.890531 -0.76361,-1.958592 0,-1.06806 0.16889,-1.501299 0.76361,-1.958592 1.83069,-1.407654 4.28272,-0.13864 4.21693,2.182416 -0.0585,2.064506 -2.48819,3.064029 -4.21693,1.734768 z m -208.79448,-10.598591 -6.01251,-6.08 H 96.984281 c -46.558689,0 -46.9701,0.0055 -47.54428,0.64 -0.990163,1.094117 -3.228768,0.64106 -4.005721,-0.810692 -0.454535,-0.849305 -0.199152,-2.266639 0.560249,-3.109308 0.683466,-0.758407 2.504948,-0.716988 3.518154,0.08 0.804944,0.633169 1.29817,0.64 46.210475,0.64 24.968262,0 45.396842,-0.111179 45.396842,-0.247065 0,-0.135886 -1.19236,-1.433233 -2.64969,-2.882994 l -2.6497,-2.63593 -53.830301,0.0097 -53.830308,0.0097 v 7.154109 c 0,5.433378 -0.09881,7.236116 -0.410818,7.49506 C 27.372749,33.854994 23.97335,34.654875 13.12,36.98484 7.4053176,38.211653 7.5363365,38.198046 7.0523996,37.614939 6.6150949,37.088018 6.6357224,36.944031 9.346662,21.599999 c 0.1865712,-1.056 0.5046279,-2.568 0.706793,-3.36 l 0.367572,-1.44 12.309487,-0.16 c 6.770218,-0.088 83.800666,-0.088 171.178786,0 l 158.8693,0.16 0.36778,1.44 c 0.20224,0.792 0.52038,2.304 0.70697,3.36 2.71095,15.344032 2.73156,15.488019 2.29428,16.01494 -0.48397,0.583107 -0.35293,0.596714 -6.06762,-0.630099 -10.85334,-2.329965 -14.25274,-3.129846 -14.62918,-3.442256 -0.31204,-0.25896 -0.41082,-2.062929 -0.41082,-7.501767 v -7.160818 h -53.84707 -53.84706 l -2.63294,2.646684 c -1.44811,1.455676 -2.63293,2.751676 -2.63293,2.88 0,0.128324 20.28458,0.233316 45.07684,0.233316 44.59231,0 45.08559,-0.0069 45.89048,-0.64 1.0132,-0.796988 2.83469,-0.838407 3.51815,-0.08 0.7594,0.842669 1.01478,2.260003 0.56025,3.109308 -0.77695,1.451752 -3.01556,1.904809 -4.00572,0.810692 -0.57415,-0.634424 -0.98559,-0.64 -47.22428,-0.64 h -46.64509 l -6.01251,6.08 -6.0125,6.079999 H 181.6 155.97438 Z m 14.52323,3.28 c 0.003,-0.132 0.39882,-0.686544 0.88,-1.232324 0.4812,-0.545779 1.37889,-1.613475 1.99489,-2.372656 0.616,-0.759183 1.27124,-1.536639 1.45608,-1.727678 0.18485,-0.191038 2.17625,-2.579342 4.42535,-5.307342 2.24909,-2.728 4.36585,-5.285095 4.70392,-5.682434 0.33806,-0.397338 0.61465,-0.865338 0.61465,-1.04 0,-0.193758 -1.61744,-0.317566 -4.14874,-0.317566 -3.76513,0 -4.17917,0.05687 -4.4779,0.615048 -0.18104,0.338276 -0.51533,0.806276 -0.74286,1.04 -0.22753,0.233724 -0.83965,1.000952 -1.36027,1.704952 -0.52062,0.704 -1.02702,1.352 -1.12532,1.44 -0.0983,0.088 -0.60231,0.736 -1.12,1.44 -0.5177,0.704 -1.02372,1.352 -1.12449,1.44 -0.10077,0.088 -0.82077,1.024 -1.6,2.08 -0.77923,1.056 -1.49721,1.992 -1.59551,2.08 -0.0983,0.088 -0.60074,0.736 -1.11652,1.44 -0.51578,0.704 -1.48016,1.937267 -2.14308,2.740595 -0.66292,0.803325 -1.20531,1.559325 -1.20531,1.68 0,0.300368 7.67872,0.279792 7.68511,-0.02061 z m 14.19563,-0.16 c -0.13037,-0.22 -1.05206,-1.48 -2.0482,-2.8 -0.99614,-1.32 -1.98304,-2.724 -2.19311,-3.12 -0.21007,-0.396 -0.55687,-0.712609 -0.77068,-0.703575 -0.32929,0.01391 -3.44811,3.58457 -5.45544,6.245773 l -0.58668,0.777802 h 5.64557 c 4.42955,0 5.59452,-0.08616 5.40854,-0.4 z m 16.30596,-0.377802 c -2.00733,-2.661203 -5.12615,-6.23186 -5.45544,-6.245773 -0.21381,-0.009 -0.56061,0.307575 -0.77068,0.703575 -0.21007,0.396 -1.19697,1.8 -2.19311,3.12 -0.99614,1.32 -1.91783,2.58 -2.0482,2.8 -0.18598,0.313843 0.97899,0.4 5.40854,0.4 h 5.64557 z m 11.41331,0.558397 c 0,-0.120675 -0.54239,-0.876675 -1.20531,-1.68 -0.66292,-0.803328 -1.6273,-2.036595 -2.14308,-2.740595 -0.51578,-0.704 -1.01821,-1.352 -1.11652,-1.44 -0.0983,-0.088 -0.81628,-1.024 -1.59551,-2.08 -0.77923,-1.056 -1.49923,-1.992 -1.6,-2.08 -0.10077,-0.088 -0.60679,-0.736 -1.12449,-1.44 -0.51769,-0.704 -1.02169,-1.352 -1.12,-1.44 -0.0983,-0.088 -0.6047,-0.736 -1.12532,-1.44 -0.52062,-0.704 -1.13274,-1.471228 -1.36027,-1.704952 -0.22753,-0.233724 -0.56182,-0.701724 -0.74286,-1.04 -0.29873,-0.558178 -0.71277,-0.615048 -4.4779,-0.615048 -2.5313,0 -4.14874,0.123808 -4.14874,0.317566 0,0.174662 0.27659,0.642662 0.61465,1.04 0.33807,0.397339 2.45483,2.954434 4.70392,5.682434 2.2491,2.728 4.2405,5.116304 4.42535,5.307342 0.18484,0.191039 0.84008,0.968495 1.45608,1.727678 0.616,0.759181 1.51369,1.826877 1.99489,2.372656 0.48118,0.54578 0.87718,1.100324 0.88,1.232324 0.006,0.300387 7.68511,0.320963 7.68511,0.02061 z m -22.10597,-4.260595 c 1.23678,-1.672 2.3771,-3.19307 2.53405,-3.380156 1.17594,-1.40182 1.13489,-1.509078 -2.06196,-5.386823 -1.68357,-2.042161 -3.10833,-3.713021 -3.16613,-3.713021 -0.0578,0 -1.48255,1.67086 -3.16612,3.713021 -3.19681,3.877702 -3.23871,3.98719 -2.06111,5.386823 0.15741,0.187086 1.38317,1.823713 2.72392,3.636949 1.34075,1.813235 2.55268,3.181235 2.69319,3.04 0.1405,-0.141238 1.26737,-1.624793 2.50416,-3.296793 z M 13.12,34.427227 c 1.144,-0.260236 3.952,-0.858256 6.240001,-1.328928 2.288,-0.470672 4.324635,-0.946339 4.525857,-1.057033 0.214638,-0.118078 -2.095726,-2.552656 -5.589645,-5.890167 -5.050078,-4.824007 -5.990028,-5.595566 -6.182601,-5.074992 -0.270982,0.732533 -2.5136117,12.8877 -2.5136117,13.623898 0,0.364016 0.2082889,0.467085 0.7199997,0.356285 0.396,-0.08575 1.656,-0.368823 2.8,-0.629063 z m 340.48001,0.266682 c 0,-0.731901 -2.24397,-12.888895 -2.5136,-13.617802 -0.19258,-0.520574 -1.13254,0.250985 -6.18262,5.074992 -3.53933,3.380901 -5.80708,5.772977 -5.58964,5.896138 0.20122,0.113981 2.59786,0.673331 5.32586,1.242998 2.728,0.569668 5.752,1.217655 6.72,1.439972 2.34118,0.537689 2.24,0.539331 2.24,-0.0363 z m -198.04499,-0.71465 c 0.27348,-0.319408 1.12341,-1.435408 1.88874,-2.48 0.76533,-1.044593 1.4832,-1.97126 1.59527,-2.05926 0.11208,-0.088 0.84133,-1.024 1.62056,-2.08 0.77922,-1.056 1.49721,-1.992 1.59551,-2.08 0.0983,-0.088 0.60231,-0.736 1.12,-1.44 0.51769,-0.704 1.01408,-1.352 1.10308,-1.44 0.8805,-0.870591 2.49334,-3.161819 2.33625,-3.318911 -0.1106,-0.110599 -6.23554,-0.201089 -13.61099,-0.201089 h -13.40989 l 0.6532,0.830403 c 0.8823,1.121671 14.229,14.841677 14.44214,14.846096 0.0929,0.0019 0.39264,-0.257831 0.66613,-0.577239 z m 59.73501,-6.432358 c 3.74552,-3.853353 7.10398,-7.379777 7.46323,-7.836499 l 0.6532,-0.830403 h -13.40989 c -7.37545,0 -13.50039,0.09049 -13.61099,0.201089 -0.15709,0.157092 1.45575,2.44832 2.33625,3.318911 0.089,0.088 0.58539,0.736 1.10308,1.44 0.51769,0.704 1.02169,1.352 1.12,1.44 0.0983,0.088 0.81629,1.024 1.59551,2.08 0.77923,1.056 1.50848,1.992 1.62056,2.08 0.11207,0.088 0.82994,1.014667 1.59527,2.05926 1.65417,2.257776 2.32622,3.061978 2.55487,3.057239 0.0929,-0.0019 3.2334,-3.156245 6.97891,-7.009597 z M 25.600001,24.159999 v -5.28 h -5.466667 c -3.187992,0 -5.422205,0.122604 -5.36,0.294135 0.130468,0.359767 10.41055,10.265865 10.653431,10.265865 0.09528,0 0.173236,-2.376 0.173236,-5.28 z m 317.533259,0.294134 c 2.8527,-2.742225 5.23475,-5.118225 5.29341,-5.279999 0.0622,-0.171531 -2.172,-0.294135 -5.36,-0.294135 h -5.46666 v 5.28 c 0,2.904 0.0779,5.28 0.17325,5.28 0.0953,0 2.50726,-2.243639 5.36,-4.985866 z M 65.440002,12.413498 c -0.352,-0.201872 -0.823139,-0.593493 -1.046973,-0.870269 -0.519603,-0.642499 -0.270995,-2.4740841 0.44289,-3.2629183 0.722556,-0.7984134 2.516742,-0.7783923 3.556764,0.039689 0.800756,0.6298748 1.29817,0.6399999 31.440878,0.6399999 30.220849,0 30.634939,-0.00849 31.206439,-0.6399999 1.36019,-1.5029901 4.32,-0.2712621 4.32,1.7977713 0,2.257696 -2.46599,3.443416 -4.24731,2.042229 -0.80079,-0.629899 -1.29817,-0.64 -31.513564,-0.64 -30.293534,0 -30.707598,0.0085 -31.279124,0.64 -0.640496,0.707739 -1.895354,0.818192 -2.88,0.253498 z m 76.141458,0.141601 C 140.97259,12.13228 140.16,10.75064 140.16,10.138196 c 0,-0.3296697 0.29781,-1.0176287 0.66179,-1.5287979 1.25664,-1.7647853 4.27843,-1.0029523 4.56382,1.1506015 0.13887,1.0478664 -0.2453,2.0213044 -1.03787,2.6298234 -0.5623,0.431718 -2.2384,0.531859 -2.76628,0.165276 z m 12.484,-0.540554 c -1.67485,-1.674846 -0.641,-4.3345453 1.68487,-4.3345453 1.23297,0 2.64967,1.1818351 2.64967,2.2103973 0,2.454414 -2.68734,3.77135 -4.33454,2.124148 z m 13.39546,0.463221 c -2.44669,-0.985794 -1.3943,-4.7977663 1.32454,-4.7977663 1.54335,0 2.41454,0.9152924 2.41454,2.5367743 0,1.99857 -1.75558,3.06016 -3.73908,2.260992 z M 180.07558,12.4 c -0.85688,-0.650687 -1.217,-2.003036 -0.82944,-3.1147821 0.77031,-2.2097164 3.93461,-2.2177711 4.70356,-0.011974 0.40696,1.1673971 -0.0456,2.7443271 -0.92232,3.2135091 -0.81391,0.435595 -2.32231,0.391263 -2.9518,-0.08676 z m 12.80433,-0.234322 c -1.11238,-0.874998 -1.23559,-2.8499958 -0.2399,-3.8456783 1.4888,-1.4888048 4.48,-0.2402455 4.48,1.8700033 0,2.126945 -2.54201,3.311394 -4.2401,1.975675 z m 13.3166,0.260053 c -0.75022,-0.363263 -1.3965,-1.536586 -1.3965,-2.535334 0,-1.0285622 1.4167,-2.2103973 2.64967,-2.2103973 2.32587,0 3.35972,2.6596993 1.68487,4.3345453 -0.82655,0.826555 -1.79911,0.962666 -2.93804,0.411186 z m 12.65576,-0.03591 c -1.30405,-1.001226 -1.4315,-3.1509821 -0.24601,-4.1498233 0.37941,-0.3196711 1.18941,-0.56 1.88741,-0.56 0.98443,0 1.35174,0.1811465 1.88455,0.9293984 0.36398,0.5111692 0.66179,1.1991282 0.66179,1.5287979 0,0.612444 -0.81259,1.994084 -1.42146,2.416903 -0.52788,0.366583 -2.20398,0.266442 -2.76628,-0.165276 z m 9.77319,-0.375278 c -1.10113,-1.101133 -1.07474,-2.7805431 0.0577,-3.6713197 1.08216,-0.8512221 2.71763,-0.8621472 3.47685,-0.023226 0.5715,0.6315078 0.98559,0.6399999 31.20644,0.6399999 30.14271,0 30.64012,-0.010125 31.44088,-0.6399999 1.0132,-0.7969878 2.83468,-0.8384067 3.51815,-0.08 0.7594,0.8426687 1.01478,2.2600037 0.56025,3.1093087 -0.77695,1.451752 -3.01556,1.904808 -4.00572,0.810692 -0.57153,-0.631528 -0.98559,-0.64 -31.27913,-0.64 -30.21539,0 -30.71277,0.0101 -31.51356,0.64 -1.11371,0.876051 -2.49854,0.817866 -3.46186,-0.145455 z M 82.385458,4.6545454 C 81.106876,3.375965 81.430082,1.581121 83.098965,0.69226967 84.110598,0.15347173 84.92254,0.23256694 85.847321,0.95999996 86.656796,1.5967336 87.14549,1.5999999 181.6,1.5999999 c 94.45452,0 94.94321,-0.00327 95.75269,-0.63999994 2.51502,-1.97831416 5.71725,1.43915374 3.46186,3.69454544 -0.99156,0.991559 -2.70502,1.0620717 -3.53454,0.1454544 -0.57672,-0.6372649 -0.98559,-0.64 -95.68001,-0.64 -94.694407,0 -95.103281,0.00272 -95.679998,0.64 -0.829526,0.9166173 -2.542985,0.8461046 -3.534544,-0.1454544 z"
       id="path3346"
       inkscape:connector-curvature="0" />
    <path
       style="fill:url(#linearGradient3362);stroke-width:0.31999999;fill-opacity:1"
       d="m 180.21101,49.087707 c -1.02462,-0.717674 -1.37801,-1.81736 -0.96487,-3.00249 0.77279,-2.216828 3.93494,-2.216828 4.70773,0 0.82751,2.373779 -1.72132,4.418426 -3.74286,3.00249 z M 1.2125807,44.043742 C 0.49560497,43.499022 -0.03411814,42.073035 0.21666075,41.362776 1.1027266,38.853259 4.1869352,38.665851 5.0994993,41.066078 c 0.3763053,0.989757 -0.015245,2.326685 -0.87208,2.977664 -0.7036835,0.534624 -2.3111551,0.534624 -3.0148386,0 z m 357.7600093,0 c -0.85684,-0.650979 -1.24839,-1.987907 -0.87207,-2.977664 0.91255,-2.400227 3.99677,-2.212819 4.88282,0.296698 0.25078,0.710259 -0.27895,2.136246 -0.99591,2.680966 -0.70368,0.534624 -2.31116,0.534624 -3.01484,0 z M 150.02454,33.281083 144.16,27.20217 97.170476,27.201085 c -46.505822,-0.0011 -46.997902,0.0055 -47.803156,0.638914 -0.924759,0.727416 -1.629808,0.798284 -2.770634,0.278489 -1.591158,-0.72498 -1.835571,-3.286689 -0.408918,-4.285954 0.965833,-0.676496 2.56288,-0.59426 3.252233,0.167465 0.574026,0.63429 0.985591,0.64 46.129598,0.64 25.052721,0 45.550401,-0.111179 45.550401,-0.247065 0,-0.135886 -1.191,-1.431886 -2.64668,-2.88 l -2.64669,-2.632935 H 81.993317 28.160001 v 7.160818 c 0,5.640868 -0.09221,7.237345 -0.434421,7.521354 -0.238931,0.198295 -4.865908,1.307808 -10.282172,2.465581 C 8.5539935,37.927944 7.5474492,38.08459 7.1002802,37.637422 6.6531109,37.190251 6.7794456,36.171707 8.3984809,27.170993 9.3849484,21.686915 10.319003,17.072997 10.474157,16.917842 c 0.371006,-0.371005 341.883743,-0.367947 342.254753,0.0031 0.15347,0.153469 1.08614,4.766008 2.0726,10.250086 1.61904,9.000714 1.74538,10.019258 1.29821,10.46643 -0.44717,0.447168 -1.45369,0.290521 -10.3431,-1.609671 -5.41629,-1.157773 -10.04327,-2.267286 -10.28218,-2.465581 -0.34221,-0.284016 -0.43443,-1.880493 -0.43443,-7.521361 v -7.160818 h -53.84707 -53.84706 l -2.63294,2.646684 c -1.44811,1.455676 -2.63293,2.751676 -2.63293,2.88 0,0.128324 20.35368,0.233316 45.2304,0.233316 44.82401,0 45.23561,-0.0057 45.8096,-0.64 0.68935,-0.761725 2.2864,-0.843961 3.25223,-0.167465 1.42666,0.999265 1.18224,3.560974 -0.40892,4.285954 -1.14082,0.519795 -1.84587,0.448927 -2.77063,-0.278489 -0.8052,-0.633367 -1.29733,-0.639989 -47.48316,-0.638914 l -46.66952,0.0011 -5.86454,6.078913 -5.86452,6.078915 H 181.6 155.88906 Z M 171.36,28.247712 c 3.872,-4.686828 7.08656,-8.711902 7.14347,-8.944609 0.0817,-0.334232 -0.76078,-0.423104 -4.01107,-0.423104 h -4.11454 l -6.78893,8.785709 c -3.73391,4.83214 -6.78893,8.86414 -6.78893,8.959999 0,0.09586 1.692,0.167367 3.76,0.1589 l 3.76,-0.01539 z m 7.52,8.400383 c 0,-0.08355 -1.17834,-1.744061 -2.61854,-3.690029 -2.0536,-2.774789 -2.69794,-3.449663 -2.98654,-3.128096 -0.95046,1.059001 -5.18498,6.215459 -5.39535,6.570029 -0.18621,0.313824 0.9732,0.4 5.38155,0.4 3.09039,0 5.61888,-0.06836 5.61888,-0.151904 z m 16.44044,-0.248096 c -0.21037,-0.35457 -4.44489,-5.511028 -5.39535,-6.570029 -0.2886,-0.321567 -0.93294,0.353307 -2.98654,3.128096 -1.4402,1.945968 -2.61854,3.60648 -2.61854,3.690029 0,0.08355 2.52849,0.151904 5.61888,0.151904 4.40835,0 5.56776,-0.08618 5.38155,-0.4 z m 11.07957,0.225708 c 0,-0.09586 -3.05502,-4.127859 -6.78893,-8.959999 l -6.78893,-8.785709 h -4.11454 c -3.25029,0 -4.0928,0.08887 -4.01107,0.423104 0.0569,0.232707 3.27147,4.257781 7.14347,8.944609 l 7.04,8.521503 3.76,0.01539 c 2.068,0.0085 3.76,-0.06304 3.76,-0.1589 z m -21.60848,-4.934364 c 2.02134,-2.704875 3.01266,-4.291807 2.84853,-4.559999 -0.34142,-0.557887 -5.91933,-7.291345 -6.04006,-7.291345 -0.12072,0 -5.69863,6.733458 -6.04005,7.291345 -0.16413,0.268192 0.82719,1.855124 2.84853,4.559999 1.70515,2.28176 3.14134,4.148656 3.19152,4.148656 0.0502,0 1.48638,-1.866896 3.19153,-4.148656 z M 17.12,33.582789 c 3.520001,-0.738262 6.564636,-1.432409 6.765858,-1.542544 0.214151,-0.117212 -2.106472,-2.561903 -5.59645,-5.895652 -4.923833,-4.703419 -6.002846,-5.595186 -6.195056,-5.12 -0.2659,0.657363 -2.4943517,12.888785 -2.4943517,13.690881 0,0.349773 0.1887859,0.474045 0.5599997,0.368633 0.308,-0.08746 3.44,-0.763052 6.96,-1.501318 z m 336.48001,1.11112 c 0,-0.78689 -2.23274,-13.02256 -2.49434,-13.669316 -0.19222,-0.475196 -1.27132,0.416483 -6.19609,5.12 -3.27984,3.132473 -5.90445,5.757206 -5.83245,5.832741 0.10781,0.113113 13.50461,3.111205 14.28288,3.196396 0.132,0.01443 0.24,-0.201472 0.24,-0.479821 z M 161.0572,26.901512 c 3.25554,-4.212168 5.83748,-7.740168 5.73765,-7.84 -0.24052,-0.240518 -26.95485,-0.235617 -26.95485,0.0049 0,0.272016 14.80985,15.493542 15.07451,15.493542 0.12294,0 2.88715,-3.44632 6.14269,-7.658487 z m 54.87732,0.0049 c 4.08402,-4.209448 7.42549,-7.737448 7.42549,-7.839999 0,-0.240562 -26.71433,-0.245463 -26.95485,-0.0049 C 196.20379,19.262882 207.92978,34.56 208.2855,34.56 c 0.12294,0 3.565,-3.444094 7.64902,-7.653543 z M 25.600001,24.159999 v -5.28 h -5.466667 c -3.187992,0 -5.422205,0.122604 -5.36,0.294135 0.130468,0.359767 10.41055,10.265865 10.653431,10.265865 0.09528,0 0.173236,-2.376 0.173236,-5.28 z m 317.533259,0.294134 c 2.8527,-2.742225 5.23475,-5.118225 5.29341,-5.279999 0.0622,-0.171531 -2.172,-0.294135 -5.36,-0.294135 h -5.46666 v 5.28 c 0,2.904 0.0779,5.28 0.17325,5.28 0.0953,0 2.50726,-2.243639 5.36,-4.985866 z M 65.382779,12.419605 c -1.506272,-0.728223 -1.696108,-3.2997113 -0.315011,-4.2670706 0.965834,-0.676496 2.56288,-0.5942601 3.252234,0.1674653 0.571545,0.63155 0.98559,0.6399999 31.360001,0.6399999 30.374407,0 30.788457,-0.00845 31.359997,-0.6399999 0.82953,-0.9166173 2.54299,-0.8461046 3.53455,0.1454544 2.29381,2.2938089 -0.90401,5.7065569 -3.46186,3.6945459 -0.80076,-0.629872 -1.29817,-0.64 -31.432687,-0.64 -30.134513,0 -30.631931,0.01013 -31.432683,0.64 -0.889299,0.699523 -1.786432,0.780827 -2.864541,0.259605 z m 75.712611,-0.55499 c -1.05458,-1.054578 -1.13991,-1.58089 -0.46722,-2.8817286 0.52338,-1.0121034 1.0675,-1.3028867 2.43801,-1.3028867 2.21328,0 3.10503,2.8465523 1.3784,4.4000003 -1.09366,0.983968 -2.22243,0.911378 -3.34919,-0.215385 z m 12.97007,0.14993 c -1.63865,-1.638652 -0.56285,-4.3345453 1.72972,-4.3345453 1.18776,0 2.60482,1.2024844 2.60482,2.2103973 0,2.454414 -2.68734,3.77135 -4.33454,2.124148 z m 13.39546,0.463221 c -2.411,-0.971415 -1.39913,-4.7977663 1.26876,-4.7977663 2.24862,0 3.30409,2.7153273 1.68487,4.3345453 -0.80919,0.809194 -1.73469,0.954341 -2.95363,0.463221 z m 12.75009,-0.190059 c -1.02462,-0.717672 -1.37801,-1.817357 -0.96487,-3.0024891 0.77279,-2.2168271 3.93494,-2.2168271 4.70773,0 0.82751,2.3737781 -1.72132,4.4184281 -3.74286,3.0024891 z M 192.82352,12.0526 c -1.6753,-1.675297 -0.63178,-4.3726003 1.69166,-4.3726003 2.10813,0 3.35817,2.5273503 2.04483,4.1342813 -0.308,0.376851 -1.08943,0.769928 -1.73649,0.873506 -0.9802,0.1569 -1.3139,0.05092 -2,-0.635187 z m 13.37299,0.373131 c -1.47701,-0.715182 -1.79503,-2.7762955 -0.61105,-3.9602769 1.63865,-1.6386515 4.33455,-0.5628458 4.33455,1.7297159 0,1.943965 -1.92895,3.099498 -3.7235,2.230561 z M 218.75543,12.08 c -1.72663,-1.553448 -0.83488,-4.4000003 1.3784,-4.4000003 1.37051,0 1.91463,0.2907833 2.43801,1.3028867 0.67269,1.3008386 0.58736,1.8271506 -0.46722,2.8817286 -1.12676,1.126763 -2.25553,1.199353 -3.34919,0.215385 z m 9.87003,-0.06546 c -1.62826,-1.628257 -0.46046,-4.3345453 1.87041,-4.3345453 0.67855,0 1.3019,0.2397293 1.66414,0.64 0.57154,0.63155 0.98559,0.6399999 31.36,0.6399999 30.37441,0 30.78845,-0.00845 31.36,-0.6399999 0.68935,-0.7617254 2.2864,-0.8439613 3.25223,-0.1674653 1.42665,0.9992652 1.18224,3.5609736 -0.40892,4.2859546 -1.14082,0.519795 -1.84587,0.448927 -2.77063,-0.278489 -0.80075,-0.629872 -1.29817,-0.64 -31.43268,-0.64 -30.13452,0 -30.63193,0.01013 -31.43269,0.64 -1.11371,0.876051 -2.49854,0.817866 -3.46186,-0.145455 z M 82.385458,4.6545454 C 80.143385,2.4124733 83.347154,-1.0066308 85.847321,0.95999996 86.656796,1.5967336 87.14549,1.5999999 181.6,1.5999999 c 94.45452,0 94.94321,-0.00327 95.75269,-0.63999994 2.50017,-1.96663076 5.70394,1.45247334 3.46186,3.69454544 -0.99156,0.991559 -2.70502,1.0620717 -3.53454,0.1454544 -0.57672,-0.6372649 -0.98559,-0.64 -95.68001,-0.64 -94.694407,0 -95.103281,0.00272 -95.679998,0.64 -0.829526,0.9166173 -2.542985,0.8461046 -3.534544,-0.1454544 z"
       id="path3344"
       inkscape:connector-curvature="0" />
    <path
       style="fill:url(#linearGradient3362);stroke-width:0.31999999;fill-opacity:1"
       d="M 179.89578,48.539374 C 179.51311,48.13203 179.2,47.405486 179.2,46.924827 c 0,-1.111629 1.30876,-2.444829 2.4,-2.444829 1.11546,0 2.40001,1.332535 2.40001,2.489674 0,2.027558 -2.70292,3.061318 -4.10423,1.569702 z M 1.76,44.093496 c -1.96003075,-1.124077 -1.91405676,-3.310243 0.092087,-4.378957 1.8085406,-0.963443 3.8601081,1.249879 3.0691349,3.311123 -0.1884384,0.491063 -1.7164496,1.465479 -2.265331,1.444605 C 2.5151511,44.464917 2.1120001,44.295368 1.76,44.093496 Z m 357.76001,0.01699 c -1.97658,-1.081114 -1.92973,-3.31889 0.0921,-4.395946 1.92428,-1.0251 4.19696,1.768868 2.85772,3.513191 -0.41011,0.534163 -1.6054,1.259065 -2.0488,1.242537 -0.14355,-0.0053 -0.54902,-0.167254 -0.90102,-0.359782 z M 156.29894,39.05484 c -0.36359,-0.148838 -3.25949,-2.954912 -6.43532,-6.235718 l -5.77425,-5.965104 -47.051191,0.09299 c -42.559717,0.08411 -47.107842,0.141804 -47.64468,0.60435 -0.967475,0.833583 -1.697744,0.953221 -2.689133,0.440555 -1.590874,-0.822672 -1.67072,-3.181236 -0.141616,-4.183143 0.87376,-0.572509 2.054426,-0.425882 2.832016,0.351708 0.421543,0.421542 5.995712,0.47952 46.102379,0.47952 36.733215,0 45.622855,-0.0794 45.622855,-0.407507 0,-0.224129 -1.11918,-1.520129 -2.48707,-2.88 l -2.48709,-2.472493 H 82.152924 28.160001 v 7.017143 c 0,5.502986 -0.09427,7.111413 -0.436882,7.454025 -0.411529,0.411529 -18.2033923,4.408831 -19.6235652,4.408831 -1.4345434,0 -1.4178231,-0.429052 0.4114183,-10.55717 0.9667085,-5.352458 1.9128439,-9.918736 2.1025219,-10.147285 0.511668,-0.616521 341.461366,-0.616521 341.973016,0 0.18969,0.228549 1.1358,4.794827 2.10252,10.147285 1.82925,10.128118 1.84596,10.55717 0.41143,10.55717 -1.42016,0 -19.21203,-3.997302 -19.62355,-4.408831 -0.34263,-0.342612 -0.4369,-1.951039 -0.4369,-7.454025 V 18.879999 H 281.0325 227.02499 l -2.47249,2.48708 c -1.35987,1.367894 -2.47249,2.663893 -2.47249,2.88 0,0.30871 9.70924,0.39292 45.30285,0.39292 39.82237,0 45.36087,-0.05801 45.78238,-0.47952 0.77759,-0.77759 1.95826,-0.924217 2.83202,-0.351708 1.5291,1.001907 1.44926,3.360471 -0.14162,4.183143 -0.99138,0.512666 -1.72165,0.393029 -2.68914,-0.440555 -0.53681,-0.462523 -5.05614,-0.520068 -47.32056,-0.602535 l -46.72705,-0.09118 -5.9919,6.171176 -5.9919,6.171174 -25.08754,0.06273 c -13.79815,0.0345 -25.38503,-0.05905 -25.74861,-0.207888 z m 15.21988,-10.73342 c 3.87265,-4.663218 7.04118,-8.695218 7.04118,-8.96 0,-0.40476 -0.67517,-0.480088 -4.24,-0.473051 l -4.24,0.0084 -6.56,8.509846 c -3.608,4.680413 -6.60656,8.708647 -6.66346,8.951629 -0.0836,0.357027 0.63754,0.441786 3.75882,0.441786 h 3.86228 z m 7.36118,8.146585 c 0,-0.516163 -4.87958,-7.028006 -5.26636,-7.028006 -0.40539,0 -5.93364,6.550908 -5.93364,7.031296 0,0.212416 1.98115,0.328704 5.6,0.328704 3.65486,0 5.6,-0.115316 5.6,-0.331994 z m 16.64001,0.0033 c 0,-0.480394 -5.52825,-7.031302 -5.93364,-7.031302 -0.38678,0 -5.26636,6.511843 -5.26636,7.028006 0,0.216678 1.94514,0.331994 5.6,0.331994 3.61885,0 5.6,-0.116288 5.6,-0.328704 z m 10.82346,-0.113082 c -0.0569,-0.242988 -3.05546,-4.271222 -6.66346,-8.951635 l -6.56,-8.509846 -4.24,-0.0084 c -3.56483,-0.007 -4.24,0.06829 -4.24,0.473051 0,0.264782 3.16853,4.296782 7.04118,8.96 l 7.04118,8.478579 h 3.86228 c 3.12128,0 3.84243,-0.08476 3.75882,-0.441786 z m -21.45371,-4.47509 c 1.62264,-2.176279 2.95025,-4.17782 2.95025,-4.44787 0,-0.676874 -5.67194,-7.43526 -6.24001,-7.43526 -0.56806,0 -6.24,6.758386 -6.24,7.43526 0,0.618762 5.78061,8.40474 6.24,8.40474 0.18674,0 1.66713,-1.780592 3.28976,-3.95687 z m -167.677846,1.81781 c 4.252366,-0.894903 7.094803,-1.638621 7.04,-1.842002 -0.139707,-0.518477 -11.526315,-11.378942 -11.930203,-11.378942 -0.207241,0 -0.843486,2.737526 -1.543244,6.64 -1.2118079,6.758121 -1.3652392,8.079283 -0.9384667,8.080921 0.132,6.4e-4 3.4493607,-0.674483 7.3719137,-1.499977 z m 336.394176,0.779056 c 0.0138,-1.63241 -2.39594,-14 -2.72778,-14 -0.40476,0 -11.79075,10.861127 -11.93052,11.380568 -0.055,0.204536 2.65459,0.933307 6.72,1.80738 8.17318,1.757258 7.93052,1.732436 7.9383,0.812052 z M 161.13949,27.12468 c 3.15728,-4.089426 5.78707,-7.617426 5.84398,-7.84 0.0822,-0.321524 -2.69598,-0.404681 -13.52,-0.404681 -9.61174,0 -13.62347,0.102624 -13.62347,0.348501 0,0.554079 14.50542,15.313102 15.05949,15.322775 0.27907,0.0049 3.03262,-3.272286 6.24,-7.426595 z m 54.8344,0.03005 c 3.97437,-4.072896 7.27268,-7.600895 7.32958,-7.84 0.0859,-0.361135 -2.20695,-0.434735 -13.54346,-0.434735 -10.84294,0 -13.62567,0.08315 -13.54347,0.404681 0.21606,0.845085 11.60684,15.275319 12.05787,15.275319 0.26035,0 3.72512,-3.33237 7.69948,-7.405265 z M 25.920001,24.159999 v -5.28 h -5.623464 c -4.454111,0 -5.60195,0.08651 -5.52,0.416039 0.163605,0.657872 10.14027,10.143961 10.66856,10.143961 0.400684,0 0.474904,-0.825183 0.474904,-5.28 z m 317.354919,0.416038 c 2.77479,-2.675178 5.09165,-5.051178 5.14855,-5.279999 0.082,-0.329527 -1.06589,-0.416039 -5.52,-0.416039 h -5.62346 v 5.28 c 0,4.454817 0.0742,5.28 0.47491,5.28 0.26119,0 2.74519,-2.188783 5.52,-4.863962 z M 65.524069,12.296352 C 63.988763,11.468117 63.942783,9.1115884 65.442749,8.1287718 66.316509,7.5562624 67.497174,7.7028896 68.274765,8.48048 68.694176,8.8998883 72.629811,8.9599996 99.6701,8.9599996 h 30.91582 l 0.9485,-0.7012591 c 1.13368,-0.8381651 2.27988,-0.5828163 3.25318,0.7247395 0.81907,1.100359 0.48102,2.406897 -0.82886,3.20348 -1.09429,0.665477 -1.90641,0.559451 -2.93936,-0.38374 C 130.38181,11.221048 129.28828,11.2 99.680003,11.2 c -29.608276,0 -30.701803,0.02105 -31.339377,0.60322 -0.961431,0.87789 -1.823533,1.028829 -2.816557,0.493132 z M 142.4,12.552131 c -1.88139,-0.602011 -2.4763,-2.744917 -1.13454,-4.0866769 0.90601,-0.9060112 1.45009,-0.9696733 2.71166,-0.3172896 1.49527,0.7732377 1.77784,2.5127525 0.58288,3.5883705 -0.86346,0.77723 -1.51319,1.022563 -2.16,0.815596 z m 12.48968,-0.161477 c -0.43468,-0.219951 -1.01068,-0.793828 -1.28,-1.275283 -0.43895,-0.784688 -0.43913,-0.965721 -0.002,-1.7475122 0.26832,-0.4796774 0.88032,-1.0916774 1.36,-1.3599999 0.78179,-0.4373197 0.96282,-0.4371318 1.74751,0.00182 1.87897,1.0510735 1.91422,3.3642111 0.0658,4.3200501 -1.08204,0.559542 -0.91667,0.554216 -1.89153,0.06093 z m 12.77168,-0.06428 c -1.71592,-0.92753 -1.84256,-3.0188494 -0.25035,-4.1340768 1.06108,-0.7432122 1.79632,-0.6342023 2.85361,0.4230921 1.12202,1.1220143 1.18162,1.9580697 0.21538,3.0209107 -0.93352,1.026854 -1.80217,1.239521 -2.81864,0.690074 z M 181.12,12.552131 c -0.98615,-0.315552 -1.92,-1.474326 -1.92,-2.382457 0,-1.157139 1.28455,-2.4896743 2.4,-2.4896743 1.11546,0 2.40001,1.3325353 2.40001,2.4896743 0,1.341197 -1.71092,2.756542 -2.88001,2.382457 z m 12.48968,-0.161477 c -0.43468,-0.219951 -1.01068,-0.793828 -1.28,-1.275283 -0.43895,-0.784688 -0.43913,-0.965721 -0.002,-1.7475122 0.26832,-0.4796774 0.88032,-1.0916774 1.36,-1.3599999 0.78212,-0.4375053 0.96297,-0.4371168 1.75214,0.00377 1.33025,0.7431628 1.82276,1.9840953 1.23701,3.1168001 -0.25795,0.498837 -0.84659,1.079012 -1.30807,1.289276 -1.00083,0.456012 -0.79847,0.459123 -1.75927,-0.02705 z m 12.74426,-0.07865 c -1.62843,-0.879368 -1.74752,-3.0518527 -0.22571,-4.1177656 1.06389,-0.7451754 1.79836,-0.6368845 2.85639,0.4211449 1.12202,1.1220143 1.18163,1.9580697 0.21539,3.0209107 -0.9401,1.034081 -1.80303,1.238957 -2.84607,0.67571 z m 13.48607,0.240126 c -1.46786,-0.469688 -2.25372,-2.030145 -1.72123,-3.4177947 0.22258,-0.5800147 1.73748,-1.4543366 2.51988,-1.4543366 0.84144,0 2.08135,1.4831628 2.08135,2.4896743 0,1.341197 -1.71092,2.756542 -2.88,2.382457 z m 9.40126,-0.365171 c -1.30988,-0.796583 -1.64793,-2.103121 -0.82886,-3.20348 0.9733,-1.3075558 2.1195,-1.5629046 3.25318,-0.7247395 l 0.9485,0.7012591 h 30.91582 c 27.04029,0 30.97592,-0.060111 31.39533,-0.4795196 1.2395,-1.2394966 3.40861,-0.6929798 3.82438,0.9635676 0.65671,2.6165564 -2.31516,4.3017444 -4.00194,2.2692884 C 294.36209,11.24874 291.40292,11.2 263.58145,11.2 c -29.66847,0 -30.76323,0.02103 -31.40082,0.60322 -1.03295,0.943191 -1.84507,1.049217 -2.93936,0.383739 z M 83.253762,5.2193233 C 83.01933,5.1257409 82.564533,4.6167227 82.243103,4.088172 80.735977,1.6098996 84.198252,-0.82736931 86.052335,1.4066638 86.441577,1.8756719 94.69239,1.9199999 181.6,1.9199999 c 86.90762,0 95.15843,-0.044328 95.54767,-0.5133361 1.19411,-1.43881092 3.44408,-1.00345178 4.0683,0.7871983 0.26097,0.7485967 0.20647,1.1288094 -0.27538,1.9211349 -0.81083,1.3332997 -2.0049,1.6048245 -3.19336,0.7261532 l -0.92131,-0.6811504 h -95.24248 c -94.75795,0 -95.246631,0.00326 -96.056119,0.64 -0.804058,0.6324729 -1.443955,0.7504921 -2.273559,0.4193235 z"
       id="path3342"
       inkscape:connector-curvature="0" />
  </g>
</svg>
