<?xml version="1.0" encoding="UTF-8" standalone="no"?>
<!-- Created with Inkscape (http://www.inkscape.org/) -->

<svg
   xmlns:dc="http://purl.org/dc/elements/1.1/"
   xmlns:cc="http://creativecommons.org/ns#"
   xmlns:rdf="http://www.w3.org/1999/02/22-rdf-syntax-ns#"
   xmlns:svg="http://www.w3.org/2000/svg"
   xmlns="http://www.w3.org/2000/svg"
   xmlns:xlink="http://www.w3.org/1999/xlink"
   xmlns:sodipodi="http://sodipodi.sourceforge.net/DTD/sodipodi-0.dtd"
   xmlns:inkscape="http://www.inkscape.org/namespaces/inkscape"
   version="1.1"
   id="svg2540"
   width="457.28"
   height="49.279999"
   viewBox="0 0 457.28 49.279999"
   sodipodi:docname="divider-5.svg"
   inkscape:version="0.92.2 5c3e80d, 2017-08-06">
  <metadata
     id="metadata2546">
    <rdf:RDF>
      <cc:Work
         rdf:about="">
        <dc:format>image/svg+xml</dc:format>
        <dc:type
           rdf:resource="http://purl.org/dc/dcmitype/StillImage" />
        <dc:title></dc:title>
      </cc:Work>
    </rdf:RDF>
  </metadata>
  <defs
     id="defs2544">
    <linearGradient
       inkscape:collect="always"
       id="linearGradient3113">
       <stop offset="0%" stop-color="#FCF6BA" stop-opacity="1"/>
       <stop offset="33%" stop-color="#BF953F" stop-opacity="1"/>
       <stop offset="66%" stop-color="#FBF5B7" stop-opacity="1"/>
       <stop offset="100%" stop-color="#AA771C" stop-opacity="1"/>
    </linearGradient>
    <linearGradient
       inkscape:collect="always"
       xlink:href="#linearGradient3113"
       id="linearGradient3115"
       x2="0%" y2="100%"
       gradientUnits="userSpaceOnUse" />
  </defs>
  <sodipodi:namedview
     pagecolor="#ffffff"
     bordercolor="#666666"
     borderopacity="1"
     objecttolerance="10"
     gridtolerance="10"
     guidetolerance="10"
     inkscape:pageopacity="0"
     inkscape:pageshadow="2"
     id="namedview2542"
     showgrid="false"
     inkscape:zoom="0.70853744"
     inkscape:cx="228.64"
     inkscape:cy="24.639999"
     inkscape:window-x="0"
     inkscape:window-y="0"
     inkscape:window-maximized="0"
     inkscape:current-layer="svg2540" />
  <g
     id="g3093"
     style="fill-opacity:1;fill:url(#linearGradient3115)">
    <path
       style="fill:url(#linearGradient3115);stroke-width:0.31999999;fill-opacity:1"
       d="M 167.37126,48.661036 C 167.18761,48.317877 167.04,46.020988 167.04,43.506345 v -4.535728 l -0.72,0.177033 c -0.396,0.09737 -4.968,1.05569 -10.16,2.129604 -5.192,1.073913 -9.7433,2.028275 -10.114,2.120803 -1.37188,0.342429 -1.726,-0.570291 -1.726,-4.448717 V 35.384396 L 139.2,30.23027 c -2.816,-2.834769 -5.12,-5.342459 -5.12,-5.572643 0,-0.230185 2.304,-2.749339 5.12,-5.598121 l 5.12,-5.179603 v -3.540769 c 0,-2.8056503 0.10284,-3.6261165 0.49532,-3.9518516 0.41052,-0.3406969 2.34187,-0.028112 11.28,1.8256413 L 166.88,10.449647 166.9689,5.8069042 c 0.0929,-4.85355356 0.26681,-5.48690421 1.50643,-5.48690421 0.5334,0 48.48858,18.25191401 58.71948,22.34884401 l 1.4348,0.574561 4.3252,-1.668819 c 43.83861,-16.9145167 55.242,-21.25458601 55.8457,-21.25458601 1.24419,0 1.41761,0.62994335 1.5106,5.48690421 L 290.4,10.449647 301.18468,8.2129237 c 8.93813,-1.8537536 10.86948,-2.1663382 11.28,-1.8256413 0.39285,0.3260391 0.49532,1.1485302 0.49532,3.9757716 v 3.56469 l 4.93643,4.928725 c 2.71503,2.710799 5.01378,5.224486 5.10831,5.585971 0.13635,0.521404 -0.88394,1.720094 -4.93643,5.799602 L 312.96,35.384396 v 3.564944 c 0,3.911926 -0.34978,4.793197 -1.76178,4.438806 -0.39038,-0.09798 -4.94168,-1.0528 -10.114,-2.121827 C 295.9119,40.197292 291.356,39.24343 290.96,39.146626 l -0.72,-0.176009 v 4.535728 c 0,4.710723 -0.23487,5.773654 -1.27576,5.773654 -0.33728,0 -10.73621,-3.902429 -23.10874,-8.672064 C 253.48298,35.8383 240.04419,30.657396 235.99152,29.094817 l -7.36848,-2.841053 -3.19152,1.247219 c -19.08606,7.458671 -56.6431,21.779016 -57.11842,21.779016 -0.33582,0 -0.75965,-0.278534 -0.94184,-0.618963 z m 23.73829,-10.979462 c 11.03826,-4.251024 20.03826,-7.754038 20,-7.784474 -0.0383,-0.03044 -9.28555,1.868142 -20.54955,4.219063 -11.264,2.350924 -20.516,4.276527 -20.56,4.279119 -0.044,0.0026 -0.08,1.676122 -0.08,3.718954 0,3.403609 0.0468,3.696768 0.56,3.505353 0.308,-0.114883 9.5913,-3.686991 20.62955,-7.938015 z M 287.36,42.11469 c 0,-3.517596 -0.0253,-3.651667 -0.72278,-3.826716 -0.39752,-0.09977 -9.40941,-1.986228 -20.0264,-4.192122 -10.61699,-2.205893 -19.47174,-4.104997 -19.67722,-4.22023 -0.25535,-0.143199 -0.27231,-0.09874 -0.0536,0.140473 0.27754,0.303547 39.59971,15.668176 40.24,15.723258 0.132,0.01136 0.24,-1.619744 0.24,-3.624663 z M 157.53556,38.075916 c 5.06856,-1.053754 9.28056,-1.915917 9.36,-1.915917 0.0794,0 0.14444,-5.102296 0.14444,-11.338435 0,-10.521357 -0.0404,-11.350509 -0.56,-11.505964 -0.308,-0.09214 -4.448,-0.972319 -9.2,-1.955954 -4.752,-0.983636 -8.964,-1.869563 -9.36,-1.9687278 -0.70095,-0.1755296 -0.72,-0.1136685 -0.72,2.3382628 v 2.518563 L 152.16,19.2 c 3.13541,3.13052 4.96,5.190535 4.96,5.599999 0,0.409465 -1.82459,2.46948 -4.96,5.6 l -4.96,4.952256 v 2.453914 c 0,2.174822 0.0637,2.438659 0.56,2.319789 0.308,-0.07377 4.707,-0.996285 9.77556,-2.050042 z M 305.13457,30.414593 C 302.03275,27.308219 300.16,25.191696 300.16,24.792488 c 0,-0.399773 1.86288,-2.500207 4.96,-5.592488 l 4.96,-4.952256 V 11.729181 9.2106187 l -0.81393,0.2042822 c -0.44765,0.1123552 -4.65965,0.9957511 -9.36,1.9631031 -4.70034,0.967351 -8.79807,1.836739 -9.10607,1.931972 -0.51951,0.160633 -0.56,0.991293 -0.56,11.4889 v 11.315747 l 1.84,0.378947 c 1.012,0.20842 5.44,1.127037 9.84,2.04137 l 8,1.662426 0.0946,-2.400452 0.0946,-2.400448 z M 196.05587,30.057949 C 209.9906,27.168868 221.36145,24.774783 221.32443,24.737761 221.24302,24.656355 170.44713,14.08 170.13756,14.08 c -0.11966,0 -0.21756,4.839406 -0.21756,10.754236 0,8.464096 0.0852,10.724672 0.4,10.615411 0.22,-0.07635 11.80114,-2.502617 25.73587,-5.391698 z M 287.36,24.799999 C 287.36,18.904 287.26227,14.08 287.14281,14.08 c -0.31499,0 -51.10141,10.571933 -51.18422,10.65474 -0.057,0.05704 50.38236,10.66131 51.16141,10.756069 0.132,0.01605 0.24,-4.79481 0.24,-10.69081 z m -143.04,-0.07428 v -6.634282 l -3.36013,3.348691 -3.36012,3.348691 3.27441,3.285591 c 1.80092,1.807076 3.31298,3.285591 3.36012,3.285591 0.0471,0 0.0857,-2.985427 0.0857,-6.634282 z m 175.36,0.07428 c 0,-0.0063 -1.512,-1.518289 -3.36,-3.359999 l -3.36,-3.348565 v 6.708564 6.708565 l 3.36,-3.348565 c 1.848,-1.84171 3.36,-3.35371 3.36,-3.36 z M 150.47805,21.361951 147.2,18.083902 v 6.556097 6.556098 l 3.27805,-3.278049 3.27805,-3.278049 z m 159.60195,3.2 v -6.478049 l -3.27602,3.276019 -3.27602,3.276018 3.19002,3.20203 c 1.75451,1.761117 3.22871,3.20203 3.27602,3.20203 0.0473,0 0.086,-2.915121 0.086,-6.478048 z M 210.5295,19.382838 C 210.37116,19.224488 171.32328,4.1455074 170.48,3.917061 c -0.50954,-0.1380358 -0.56,0.17817 -0.56,3.5093132 v 3.6610188 l 19.92,4.179336 c 19.71465,4.136253 20.95676,4.383368 20.6895,4.116109 z M 267.60625,15.193278 287.36,11.088067 V 7.4267112 c 0,-3.3314642 -0.0505,-3.6476866 -0.56,-3.5096502 -1.04699,0.2836317 -39.91146,15.327621 -40.07617,15.513025 -0.0901,0.101425 0.12698,0.113308 0.48242,0.02641 0.35543,-0.0869 9.53543,-2.005348 20.4,-4.263214 z M 82.999766,41.995676 c -1.018483,-0.164349 -2.146432,-1.534771 -2.146432,-2.607843 0,-2.271155 2.46337,-3.662407 4.195248,-2.369373 2.417805,1.805152 0.915175,5.455507 -2.048816,4.977216 z M 386.08,41.987356 c -1.63258,-0.334832 -2.54976,-2.310874 -1.88122,-4.053034 0.24276,-0.632595 1.76266,-1.454336 2.68996,-1.454336 0.87961,0 2.55126,1.671661 2.55126,2.551277 0,1.782746 -1.71674,3.29312 -3.36,2.956093 z M 68.825718,41.359999 c -0.376851,-0.308 -0.77056,-1.093318 -0.874912,-1.745155 -0.164032,-1.02464 -0.0577,-1.317184 0.785117,-2.16 1.080515,-1.080512 1.887552,-1.206672 3.241191,-0.506682 1.030342,0.532813 1.302886,1.064608 1.302886,2.542228 0,2.074704 -2.77712,3.240352 -4.454282,1.869609 z m 25.597508,-0.283155 c -1.502141,-1.909664 -0.204189,-4.596845 2.220352,-4.596845 1.054752,0 2.556422,1.685831 2.556422,2.86993 0,2.347789 -3.338899,3.554877 -4.776774,1.726915 z m 12.922234,0.0577 c -1.10099,-1.100982 -1.04356,-2.525677 0.14993,-3.719158 1.04242,-1.042432 1.85897,-1.161587 3.20172,-0.467223 C 111.72746,37.480975 112,38.01277 112,39.49039 c 0,2.251171 -2.991,3.307702 -4.65454,1.644154 z m 13.36781,0.571283 c -0.71353,-0.287084 -1.40689,-2.013212 -1.19543,-2.976003 0.28869,-1.31439 1.28675,-2.07528 2.72216,-2.07528 1.43541,0 2.43347,0.76089 2.72216,2.07528 0.22579,1.028003 -0.49124,2.682391 -1.2965,2.991399 -0.6027,0.23128 -2.3621,0.222105 -2.95239,-0.01539 z m 12.46251,-0.526451 c -0.68423,-0.728336 -0.90632,-2.178374 -0.497,-3.24504 0.24275,-0.632595 1.76264,-1.454336 2.68994,-1.454336 1.05039,0 2.55128,1.688355 2.55128,2.86993 0,2.275305 -3.17512,3.49968 -4.74422,1.829446 z m 186.96966,-0.04483 c -1.10097,-1.100982 -1.04354,-2.525677 0.14995,-3.719158 1.04243,-1.042432 1.85898,-1.161587 3.20173,-0.467223 1.03034,0.532813 1.30288,1.064608 1.30288,2.542228 0,2.251171 -2.99101,3.307702 -4.65456,1.644153 z m 13.21315,0.338967 c -0.98569,-0.74817 -1.31382,-2.242442 -0.73728,-3.357357 0.65133,-1.259568 1.58439,-1.743834 2.88845,-1.499187 1.90611,0.357587 2.8481,2.248083 1.96813,3.949788 -0.27184,0.525629 -0.72733,1.04514 -1.01223,1.154468 -0.86963,0.333708 -2.51376,0.20263 -3.10707,-0.247712 z m 12.61719,-0.294135 c -0.68423,-0.728336 -0.90631,-2.178374 -0.497,-3.24504 0.24276,-0.632595 1.76266,-1.454336 2.68996,-1.454336 1.05036,0 2.55126,1.688355 2.55126,2.86993 0,2.275305 -3.1751,3.49968 -4.74422,1.829446 z m 12.88966,-0.04483 c -1.10096,-1.100982 -1.04355,-2.525677 0.14995,-3.719158 0.99837,-0.998381 1.87872,-1.163315 3.00563,-0.563117 1.61079,0.857901 1.9872,2.760726 0.83575,4.224576 -0.9089,1.155466 -2.86528,1.183747 -3.99133,0.0577 z m 12.98269,0.153597 c -1.96189,-1.961901 -0.31421,-5.176918 2.39289,-4.669066 2.07735,0.389719 2.89453,2.951556 1.43655,4.50353 -0.95479,1.016307 -2.89479,1.10017 -3.82944,0.165536 z M 1.44,27.133498 C 0.43953936,26.559734 0.02121657,25.849362 0.01017708,24.705454 -0.01095309,22.515953 2.9153381,21.167865 4.32,22.72 c 0.5752781,0.635675 0.9855894,0.64 60.719123,0.64 59.655387,0 60.146487,-0.0052 60.953557,-0.64 2.24789,-1.768188 5.10491,0.592818 4.04854,3.345663 -0.5186,1.35146 -3.35551,1.769751 -4.29829,0.633767 -0.32887,-0.396259 -8.65194,-0.459431 -60.53164,-0.459431 -59.6658004,0 -60.1568974,0.0052 -60.9639713,0.64 C 3.337088,27.595987 2.3947988,27.681075 1.44,27.133498 Z m 327.04,0.03016 c -1.02192,-0.579984 -1.44,-1.288217 -1.44,-2.439368 0,-2.219969 2.48333,-3.391844 4.24733,-2.004293 0.80704,0.634836 1.29817,0.64 60.87267,0.64 59.5745,0 60.06563,-0.0052 60.87267,-0.64 1.11373,-0.876052 2.49856,-0.817867 3.46189,0.145454 2.33728,2.337301 -0.86829,6.054655 -3.46189,4.014546 -0.80707,-0.634839 -1.29817,-0.64 -60.89795,-0.64 -52.74611,0 -60.14858,0.05816 -60.61053,0.476199 -0.72569,0.65676 -2.27433,0.884391 -3.04419,0.447462 z M 69.43665,12.557236 C 67.291965,11.486984 67.442602,8.5002417 69.684246,7.6479698 71.517101,6.9511192 73.28,8.1945717 73.28,10.184219 c 0,2.136815 -1.92943,3.328113 -3.84335,2.373017 z M 82.88,12.892981 C 82.112003,12.610592 81.228666,11.737816 80.935747,10.971973 80.26041,9.2062728 82.225139,7.0950328 84.150176,7.5178418 86.81103,8.1022635 87.020346,11.86648 84.441971,12.765306 83.882362,12.960388 83.409984,13.108631 83.39225,13.094737 83.374512,13.080842 83.144,12.990052 82.88,12.892981 Z m 12.886378,-0.02168 C 94.763923,12.71096 93.76,11.306929 93.76,10.065291 c 0,-1.2444131 1.495373,-2.7052911 2.769168,-2.7052911 1.110163,0 2.670832,1.626903 2.670832,2.7841831 0,1.721675 -1.629286,3.015719 -3.433622,2.727118 z m 12.464192,-0.247084 c -1.88733,-0.793563 -2.23331,-2.8307106 -0.73518,-4.3288332 0.99837,-0.9983791 1.87873,-1.1633155 3.00565,-0.5631148 1.06213,0.5656979 1.47758,1.2722345 1.48878,2.53195 0.0174,1.954947 -1.88388,3.148532 -3.75925,2.359998 z m 12.86419,0.04173 c -0.59315,-0.258274 -1.15742,-0.844671 -1.41788,-1.473484 -0.38472,-0.928798 -0.3642,-1.171199 0.18524,-2.1885988 1.13991,-2.1107529 3.803,-2.063358 4.82792,0.085923 0.70611,1.4807298 0.14096,2.9562108 -1.37489,3.5895758 -1.23844,0.517454 -0.99787,0.518908 -2.22039,-0.01341 z M 134.4,12.894007 c -1.07795,-0.394049 -1.92,-1.500832 -1.92,-2.523616 0,-1.477619 0.27254,-2.0094158 1.30289,-2.5422264 1.34275,-0.6943667 2.1593,-0.5752111 3.20172,0.4672199 1.53451,1.5345001 1.149,3.5406115 -0.84009,4.3717055 -0.59618,0.2491 -1.12459,0.441541 -1.17424,0.427647 -0.0497,-0.01389 -0.30628,-0.104224 -0.57028,-0.20073 z m 186.63056,-0.26979 c -1.88732,-0.793562 -2.2333,-2.83071 -0.73517,-4.3288325 0.51447,-0.5144615 1.2416,-0.9353846 1.61587,-0.9353846 0.9273,0 2.4472,0.8217423 2.68996,1.4543366 0.97382,2.5377515 -1.16602,4.8209565 -3.57066,3.8098805 z m 12.86419,0.04173 c -0.59315,-0.258274 -1.15741,-0.844671 -1.41789,-1.473484 -0.3847,-0.928798 -0.36419,-1.1712 0.18525,-2.1885991 1.13991,-2.110753 3.80301,-2.0633581 4.82794,0.085923 0.70611,1.4807301 0.14096,2.9562121 -1.37491,3.5895771 -1.23844,0.517454 -0.99786,0.518907 -2.22039,-0.01342 z M 347.36,12.86737 c -1.63258,-0.334834 -2.54976,-2.310874 -1.88122,-4.0530335 0.24276,-0.6325943 1.76266,-1.4543366 2.68996,-1.4543366 1.00412,0 2.55126,1.6883711 2.55126,2.7841831 0,1.698885 -1.68717,3.066281 -3.36,2.723187 z m 12.72637,0.02368 C 359.1097,12.707801 358.08,11.312469 358.08,10.17223 c 0,-1.1855275 1.54493,-2.8122301 2.67085,-2.8122301 0.44003,0 1.2431,0.3728006 1.78461,0.828446 2.18803,1.8411091 0.41766,5.2404911 -2.44909,4.7026081 z m 12.52838,-0.227737 c -2.38573,-1.032454 -2.02998,-4.586489 0.51507,-5.1454752 1.92503,-0.4228089 3.88976,1.688431 3.21444,3.4541312 -0.61626,1.611224 -2.22685,2.341632 -3.72951,1.691344 z m 13.30525,0.22749 c -2.60749,-0.935797 -2.54816,-4.7196916 0.0843,-5.3804135 1.87095,-0.4695808 3.6601,1.2728995 3.29658,3.2106165 -0.27475,1.464544 -2.09357,2.631814 -3.38093,2.169797 z"
       id="path3107"
       inkscape:connector-curvature="0" />
    <path
       style="fill:url(#linearGradient3115);stroke-width:0.31999999;fill-opacity:1"
       d="M 167.54286,48.777141 C 167.13218,48.366466 167.04,47.427877 167.04,43.657142 c 0,-3.491479 -0.0975,-4.612071 -0.4,-4.596333 -0.22,0.01146 -5.008,1.000509 -10.64,2.197917 -8.57911,1.82399 -10.3438,2.112841 -10.88,1.780883 -0.56999,-0.352887 -0.6498,-0.796048 -0.72958,-4.051354 l -0.0896,-3.655129 -4.95042,-4.942691 C 136.22147,27.266372 134.4,25.209411 134.4,24.799999 c 0,-0.409464 1.82459,-2.469479 4.96,-5.599999 l 4.96,-4.952256 v -3.752613 c 0,-3.3959407 0.0594,-3.7844268 0.62542,-4.0873267 0.47863,-0.2561551 3.0134,0.1582791 10.8,1.7657946 5.59602,1.155279 10.42658,2.1745371 10.73458,2.2650181 0.51468,0.151197 0.56,-0.201514 0.56,-4.3580904 0,-4.7737049 0.23092,-5.76052661 1.34799,-5.76052661 0.37701,0 14.0076,5.13599991 30.29021,11.41333301 16.28262,6.277333 29.76197,11.413333 29.95413,11.413333 0.19216,0 13.67438,-5.136 29.96049,-11.413333 16.28611,-6.2773331 29.92016,-11.41333301 30.29788,-11.41333301 1.11846,0 1.3493,0.98550631 1.3493,5.76052661 0,4.1557214 0.0454,4.5094384 0.56,4.3603354 0.308,-0.08925 5.13294,-1.1115153 10.72208,-2.2717082 7.89081,-1.6379712 10.30466,-2.0331366 10.8,-1.768039 0.58155,0.3112355 0.63792,0.6729935 0.63792,4.0940162 v 3.752613 L 317.92,19.2 c 3.13542,3.13052 4.96,5.190535 4.96,5.599999 0,0.409412 -1.82147,2.466373 -4.95042,5.590436 l -4.95042,4.942691 -0.0896,3.655129 c -0.0798,3.255306 -0.15959,3.698467 -0.72958,4.051354 -0.5362,0.331958 -2.30089,0.04311 -10.88,-1.780883 -5.632,-1.197408 -10.42,-2.186471 -10.64,-2.197917 -0.30248,-0.01574 -0.4,1.104854 -0.4,4.596333 0,3.770735 -0.0922,4.709324 -0.50286,5.119999 -0.27657,0.276573 -0.67257,0.503344 -0.88,0.50394 -0.20742,6.4e-4 -13.84168,-5.189248 -30.29835,-11.532979 L 228.63759,26.21404 198.72702,37.74702 c -16.45081,6.343139 -30.08398,11.532979 -30.29593,11.532979 -0.21196,0 -0.61166,-0.226285 -0.88823,-0.502858 z M 191.52,37.56501 c 11.088,-4.28103 20.06878,-7.788486 19.95729,-7.794349 -0.26093,-0.01372 -40.25414,8.283133 -40.99729,8.505159 -0.49117,0.146742 -0.56,0.619616 -0.56,3.847309 0,3.670284 0.002,3.679398 0.72,3.452784 0.396,-0.124967 9.792,-3.729875 20.88,-8.010903 z m 95.84,4.536554 c 0,-3.207197 -0.0691,-3.679059 -0.56,-3.825642 -0.308,-0.09196 -8.984,-1.910041 -19.28,-4.040175 -10.296,-2.130138 -19.188,-3.996993 -19.76,-4.148568 -3.46066,-0.917044 1.19762,1.016426 19.04002,7.902766 11.04399,4.26247 20.18798,7.75447 20.31998,7.76 0.132,0.0055 0.24,-1.636243 0.24,-3.648381 z m -130.4,-3.844746 c 4.752,-0.974934 8.96581,-1.848752 9.36404,-1.94182 l 0.72403,-0.169216 -0.084,-11.415119 -0.084,-11.415117 -8.8,-1.836604 c -4.84,-1.010133 -9.268,-1.9246555 -9.84,-2.0322734 L 147.2,9.2509995 v 2.4983725 2.498372 L 152.16,19.2 c 2.99642,2.991739 4.96,5.198214 4.96,5.573546 0,0.373489 -1.9783,2.613604 -4.96,5.616418 l -4.96,4.995126 v 2.489018 c 0,2.220723 0.0604,2.471034 0.56,2.32217 0.308,-0.09177 4.448,-0.964525 9.2,-1.93946 z M 310.08,37.852546 V 35.38509 l -4.96,-4.995126 c -2.9817,-3.002814 -4.96,-5.242929 -4.96,-5.616418 0,-0.375332 1.96358,-2.581807 4.96,-5.573546 l 4.96,-4.952256 V 11.749372 9.2509995 l -1.04,0.1956691 c -0.572,0.1076179 -5,1.0221404 -9.84,2.0322734 l -8.8,1.836604 -0.084,11.422227 c -0.0462,6.282224 -0.0462,11.426156 0,11.430956 0.0462,0.0048 4.40404,0.924633 9.68404,2.044073 5.28,1.11944 9.708,2.051511 9.84,2.071271 0.132,0.01974 0.24,-1.074429 0.24,-2.431527 z M 196.44152,30.035485 c 17.66438,-3.667742 24.85633,-5.280089 24.32,-5.452241 C 219.87013,24.29712 170.73236,14.08 170.24768,14.08 170.0306,14.08 169.92,17.710094 169.92,24.83469 v 10.754692 l 0.72,-0.173047 c 0.396,-0.09517 12.00668,-2.516556 25.80152,-5.38085 z M 287.36,24.799999 C 287.36,17.402625 287.25393,14.08 287.01778,14.08 c -0.49515,0 -49.5923,10.210863 -50.4977,10.50214 -0.53551,0.172279 6.74089,1.813874 24.64,5.558915 13.96996,2.922941 25.57992,5.328954 25.79992,5.346691 0.31268,0.02521 0.4,-2.307878 0.4,-10.687747 z m -143.04,-0.07428 v -6.634282 l -3.36013,3.348691 -3.36012,3.348691 3.27441,3.285591 c 1.80092,1.807076 3.31298,3.285591 3.36012,3.285591 0.0471,0 0.0857,-2.985427 0.0857,-6.634282 z m 175.36,0.07428 c 0,-0.0063 -1.512,-1.518289 -3.36,-3.359999 l -3.36,-3.348565 v 6.708564 6.708565 l 3.36,-3.348565 c 1.848,-1.84171 3.36,-3.35371 3.36,-3.36 z M 150.47805,21.361951 147.2,18.083902 v 6.556097 6.556098 l 3.27805,-3.278049 3.27805,-3.278049 z m 159.60195,3.2 v -6.478049 l -3.27602,3.276019 -3.27602,3.276018 3.19002,3.20203 c 1.75451,1.761117 3.22871,3.20203 3.27602,3.20203 0.0473,0 0.086,-2.915121 0.086,-6.478048 z m -63.68,5.392285 c 0,-0.06917 -0.22348,-0.211521 -0.49662,-0.316335 -0.28478,-0.109279 -0.41322,-0.05563 -0.30111,0.125764 0.18792,0.304065 0.79773,0.449743 0.79773,0.190571 z m -55.36,-18.211883 -20.96,-8.0813419 -0.0905,3.652302 c -0.0498,2.0087661 -0.0417,3.7010849 0.0179,3.7607099 0.12921,0.129211 40.81816,8.675599 41.51265,8.719399 0.264,0.01665 -8.952,-3.606331 -20.48,-8.051069 z m 75.98212,3.623376 c 11.07817,-2.300819 20.19091,-4.232089 20.25053,-4.291711 0.0596,-0.05962 0.0677,-1.7519388 0.0179,-3.7607049 L 287.2,3.6610111 266.24,11.770527 c -11.528,4.460234 -20.6,8.03504 -20.16,7.944013 0.44,-0.09103 9.86396,-2.047992 20.94212,-4.348811 z M 68.808141,41.28814 c -1.384279,-1.384278 -1.016487,-3.592915 0.738368,-4.433994 2.627193,-1.259184 5.116256,2.375252 2.992867,4.370074 -0.963347,0.905014 -2.857686,0.937469 -3.731235,0.06392 z m 12.847638,-0.108765 c -0.739616,-0.787286 -0.923405,-2.396128 -0.388009,-3.396525 0.169273,-0.316291 0.745273,-0.756294 1.28,-0.977785 1.278051,-0.529386 2.73487,0.04242 3.403808,1.336 1.334204,2.580067 -2.306938,5.155353 -4.295799,3.03831 z m 12.889677,-0.04483 c -1.114643,-1.11464 -1.044304,-2.524928 0.187363,-3.756595 0.813418,-0.813414 1.141136,-0.940525 2,-0.775728 1.54753,0.296938 2.576778,1.634582 2.349703,3.053741 -0.354922,2.218147 -2.951354,3.064297 -4.537066,1.478582 z m 13.367814,0.571283 C 107.38413,41.49293 106.56,39.890002 106.56,39.073734 c 0,-0.933194 1.29101,-2.245888 2.42175,-2.462429 1.43277,-0.274378 3.01825,1.108041 3.01825,2.631686 0,1.971002 -2.12551,3.251923 -4.08673,2.462835 z m 12.5102,-0.505827 c -0.96016,-1.066678 -1.10659,-1.75736 -0.61965,-2.922761 1.17679,-2.816461 5.15066,-1.884925 5.06332,1.186924 -0.0621,2.1829 -3.00608,3.332925 -4.44367,1.735837 z m 12.84199,-0.06546 c -2.42324,-2.423232 1.19269,-6.118685 3.7354,-3.817561 0.83536,0.755984 1.03877,2.163462 0.47127,3.260883 -0.82358,1.592633 -2.89642,1.866937 -4.20667,0.556678 z m 187.44782,0.571283 c -0.71354,-0.287084 -1.4069,-2.013212 -1.19544,-2.976003 0.24837,-1.130803 1.0428,-1.865955 2.28491,-2.114374 1.40887,-0.281773 2.99725,1.110688 2.99725,2.627542 0,1.971002 -2.1255,3.251923 -4.08672,2.462835 z m 12.44218,-0.548092 c -1.98298,-2.110788 0.22921,-5.441037 2.8839,-4.341431 1.1017,0.456336 2.00774,2.130762 1.66979,3.085808 -0.72208,2.040397 -3.17981,2.718083 -4.55369,1.255623 z m 12.90998,-0.0232 c -1.16973,-1.169728 -1.07398,-2.754861 0.2328,-3.854448 1.23552,-1.039629 2.59936,-0.915319 3.70176,0.337404 0.83766,0.951882 0.90374,1.738983 0.25184,2.999613 -0.80374,1.554231 -2.89152,1.812282 -4.1864,0.517431 z m 13.00029,0.225456 c -0.37687,-0.308 -0.76759,-1.074816 -0.86826,-1.704039 -0.22707,-1.419158 0.80218,-2.756803 2.3497,-3.053741 0.85888,-0.164796 1.18659,-0.03769 2,0.775728 1.23168,1.231668 1.30201,2.641956 0.18739,3.756596 -0.94589,0.945878 -2.65859,1.051126 -3.66883,0.225456 z m 12.86681,-0.16 c -0.96784,-1.057437 -1.15337,-1.996823 -0.60412,-3.058935 0.66892,-1.293581 2.12576,-1.865385 3.4038,-1.336 1.16589,0.482931 1.58778,1.183882 1.58778,2.638115 0,2.214644 -2.90406,3.377492 -4.38746,1.75682 z m 12.76324,-0.02061 c -1.37965,-1.468573 -0.59904,-4.070202 1.36947,-4.564272 1.71133,-0.429511 3.66659,1.538601 3.23539,3.256627 -0.51171,2.038825 -3.20061,2.802393 -4.60486,1.307645 z M 1.7142395,27.209584 C -0.02959953,26.488335 -0.52417747,24.175086 0.78545456,22.865454 1.7487759,21.902133 3.1335991,21.843948 4.2473187,22.72 5.0543827,23.354836 5.5454896,23.36 65.12,23.36 c 59.57451,0 60.06562,-0.0052 60.87268,-0.64 1.7586,-1.383311 4.25835,-0.211967 4.23714,1.985454 -0.0113,1.174617 -0.4453,1.886512 -1.48878,2.442276 -1.01131,0.538622 -1.47026,0.468276 -2.7906,-0.427731 l -1.17886,-0.8 H 65.046413 c -58.5168431,0 -59.7385295,0.01247 -60.3857887,0.616279 -0.821304,0.766172 -2.0454784,1.04592 -2.9463848,0.673306 z M 328.48,27.133498 c -1.00045,-0.573764 -1.41878,-1.284136 -1.42982,-2.428044 -0.0211,-2.197421 2.47856,-3.368765 4.23715,-1.985454 0.80704,0.634836 1.29817,0.64 60.87267,0.64 59.5745,0 60.06563,-0.0052 60.87267,-0.64 1.11373,-0.876052 2.49856,-0.817867 3.46189,0.145454 1.01162,1.011634 1.02224,2.423566 0.0269,3.580701 -0.97299,1.131172 -2.71222,1.212285 -3.81334,0.177844 l -0.74938,-0.704 H 392.23359 332.5084 l -1.17884,0.8 c -1.29674,0.879987 -1.88685,0.965617 -2.84957,0.413499 z M 69.193267,12.585826 c -0.223702,-0.09001 -0.628835,-0.593148 -0.900294,-1.118094 -0.693434,-1.340951 -0.322554,-2.721441 0.937565,-3.4898106 1.338806,-0.8163503 1.889491,-0.7785247 3.064908,0.2105245 1.962269,1.6511376 0.920679,4.6441241 -1.59607,4.5862911 -0.604656,-0.01389 -1.282406,-0.09891 -1.506109,-0.188911 z M 81.655779,12.059375 C 80.916163,11.27209 80.732374,9.6632472 81.26777,8.6628507 c 0.169273,-0.3162912 0.745273,-0.7562944 1.28,-0.9777853 2.052595,-0.8502127 4.277923,1.1933872 3.555654,3.2652876 -0.449347,1.289001 -1.212099,1.827057 -2.607645,1.83947 -0.791353,0.007 -1.358787,-0.218223 -1.84,-0.730448 z m 12.889677,-0.04483 c -1.6496,-1.649599 -0.43017,-4.4625452 1.934544,-4.4625452 0.91607,0 1.383827,0.2102951 1.961469,0.8818445 C 100.00706,10.253948 98.863258,12.8 96.48,12.8 c -0.793357,0 -1.392253,-0.243161 -1.934544,-0.785455 z m 13.367814,0.571281 C 107.38413,12.372929 106.56,10.770002 106.56,9.9537355 c 0,-0.3509258 0.34134,-1.0348768 0.75853,-1.5198912 C 108.88388,6.6140216 112,7.7565621 112,10.150326 c 0,1.943225 -2.1402,3.218682 -4.08673,2.4355 z M 120.42347,12.08 c -0.96016,-1.066678 -1.10659,-1.75736 -0.61965,-2.9227605 1.17679,-2.816463 5.15066,-1.884926 5.06332,1.1869215 -0.0621,2.1829 -3.00608,3.332925 -4.44367,1.735839 z m 12.71976,-0.123155 c -1.46131,-1.857744 -0.27612,-4.4048452 2.0496,-4.4048452 2.04418,0 3.23969,2.0486662 2.2793,3.9058652 C 136.91645,12.532436 136.3991,12.8 134.87705,12.8 c -0.77544,0 -1.25344,-0.23245 -1.73382,-0.843155 z m 187.57005,0.628981 c -0.71354,-0.287084 -1.4069,-2.013212 -1.19544,-2.9760012 0.44898,-2.0441978 2.91691,-2.7603107 4.47342,-1.2980445 1.68704,1.5849085 0.57581,4.5116957 -1.69449,4.4629567 -0.64723,-0.01389 -1.35981,-0.09891 -1.58349,-0.188911 z m 12.44218,-0.548091 c -1.98298,-2.110788 0.22921,-5.4410382 2.8839,-4.3414308 1.1017,0.4563369 2.00774,2.1307622 1.66979,3.0858088 -0.72208,2.040397 -3.17981,2.718081 -4.55369,1.255622 z m 12.90998,-0.02319 c -1.70688,-1.7069 -0.48128,-4.4625452 1.98477,-4.4625452 1.28262,0 2.66979,1.2478832 2.66979,2.4017357 0,0.8909675 -0.83418,2.4095085 -1.45434,2.6474865 -1.11321,0.427179 -2.42726,0.186284 -3.20022,-0.586677 z m 12.8,0 c -1.6496,-1.649599 -0.43014,-4.4625452 1.93456,-4.4625452 0.91606,0 1.38384,0.2102951 1.96147,0.8818445 C 364.32707,10.253948 363.18326,12.8 360.8,12.8 c -0.79334,0 -1.39226,-0.243161 -1.93456,-0.785455 z m 13.21315,0.338964 c -2.42518,-1.840792 -0.15629,-5.8323511 2.65363,-4.6684439 2.67789,1.1092141 1.89559,5.1314959 -0.99286,5.1047569 -0.60464,-0.0056 -1.352,-0.201938 -1.66077,-0.436313 z m 12.61719,-0.294134 c -1.06935,-1.138283 -0.94282,-2.8346181 0.28876,-3.8709294 1.17543,-0.9890493 1.72612,-1.0268749 3.06493,-0.2105245 1.25629,0.7660483 1.63091,2.1489899 0.94266,3.4799439 -0.55287,1.069129 -1.07411,1.342134 -2.56253,1.342134 -0.6713,0 -1.28384,-0.261659 -1.73382,-0.740624 z"
       id="path3105"
       inkscape:connector-curvature="0" />
    <path
       style="fill:url(#linearGradient3115);stroke-width:0.31999999;fill-opacity:1"
       d="M 167.57051,48.804793 C 167.12552,48.359807 167.04,47.52997 167.04,43.657142 c 0,-2.539428 -0.12044,-4.617143 -0.26764,-4.617143 -0.14719,0 -4.7568,0.936 -10.24355,2.08 -5.48676,1.144 -10.30552,2.08 -10.70837,2.08 -1.30845,0 -1.50044,-0.551216 -1.50044,-4.307872 v -3.539872 l -4.96,-4.952256 c -3.13541,-3.13052 -4.96,-5.190535 -4.96,-5.6 0,-0.409464 1.82459,-2.469479 4.96,-5.599999 l 4.96,-4.952256 v -3.581015 c 0,-2.8288015 0.10563,-3.6866431 0.50286,-4.0838719 0.27657,-0.2765715 0.55457,-0.5028572 0.61778,-0.5028572 0.13213,0 19.79114,4.0721611 20.87936,4.3249441 l 0.72,0.167249 V 6.0650594 c 0,-4.7206022 0.2339,-5.74505941 1.31171,-5.74505941 0.35706,0 13.92399,5.12320081 30.14874,11.38489101 16.22475,6.26169 29.78755,11.385018 30.13955,11.385173 0.352,1.55e-4 13.744,-5.060336 29.76,-11.245536 C 274.416,5.6593276 287.93761,0.51367785 288.44802,0.40975039 290.01644,0.09039678 290.24,0.78622043 290.24,5.9872581 v 4.5849349 l 0.72,-0.167249 c 1.08822,-0.252783 20.74723,-4.3249441 20.87936,-4.3249441 0.0632,0 0.34121,0.2262857 0.61778,0.5028572 0.39723,0.3972288 0.50286,1.2550704 0.50286,4.0838719 v 3.581015 L 317.92,19.2 c 3.13542,3.13052 4.96,5.190535 4.96,5.599999 0,0.409465 -1.82458,2.46948 -4.96,5.6 l -4.96,4.952256 v 3.539872 c 0,3.756656 -0.19199,4.307872 -1.50044,4.307872 -0.40285,0 -5.22161,-0.936 -10.70837,-2.08 -5.48675,-1.144 -10.09636,-2.08 -10.24355,-2.08 -0.1472,0 -0.26764,2.077715 -0.26764,4.617143 0,3.872828 -0.0855,4.702665 -0.53051,5.147651 -0.29177,0.291779 -0.83177,0.465852 -1.2,0.386828 -0.36822,-0.07902 -13.9625,-5.275462 -30.20951,-11.547647 -16.24701,-6.272186 -29.594,-11.403975 -29.65998,-11.403975 -0.066,0 -13.41297,5.131789 -29.65998,11.403975 -16.24701,6.272185 -29.84129,11.468627 -30.20951,11.547647 -0.36823,0.07902 -0.90823,-0.09505 -1.2,-0.386828 z M 189.44,38.406252 c 23.33563,-9.021163 22.50416,-8.687916 21.12,-8.464829 -0.616,0.09928 -9.976,2.019236 -20.8,4.266567 l -19.68,4.086051 -0.0905,3.773049 c -0.0837,3.489927 -0.0477,3.761011 0.48,3.612669 0.31377,-0.08821 8.8505,-3.361286 18.9705,-7.273507 z M 287.29016,42.024943 287.2,38.28989 267.52,34.198595 c -10.824,-2.250214 -20.06717,-4.155486 -20.54039,-4.233939 -0.47321,-0.07845 -1.03546,-0.250845 -1.24944,-0.383092 -0.23193,-0.143341 -0.30643,-0.106763 -0.18447,0.09057 0.11251,0.182061 0.89076,0.562383 1.72944,0.845161 0.83867,0.282778 10.02086,3.813733 20.40486,7.846564 10.384,4.032829 19.06457,7.346759 19.29016,7.364282 0.31665,0.02461 0.3896,-0.819629 0.32,-3.703198 z M 157.12,38.243007 c 4.84,-0.990509 9.05381,-1.874669 9.36402,-1.964803 0.52714,-0.153168 0.55852,-0.910291 0.48,-11.578914 l -0.084,-11.415032 -9.44,-1.985087 c -5.192,-1.091798 -9.62,-1.9927561 -9.84,-2.0021293 -0.28689,-0.012224 -0.4,0.6806931 -0.4,2.4504123 v 2.467455 l 4.96,4.995126 c 2.728,2.74732 4.96,5.17964 4.96,5.405156 0,0.225516 -2.232,2.716707 -4.96,5.535979 l -4.96,5.125949 v 2.543005 c 0,2.269373 0.0603,2.52583 0.56,2.383405 0.308,-0.08778 4.52,-0.970016 9.36,-1.960522 z m 152.96,-0.56688 v -2.643872 l -4.96,-4.952256 c -2.728,-2.72374 -4.96,-5.159837 -4.96,-5.413546 0,-0.25371 2.232,-2.709098 4.96,-5.456418 l 4.96,-4.995126 v -2.467455 c 0,-1.7697192 -0.11311,-2.462635 -0.4,-2.4504123 -0.22,0.00937 -4.648,0.9103313 -9.84,2.0021293 l -9.44,1.985087 -0.084,11.437871 c -0.0462,6.290828 -0.0462,11.442885 0,11.449016 0.0462,0.0061 4.40404,0.929533 9.68404,2.052006 5.28,1.122471 9.708,2.053456 9.84,2.068851 0.132,0.01539 0.24,-1.161744 0.24,-2.615875 z M 195.74888,30.211572 c 14.04212,-2.919635 25.58411,-5.360627 25.64888,-5.424426 0.0648,-0.0638 -0.22323,-0.196826 -0.64,-0.295613 C 218.48911,23.953787 170.65686,14.08 170.32048,14.08 c -0.31267,0 -0.40048,2.350495 -0.40048,10.719999 0,5.896 0.067,10.72 0.14888,10.72 0.0819,0 11.63789,-2.388793 25.68,-5.308427 z M 287.36,24.799999 C 287.36,16.103824 287.2798,14.08 286.93522,14.08 c -0.39014,0 -48.63314,9.980314 -50.45522,10.437969 -0.44,0.110516 -0.64143,0.26004 -0.44763,0.332275 0.46066,0.171697 50.40494,10.61005 50.92763,10.64387 0.31255,0.02022 0.4,-2.317644 0.4,-10.694115 z m -143.04,-0.07428 v -6.634282 l -3.36013,3.348691 -3.36012,3.348691 3.27441,3.285591 c 1.80092,1.807076 3.31298,3.285591 3.36012,3.285591 0.0471,0 0.0857,-2.985427 0.0857,-6.634282 z m 9.28,0.07428 c 0,-0.182604 -1.44,-1.766604 -3.2,-3.519999 l -3.2,-3.187993 v 6.707992 6.707993 l 3.2,-3.187993 c 1.76,-1.753395 3.2,-3.337395 3.2,-3.52 z m 156.48,-0.074 V 18.092007 L 306.88,21.28 c -1.76,1.753395 -3.2,3.332118 -3.2,3.508271 0,0.26862 6.05591,6.571728 6.314,6.571728 0.0473,0 0.086,-2.985298 0.086,-6.633996 z m 9.6,0.074 c 0,-0.0063 -1.512,-1.518289 -3.36,-3.359999 l -3.36,-3.348565 v 6.708564 6.708565 l 3.36,-3.348565 c 1.848,-1.84171 3.36,-3.35371 3.36,-3.36 z M 211.2,19.488106 c -0.44,-0.165752 -9.872,-3.80063 -20.96,-8.077506 l -20.16,-7.776138 -0.0905,3.6655766 c -0.0498,2.0160671 -0.0372,3.7188984 0.028,3.7840694 0.15661,0.156612 40.88207,8.694194 41.50256,8.700493 0.264,0.0027 0.12,-0.130743 -0.32,-0.296495 z m 55.19564,-3.965967 c 11.41071,-2.374824 20.80045,-4.371561 20.86608,-4.437193 0.0656,-0.06563 0.0786,-1.7715833 0.0288,-3.7910028 L 287.2,3.6222713 272.8,9.1765349 c -22.30598,8.6037031 -27.53496,10.6414801 -27.33556,10.6529011 0.10145,0.0058 9.52049,-1.932474 20.9312,-4.307297 z M 68.89256,41.199999 C 67.929744,40.148063 67.73927,39.203004 68.279514,38.15829 69.561331,35.679532 73.28,36.506508 73.28,39.270326 c 0,2.285961 -2.89567,3.559526 -4.38744,1.929673 z m 12.910595,0.05678 C 81.179773,40.766422 80.96,40.302185 80.96,39.475737 c 0,-1.550503 0.451629,-2.243936 1.737949,-2.668461 1.433347,-0.473046 2.849757,0.203331 3.333856,1.592016 0.901254,2.585344 -2.04424,4.575741 -4.22865,2.857482 z m 12.742301,-0.122231 c -1.011635,-1.011632 -1.022253,-2.423565 -0.02691,-3.580701 1.062922,-1.235721 2.860016,-1.235721 3.922938,0 0.875299,1.017597 0.94856,1.790464 0.290368,3.063271 -0.803725,1.55423 -2.891533,1.812281 -4.186381,0.51743 z m 13.367814,0.571283 c -0.71353,-0.287084 -1.40689,-2.013212 -1.19543,-2.976003 0.46799,-2.130729 3.11131,-2.817897 4.52363,-1.175981 0.99533,1.157136 0.98471,2.569069 -0.0269,3.580701 -0.75334,0.753341 -2.21859,1.006899 -3.30128,0.571283 z m 12.46251,-0.526451 c -0.73962,-0.787286 -0.92341,-2.396128 -0.38801,-3.396525 0.52155,-0.974515 2.0866,-1.4491 3.22446,-0.977785 1.1659,0.482931 1.58777,1.183881 1.58777,2.638115 0,2.235018 -2.89011,3.369181 -4.42422,1.736195 z m 12.88968,-0.04483 c -1.68295,-1.682947 -0.48245,-4.462544 1.92737,-4.462544 2.04418,0 3.23969,2.048666 2.2793,3.905866 -0.82358,1.592633 -2.89642,1.866937 -4.20667,0.556678 z m 187.3468,0.37528 c -2.0999,-1.612259 -1.11653,-4.837824 1.47491,-4.837824 2.40982,0 3.61033,2.779597 1.92739,4.462544 -0.86336,0.863341 -2.52752,1.046903 -3.4023,0.37528 z m 12.56352,-0.330448 c -0.73962,-0.787286 -0.9234,-2.396128 -0.388,-3.396525 0.52153,-0.974515 2.08659,-1.4491 3.22444,-0.977785 1.16589,0.482931 1.58778,1.183881 1.58778,2.638115 0,2.235018 -2.89011,3.369181 -4.42422,1.736195 z m 12.88966,-0.04483 c -1.62506,-1.625078 -0.43149,-4.462544 1.87718,-4.462544 2.09479,0 3.30234,2.02464 2.32951,3.905866 -0.82359,1.592633 -2.89642,1.866937 -4.20669,0.556678 z m 13.36784,0.571283 C 358.90413,41.49293 358.08,39.890002 358.08,39.073734 c 0,-0.350925 0.34134,-1.034877 0.75853,-1.519892 1.58371,-1.841187 4.68147,-0.624614 4.68147,1.838548 0,1.81944 -2.208,3.069344 -4.08672,2.313436 z m 12.51018,-0.505827 c -0.96016,-1.066678 -1.10656,-1.75736 -0.61965,-2.922761 0.58589,-1.402237 2.05027,-2.034736 3.40841,-1.472173 1.17258,0.485696 1.58778,1.18407 1.58778,2.670672 0,2.141277 -2.9537,3.304966 -4.37654,1.724262 z m 12.84198,-0.06546 c -1.47613,-1.476141 -0.77142,-3.829638 1.33779,-4.467657 1.56192,-0.472474 3.60727,1.55502 3.13648,3.109107 -0.64512,2.129542 -2.99097,2.841833 -4.47427,1.35855 z M 1.7142395,27.209584 C 0.89115485,26.869158 0,25.670514 0,24.903855 0,23.936214 0.68447626,22.802464 1.4903439,22.435287 2.6173957,21.921767 3.3254947,21.994893 4.2473187,22.72 5.0543827,23.354836 5.5454896,23.36 65.12,23.36 c 59.57451,0 60.06562,-0.0052 60.87268,-0.64 1.11372,-0.876052 2.49855,-0.817867 3.46186,0.145454 1.51984,1.51984 0.72869,3.944124 -1.46462,4.487967 -0.57715,0.143105 -1.15634,-0.03411 -2.01421,-0.616279 l -1.20413,-0.817143 H 65.046413 c -58.5168431,0 -59.7385295,0.01247 -60.3857887,0.616279 -0.821304,0.766172 -2.0454784,1.04592 -2.9463848,0.673306 z M 328.96,27.294006 c -1.94797,-0.712093 -2.54003,-3.023074 -1.13456,-4.428552 0.96333,-0.963321 2.34816,-1.021506 3.46189,-0.145454 0.80704,0.634836 1.29817,0.64 60.87267,0.64 59.5745,0 60.06563,-0.0052 60.87267,-0.64 1.3257,-1.042776 3.21783,-0.629372 3.89203,0.850344 0.53568,1.175659 0.43373,1.902797 -0.40323,2.875811 -0.97299,1.131172 -2.71222,1.212285 -3.81334,0.177844 l -0.74938,-0.704 H 392.2336 332.50842 l -1.17885,0.8 c -1.19629,0.811808 -1.51069,0.887973 -2.36957,0.574007 z M 69.038582,12.353509 c -0.308777,-0.234375 -0.714681,-0.865796 -0.902006,-1.403156 -0.452547,-1.2981756 0.280806,-2.7543644 1.622717,-3.2221567 2.660198,-0.92735 4.720422,2.3011787 2.735251,4.2863487 -0.881402,0.881402 -2.52849,1.04295 -3.455962,0.338964 z M 81.655779,12.059375 C 80.867142,11.219908 80.734893,9.4430836 81.396256,8.5725806 82.597133,6.9919573 85.187587,7.3177333 85.951242,9.1454165 86.442979,10.322305 86.298698,11.011089 85.336534,12.08 c -0.893708,0.992861 -2.738342,0.982525 -3.680755,-0.02063 z m 12.889677,-0.04483 c -1.6496,-1.649599 -0.43017,-4.4625452 1.934544,-4.4625452 0.91607,0 1.383827,0.2102951 1.961469,0.8818445 0.875299,1.0175961 0.94856,1.7904637 0.290368,3.0632687 -0.803725,1.554231 -2.891533,1.812282 -4.186381,0.517432 z m 12.982684,0.153594 c -1.36948,-1.369484 -1.07365,-3.4461872 0.61535,-4.3196022 2.63184,-1.3609779 5.1636,2.0734595 3.07105,4.1660082 -0.99083,0.99084 -2.77482,1.06517 -3.6864,0.153594 z m 12.84764,-0.108764 c -0.74254,-0.790391 -0.92294,-2.3970046 -0.38254,-3.4067537 0.46919,-0.8766752 2.04612,-1.3292733 3.21352,-0.9223165 1.15038,0.4010262 1.59324,1.1217462 1.59324,2.5928772 0,2.235015 -2.89011,3.369178 -4.42422,1.736193 z m 12.88968,-0.04483 c -1.34633,-1.346322 -0.80333,-3.6586005 1.02214,-4.3526421 1.11806,-0.4250883 2.90417,0.3843638 3.33218,1.5101283 1.03895,2.7326478 -2.29063,4.9062078 -4.35432,2.8425138 z m 187.06267,0.153594 c -1.37602,-1.376026 -1.07273,-3.4466534 0.63411,-4.3293004 2.64803,-1.3693527 5.16038,2.0676431 3.05232,4.1757064 -0.99085,0.99084 -2.77485,1.06517 -3.68643,0.153594 z m 12.84765,-0.108764 c -0.74253,-0.790391 -0.92295,-2.3970046 -0.38253,-3.4067537 0.46918,-0.8766752 2.04611,-1.3292733 3.2135,-0.9223165 1.1504,0.4010262 1.59325,1.1217462 1.59325,2.5928772 0,2.235015 -2.89011,3.369178 -4.42422,1.736193 z m 12.88966,-0.04483 c -1.40502,-1.405045 -0.66128,-3.9750652 1.29226,-4.465374 1.75452,-0.4403574 3.6551,1.4806723 3.2119,3.246478 -0.50634,2.017488 -3.02419,2.698855 -4.50416,1.218896 z m 13.36784,0.571281 C 358.90413,12.372929 358.08,10.770002 358.08,9.9537355 c 0,-0.3509258 0.34134,-1.0348768 0.75853,-1.5198912 1.58371,-1.8411872 4.68147,-0.6246141 4.68147,1.8385457 0,1.819439 -2.208,3.069345 -4.08672,2.313436 z M 371.94346,12.08 c -0.96215,-1.068911 -1.10644,-1.757695 -0.61469,-2.9345835 0.76365,-1.8276832 3.35411,-2.1534592 4.55497,-0.5728359 0.69232,0.9112611 0.5344,2.7436484 -0.30438,3.5316384 -1.00666,0.945718 -2.77341,0.93395 -3.6359,-0.02422 z m 12.84198,-0.06546 c -1.98515,-1.98517 0.0751,-5.2136987 2.73526,-4.2863487 1.34192,0.4677923 2.07527,1.9239811 1.62272,3.2221567 -0.44144,1.266275 -1.20873,1.826835 -2.51798,1.83947 -0.70253,0.0068 -1.31674,-0.252016 -1.84,-0.775278 z"
       id="path3103"
       inkscape:connector-curvature="0" />
    <path
       style="fill:url(#linearGradient3115);stroke-width:0.31999999;fill-opacity:1"
       d="m 167.53814,48.568796 c -0.39234,-0.560147 -0.49814,-1.647603 -0.49814,-5.12 0,-2.457747 -0.12977,-4.408797 -0.29325,-4.408797 -0.16129,0 -4.79233,0.936 -10.2912,2.08 -5.49887,1.144 -10.30611,2.08 -10.68275,2.08 -1.25685,0 -1.4528,-0.581033 -1.4528,-4.307872 v -3.539872 l -4.96,-4.952256 c -3.13541,-3.13052 -4.96,-5.190535 -4.96,-5.6 0,-0.409464 1.82459,-2.469479 4.96,-5.599999 l 4.96,-4.952256 v -3.581015 c 0,-2.8288015 0.10563,-3.6866431 0.50286,-4.0838719 0.27657,-0.2765715 0.53332,-0.5028572 0.57055,-0.5028572 0.0372,0 4.88221,1.008 10.76659,2.2399999 5.88438,1.232 10.73964,2.2400002 10.78944,2.2400002 0.0498,0 0.0906,-1.9346258 0.0906,-4.2991681 0,-4.6846363 0.26671,-5.94083191 1.26135,-5.94083191 0.35045,0 14.06967,5.17585201 30.48715,11.50189401 L 228.6385,23.323787 258.48685,11.821894 C 274.9034,5.495852 288.61468,0.31999999 288.95632,0.31999999 c 1.04778,0 1.28368,1.05466211 1.28368,5.73896281 0,2.4755701 0.0408,4.5010372 0.0906,4.5010372 0.0498,0 4.90506,-1.0080002 10.78944,-2.2400002 5.88438,-1.2319999 10.72935,-2.2399999 10.76659,-2.2399999 0.0372,0 0.29398,0.2262857 0.57055,0.5028572 0.39723,0.3972288 0.50286,1.2550704 0.50286,4.0838719 v 3.581015 L 317.92,19.2 c 3.13542,3.13052 4.96,5.190535 4.96,5.599999 0,0.409465 -1.82458,2.46948 -4.96,5.6 l -4.96,4.952256 v 3.539872 c 0,3.726087 -0.19604,4.307872 -1.45164,4.307872 -0.37599,0 -5.1728,-0.936 -10.65955,-2.08 -5.48676,-1.144 -10.11832,-2.08 -10.29237,-2.08 -0.19328,0 -0.31644,1.715965 -0.31644,4.408797 0,3.472397 -0.1058,4.559853 -0.49814,5.12 -0.27398,0.391161 -0.64385,0.711203 -0.82192,0.711203 -0.17808,0 -13.77402,-5.184 -30.21321,-11.52 -16.43919,-6.336 -29.96588,-11.52 -30.05931,-11.52 -0.0934,0 -13.6248,5.184 -30.06972,11.52 -16.44492,6.336 -30.04421,11.52 -30.22063,11.52 -0.17643,0 -0.54495,-0.320042 -0.81893,-0.711203 z m 23.4439,-10.728269 c 11.32012,-4.356291 20.39212,-7.950924 20.16,-7.988075 -0.23212,-0.03715 -9.56604,1.844429 -20.74204,4.181288 l -20.32,4.248838 -0.0902,3.738711 c -0.0496,2.056291 0.0224,3.738947 0.16,3.739238 0.13759,2.91e-4 9.51208,-3.563709 20.8322,-7.92 z m 96.30812,4.182599 -0.0902,-3.736871 -20.16,-4.202947 c -11.088,-2.31162 -20.4842,-4.288598 -20.88044,-4.393284 -1.11261,-0.293949 -0.51083,0.326321 0.652,0.672038 0.56564,0.168168 9.74044,3.689381 20.38844,7.824913 10.648,4.135536 19.54457,7.531274 19.77016,7.54609 0.31644,0.02077 0.38955,-0.826852 0.32,-3.709939 z M 156.6042,38.384818 c 5.12369,-1.064348 9.5678,-2.010051 9.8758,-2.101564 0.51976,-0.154429 0.56,-0.986858 0.56,-11.585299 V 13.279038 l -9.84,-2.015242 c -5.412,-1.108383 -9.948,-2.0081671 -10.08,-1.9995194 -0.132,0.00865 -0.24,1.0542344 -0.24,2.3235244 v 2.307802 l 5.12,5.154126 c 2.816,2.834769 5.12,5.354769 5.12,5.6 0,0.24523 -2.304,2.76523 -5.12,5.6 l -5.12,5.154126 v 2.458071 c 0,1.351942 0.0919,2.458073 0.2042,2.458073 0.11231,0 4.39631,-0.870832 9.52,-1.935181 z M 310.4,37.861926 v -2.458071 l -5.12,-5.154126 c -2.816,-2.83477 -5.12,-5.35477 -5.12,-5.6 0,-0.245231 2.304,-2.765231 5.12,-5.6 l 5.12,-5.154126 v -2.307802 c 0,-1.6309481 -0.11732,-2.3088786 -0.4,-2.3114754 -0.22,-0.00202 -4.75587,0.8979794 -10.0797,2.0000004 L 290.24059,13.28 290.2403,24.719999 c -1.7e-4,6.292 0.0357,11.447671 0.0797,11.457043 0.044,0.0094 4.328,0.92824 9.52,2.04193 5.192,1.11369 9.692,2.042022 10,2.06296 0.48804,0.03317 0.56,-0.277814 0.56,-2.420006 z M 195.78623,30.226931 c 14.00661,-2.911187 25.51954,-5.346039 25.58429,-5.410781 0.0647,-0.06474 -0.14514,-0.195249 -0.4664,-0.290013 C 219.83077,24.209529 170.82977,14.08 170.37154,14.08 c -0.37973,0 -0.45154,1.704787 -0.45154,10.719999 0,5.896 0.0899,10.72 0.19983,10.72 0.10991,0 11.65979,-2.381881 25.6664,-5.293068 z M 287.36,24.799999 C 287.36,15.784787 287.2882,14.08 286.90846,14.08 c -0.73245,0 -49.88799,10.233326 -50.58846,10.531636 -0.5506,0.234483 -0.47655,0.304393 0.53007,0.500459 0.64354,0.125345 12.01954,2.501993 25.28,5.281439 13.26046,2.779448 24.36193,5.069947 24.66993,5.090001 0.52292,0.03405 0.56,-0.673456 0.56,-10.683536 z m -143.04,-0.07428 v -6.634282 l -3.36013,3.348691 -3.36012,3.348691 3.27441,3.285591 c 1.80092,1.807076 3.31298,3.285591 3.36012,3.285591 0.0471,0 0.0857,-2.985427 0.0857,-6.634282 z m 6.15428,3.520286 c 1.71914,-1.7127 3.12572,-3.258124 3.12572,-3.434277 0,-0.372191 -6.10734,-6.571728 -6.474,-6.571728 -0.1353,0 -0.246,2.952 -0.246,6.559999 0,3.608 0.10542,6.56 0.23428,6.56 0.12885,0 1.64085,-1.401298 3.36,-3.113996 z M 310.4,24.799999 C 310.4,21.192 310.29458,18.24 310.16572,18.24 c -0.36016,0 -6.48572,6.184636 -6.48572,6.548271 0,0.372191 6.10734,6.571728 6.474,6.571728 0.1353,0 0.246,-2.952 0.246,-6.56 z m 9.28,0 c 0,-0.0063 -1.512,-1.518289 -3.36,-3.359999 l -3.36,-3.348565 v 6.708564 6.708565 l 3.36,-3.348565 c 1.848,-1.84171 3.36,-3.35371 3.36,-3.36 z M 211.06288,19.405958 c -0.51542,-0.201277 -9.94742,-3.838235 -20.96,-8.082129 L 170.08,3.6076582 169.9895,7.2866367 c -0.0498,2.023438 -0.0288,3.7406993 0.0466,3.8161363 0.17892,0.178921 40.85532,8.686824 41.48389,8.676798 0.264,-0.0042 0.0583,-0.172336 -0.45712,-0.373613 z m 56.09217,-4.027087 c 10.97527,-2.278263 20.01601,-4.203263 20.09052,-4.277777 0.0745,-0.07451 0.0947,-1.7910193 0.045,-3.8144573 L 287.2,3.6076582 267.17712,11.323829 c -11.01258,4.243894 -20.44458,7.89048 -20.96,8.103524 l -0.93712,0.387354 0.96,-0.146769 c 0.528,-0.08072 9.93977,-2.010803 20.91505,-4.289067 z M 68.903466,41.199999 C 67.941302,40.131087 67.797021,39.442303 68.288758,38.265417 69.365882,35.687497 73.28,36.475542 73.28,39.270326 c 0,2.283683 -2.904957,3.564518 -4.376534,1.929673 z m 12.84199,-0.06546 c -1.983718,-1.983715 0.07476,-5.213798 2.732282,-4.287382 1.159123,0.404073 1.602262,1.122057 1.602262,2.596019 0,2.254963 -2.712512,3.313398 -4.334544,1.691363 z m 12.8,0 c -1.649533,-1.649529 -0.419594,-4.496368 1.914019,-4.430217 2.118426,0.06005 3.263895,1.995369 2.292656,3.873539 -0.823581,1.592633 -2.896419,1.866937 -4.206675,0.556678 z m 13.038754,0.136599 c -1.49868,-1.396234 -1.14129,-3.547472 0.71845,-4.324519 2.69946,-1.12791 4.9668,2.133008 2.91188,4.18792 -0.98809,0.988099 -2.64926,1.050602 -3.63033,0.136599 z m 12.93895,-0.01437 c -0.90165,-0.709236 -1.14803,-2.329191 -0.52992,-3.484154 0.46919,-0.876675 2.04612,-1.329274 3.21352,-0.922317 1.1571,0.40337 1.59324,1.122067 1.59324,2.625434 0,1.321104 -1.17634,2.444262 -2.56,2.444262 -0.48053,0 -1.25311,-0.298451 -1.71684,-0.663225 z m 12.7423,-0.122231 c -1.96016,-1.96015 0.10634,-5.20279 2.73229,-4.287379 0.94907,0.330848 1.92225,1.663549 1.92225,2.63239 0,0.259239 -0.3728,0.914391 -0.82844,1.455892 -1.07063,1.272368 -2.66963,1.355574 -3.8261,0.199097 z m 187.14708,0.06546 c -0.97082,-1.060697 -1.15342,-1.99671 -0.59875,-3.069312 1.28989,-2.494371 4.98621,-1.519504 4.98621,1.315059 0,2.116749 -2.96909,3.303895 -4.38746,1.754253 z m 12.91063,0.05678 c -0.90167,-0.709236 -1.14803,-2.329191 -0.52992,-3.484154 0.46918,-0.876675 2.04611,-1.329274 3.2135,-0.922317 1.15712,0.40337 1.59325,1.122067 1.59325,2.625434 0,1.321104 -1.17635,2.444262 -2.56,2.444262 -0.48054,0 -1.25312,-0.298451 -1.71683,-0.663225 z m 12.74227,-0.122231 c -1.3463,-1.34632 -0.8033,-3.658598 1.02214,-4.35264 1.11808,-0.425088 2.9042,0.384362 3.3322,1.510128 1.02528,2.69664 -2.31783,4.879015 -4.35434,2.842512 z m 13.36784,0.571283 c -0.71354,-0.287084 -1.40691,-2.013212 -1.19542,-2.976003 0.27763,-1.264173 1.19836,-1.986259 2.58265,-2.025497 2.33363,-0.06615 3.56355,2.780688 1.91405,4.430217 -0.75334,0.753341 -2.21859,1.006899 -3.30128,0.571283 z m 12.60989,-0.449052 C 371.41978,40.766422 371.2,40.302185 371.2,39.475737 c 0,-1.506227 0.43638,-2.222154 1.60227,-2.628576 2.65751,-0.926416 4.716,2.303667 2.73229,4.287382 -0.97168,0.971658 -2.35018,1.019917 -3.49139,0.122231 z m 12.74227,-0.122231 c -1.44157,-1.44159 -0.80938,-3.72112 1.23245,-4.44368 0.98713,-0.349328 2.65878,0.574915 3.04531,1.683731 0.93514,2.682509 -2.28051,4.757194 -4.27776,2.759949 z M 1.7142395,27.202694 C 0.89348854,26.871479 0,25.673288 0,24.903855 0,23.936214 0.68447626,22.802464 1.4903439,22.435287 2.6173957,21.921767 3.3254947,21.994893 4.2473187,22.72 5.0543808,23.354835 5.5454896,23.36 65.10343,23.36 h 60.04249 l 0.92053,-0.680585 c 2.53245,-1.872313 5.54633,1.348531 3.45355,3.690692 -1.08972,1.219568 -2.12937,1.327231 -3.54429,0.367035 l -1.20413,-0.817143 H 65.12 5.4684218 l -1.178866,0.8 C 3.0215205,27.580511 2.7681532,27.628 1.7142395,27.202694 Z m 327.0400005,-0.003 C 327.83606,26.83318 327.04,25.644474 327.04,24.639999 c 0,-2.082772 2.45094,-3.234147 4.17354,-1.960584 L 332.13408,23.36 h 60.0425 c 59.55792,0 60.04905,-0.0052 60.85609,-0.64 1.3257,-1.042776 3.21783,-0.629372 3.89203,0.850344 0.53104,1.165466 0.43469,1.905125 -0.3647,2.799763 -1.08973,1.219568 -2.12938,1.327231 -3.54429,0.367035 l -1.20413,-0.817143 h -59.67875 c -58.28739,0 -59.69897,0.01429 -60.54579,0.612998 -1.13475,0.802277 -1.98938,1.003413 -2.8328,0.666714 z M 68.903466,12.08 C 67.936013,11.005214 67.797392,10.321417 68.302093,9.1135019 69.350947,6.6032408 73.28,7.421604 73.28,10.150326 c 0,2.283682 -2.904957,3.564518 -4.376534,1.929674 z m 12.84199,-0.06546 C 80.715386,10.984477 80.685318,9.3260849 81.68,8.4043979 c 1.826291,-1.6922688 4.4,-0.651191 4.4,1.7798211 0,2.390939 -2.653466,3.511405 -4.334544,1.830326 z m 12.8,0 c -2.256083,-2.2560812 0.795485,-5.6786725 3.489338,-3.9135912 1.036604,0.6792092 1.348137,2.1370802 0.717337,3.3569112 -0.823581,1.592633 -2.896419,1.866936 -4.206675,0.55668 z m 13.256504,0.463307 c -0.28492,-0.166477 -0.69839,-0.738098 -0.91882,-1.270269 -1.13862,-2.748876 2.64629,-4.982099 4.48406,-2.645747 0.86935,1.1051987 0.80804,2.49202 -0.15266,3.452709 -0.82452,0.824524 -2.42296,1.041536 -3.41258,0.463307 z m 12.57382,-0.418477 c -0.90925,-0.967854 -0.93744,-2.8577128 -0.0558,-3.7393752 0.91587,-0.9158684 2.8783,-0.8636864 3.78422,0.1006243 0.95346,1.0149159 0.93215,2.7657579 -0.0448,3.6835949 -1.01492,0.953464 -2.76576,0.93215 -3.6836,-0.04484 z m 12.88968,-0.04483 c -0.99809,-0.99808 -1.02493,-2.432688 -0.0655,-3.4991187 1.2558,-1.3957939 3.41508,-1.1506416 4.26022,0.4836796 1.38523,2.6787321 -2.057,5.1532081 -4.19476,3.0154441 z m 187.11876,0.136598 c -1.9953,-1.858898 -0.43576,-4.8757774 2.33578,-4.5184929 0.95843,0.123552 2.08,1.5469539 2.08,2.6397399 0,2.126346 -2.84896,3.338473 -4.41578,1.878753 z m 12.93895,-0.01437 c -0.64291,-0.50571 -0.84074,-0.942709 -0.83299,-1.84 0.0125,-1.434459 0.57353,-2.2335345 1.81936,-2.590834 1.11161,-0.3188064 2.76761,0.2638787 3.08256,1.0846473 1.10156,2.8706387 -1.72176,5.1924747 -4.06893,3.3461867 z m 12.74227,-0.122229 c -0.96067,-0.960689 -1.02198,-2.3475104 -0.15264,-3.4527091 1.8401,-2.3393007 5.6225,-0.1026774 4.48214,2.6503931 -0.73392,1.771838 -2.9494,2.182399 -4.3295,0.802316 z m 13.36784,0.571281 c -0.73242,-0.294687 -1.40701,-2.012762 -1.18576,-3.0200256 0.4343,-1.9773644 3.21539,-2.6414726 4.55248,-1.0871075 1.49853,1.7420111 0.34182,4.3498801 -1.90544,4.2960441 -0.58,-0.01389 -1.2376,-0.0989 -1.46128,-0.188911 z m 12.4625,-0.526451 c -0.90925,-0.967855 -0.93744,-2.8577138 -0.0558,-3.7393762 1.58531,-1.5853247 4.48,-0.4026908 4.48,1.8303262 0,2.307163 -2.88195,3.550723 -4.42422,1.909049 z m 12.88966,-0.04483 C 384.26218,11.491264 384,10.869014 384,10.150326 c 0,-2.728722 3.92906,-3.5470852 4.97792,-1.0368241 1.13421,2.7145951 -2.12419,4.9693131 -4.19248,2.9010431 z"
       id="path3101"
       inkscape:connector-curvature="0" />
    <path
       style="fill:url(#linearGradient3115);stroke-width:0.31999999;fill-opacity:1"
       d="m 167.744,48.895999 c -0.26407,-0.264074 -0.384,-1.86311 -0.384,-5.12 0,-4.172557 -0.0623,-4.736 -0.52383,-4.736 -0.2881,0 -5.02581,0.936 -10.52824,2.08 -5.50243,1.144 -10.27791,2.08 -10.61217,2.08 -1.17355,0 -1.37576,-0.633187 -1.37576,-4.307872 v -3.539872 l -4.96,-4.952256 c -3.13541,-3.13052 -4.96,-5.190535 -4.96,-5.6 0,-0.409464 1.82459,-2.469479 4.96,-5.599999 l 4.96,-4.952256 v -3.581015 c 0,-3.8962568 0.32653,-4.7447842 1.70315,-4.4258648 1.9453,0.4506675 20.78184,4.3191358 21.03094,4.3191358 0.15931,0 0.32931,-2.2680002 0.37779,-5.0400001 0.0837,-4.78564785 0.12088,-5.04469101 0.73714,-5.13295466 0.35696,-0.0511251 14.10866,5.09644836 30.55932,11.43905176 l 29.91031,11.532007 29.60067,-11.427229 C 274.5197,5.6458988 288.272,0.49832537 288.8,0.49182281 L 289.76,0.48000009 289.84812,5.52 c 0.0485,2.7719999 0.21848,5.04 0.37779,5.04 0.2491,0 19.08564,-3.8684682 21.03094,-4.3191357 1.37662,-0.3189195 1.70315,0.5296079 1.70315,4.4258647 v 3.581015 L 317.92,19.2 c 3.13542,3.13052 4.96,5.190535 4.96,5.599999 0,0.409465 -1.82458,2.46948 -4.96,5.6 l -4.96,4.952256 v 3.539872 c 0,3.674685 -0.20221,4.307872 -1.37576,4.307872 -0.33426,0 -5.10974,-0.936 -10.61217,-2.08 -5.50243,-1.144 -10.23639,-2.08 -10.51991,-2.08 -0.4474,0 -0.52716,0.64001 -0.60382,4.845594 -0.0709,3.891542 -0.18285,4.904822 -0.56834,5.146425 -0.34676,0.217331 -8.69632,-2.87048 -30.08,-11.124102 -16.28,-6.283718 -29.83869,-11.492925 -30.13043,-11.576017 -0.29173,-0.08309 -14.01436,5.046239 -30.49474,11.398513 -16.48038,6.352272 -30.07289,11.549587 -30.20558,11.549587 -0.13269,0 -0.41405,-0.1728 -0.62525,-0.384 z M 211.17284,29.84635 C 210.92378,29.805843 201.576,31.67827 190.4,34.007299 l -20.32,4.234598 -0.0895,3.872627 -0.0895,3.872627 20.86231,-8.033577 c 11.47428,-4.418464 20.65854,-8.066717 20.40948,-8.107224 z m 75.95778,8.536238 c -0.13784,-0.126854 -9.60978,-2.16999 -21.04874,-4.540307 -11.43897,-2.370314 -20.58297,-4.174004 -20.32,-4.008199 0.26296,0.165804 9.69412,3.853242 20.95812,8.194308 l 20.48,7.892844 0.0906,-3.654 c 0.0498,-2.009702 -0.0222,-3.757792 -0.16,-3.884646 z m -130.45575,0.02099 c 5.08482,-1.054038 9.57094,-1.993238 9.96917,-2.08711 l 0.72403,-0.170679 -0.084,-11.422379 -0.084,-11.422388 -9.44,-1.989689 c -5.192,-1.094328 -9.764,-1.999059 -10.16,-2.0105118 -0.68204,-0.019725 -0.72,0.1008659 -0.72,2.2869778 v 2.307802 l 5.12,5.154126 c 2.816,2.834769 5.12,5.361947 5.12,5.615949 0,0.254003 -2.304,2.762448 -5.12,5.574321 l -5.12,5.112499 v 2.483751 c 0,1.366064 0.12369,2.48375 0.27487,2.48375 0.15118,0 4.43518,-0.862393 9.52,-1.916429 z M 310.4,37.836249 v -2.483751 l -5.12,-5.112499 c -2.816,-2.811873 -5.12,-5.320318 -5.12,-5.574321 0,-0.254002 2.304,-2.78118 5.12,-5.615949 l 5.12,-5.154126 v -2.307802 c 0,-2.1861119 -0.038,-2.3067033 -0.72,-2.2869778 -0.396,0.011453 -4.968,0.9161838 -10.16,2.0105118 l -9.44,1.989689 -0.084,11.429488 c -0.0462,6.286218 -0.0462,11.433673 0,11.438786 0.0462,0.0051 4.40404,0.927018 9.68404,2.048672 5.28,1.121655 9.852,2.053472 10.16,2.070701 0.48793,0.0273 0.56,-0.288345 0.56,-2.452422 z M 195.85667,30.242571 c 13.95067,-2.902586 25.43462,-5.347196 25.51989,-5.432468 0.24687,-0.24687 0.46024,-0.200367 -25.69656,-5.600412 -13.728,-2.834131 -25.14,-5.21521 -25.36,-5.291286 -0.31486,-0.108879 -0.4,2.175235 -0.4,10.731638 0,6.169298 0.12364,10.869956 0.28591,10.869956 0.15725,0 11.7001,-2.374841 25.65076,-5.277428 z M 287.36,24.650043 c 0,-8.55534 -0.0852,-10.840928 -0.4,-10.73363 -0.22,0.07498 -11.632,2.456471 -25.36,5.292203 -13.728,2.835731 -25.176,5.23463 -25.44,5.330886 -0.42667,0.155564 -0.42667,0.195176 0,0.356505 0.65678,0.24834 49.93972,10.559919 50.64,10.595522 0.5229,0.02659 0.56,-0.691635 0.56,-10.841486 z M 144.32,24.56186 v -6.798139 l -3.43621,3.436207 -3.43621,3.436208 3.35049,3.361932 c 1.84277,1.849062 3.38907,3.361931 3.43621,3.361931 0.0471,0 0.0857,-3.059162 0.0857,-6.798139 z m 6.31466,3.52373 3.28559,-3.274408 -3.27441,-3.285591 C 148.84492,19.718515 147.26086,18.24 147.12572,18.24 c -0.13515,0 -0.24572,2.952 -0.24572,6.559999 0,3.608 0.10554,6.56 0.23454,6.56 0.12899,0 1.71305,-1.473484 3.52012,-3.274409 z M 310.4,24.799999 C 310.4,21.192 310.29446,18.24 310.16546,18.24 c -0.12899,0 -1.71305,1.473484 -3.52012,3.274409 l -3.28559,3.274408 3.27441,3.285591 c 1.80092,1.807076 3.38498,3.285591 3.52012,3.285591 0.13515,0 0.24572,-2.952 0.24572,-6.56 z M 316.39814,21.20186 312.96,17.763721 v 6.876278 6.876279 l 3.43814,-3.438139 3.43814,-3.43814 z M 211.36,19.500542 c -0.352,-0.162878 -9.784,-3.812622 -20.96,-8.110541 l -20.32,-7.8143976 -0.0905,3.6950057 c -0.0498,2.0322534 -0.0205,3.7650649 0.0652,3.8506929 0.20223,0.20223 40.46395,8.646071 41.30537,8.662719 l 0.64,0.01266 -0.64,-0.296142 z m 55.13599,-3.94404 c 11.31679,-2.354994 20.64552,-4.35135 20.73052,-4.436347 0.085,-0.085 0.1138,-1.8172925 0.064,-3.8495459 L 287.2,3.5756034 266.88,11.390001 c -21.13367,8.127307 -21.80538,8.393325 -21.28,8.427496 0.176,0.01145 9.57919,-1.906001 20.89599,-4.260995 z M 69.003155,41.256774 C 68.347984,40.741417 68.16,40.313346 68.16,39.336774 c 0,-1.672759 0.864016,-2.536775 2.536774,-2.536775 2.322538,0 3.439424,2.692893 1.79777,4.334544 -0.971654,0.971658 -2.350163,1.019917 -3.491389,0.122231 z m 12.742301,-0.122231 c -1.699782,-1.699779 -0.559955,-4.334544 1.875168,-4.334544 1.590765,0 2.459376,0.895949 2.459376,2.536775 0,2.322537 -2.692893,3.439424 -4.334544,1.797769 z m 13.000262,0.225456 c -1.033798,-0.844921 -1.20134,-2.599568 -0.351395,-3.680099 0.801325,-1.018723 2.59257,-1.209594 3.749136,-0.399504 1.321341,0.925504 1.218701,3.143462 -0.195728,4.229427 -0.744496,0.571603 -2.41495,0.493443 -3.202013,-0.149824 z m 12.866842,-0.16 c -0.96966,-1.059421 -1.15341,-1.996755 -0.60088,-3.065229 0.5519,-1.06727 1.07122,-1.334771 2.59127,-1.334771 1.29204,0 2.39705,1.206723 2.39705,2.617699 0,2.143773 -2.9571,3.345031 -4.38744,1.782301 z m 12.8529,-0.06546 c -1.67665,-1.67664 -0.56102,-4.334544 1.81938,-4.334544 1.43606,0 2.51516,1.079104 2.51516,2.515171 0,1.361748 -1.22169,2.604829 -2.56,2.604829 -0.62348,0 -1.27943,-0.290339 -1.77454,-0.785456 z m 12.8,0 c -1.58157,-1.581558 -0.52801,-4.334544 1.6588,-4.334544 1.50716,0 2.22218,0.436477 2.62961,1.605219 0.91447,2.623248 -2.32974,4.688 -4.28841,2.729325 z m 187.42555,0.273165 c -1.02463,-0.717674 -1.37802,-1.81736 -0.96488,-3.00249 0.40744,-1.168742 1.12245,-1.605219 2.62961,-1.605219 0.82644,0 1.29069,0.219773 1.78103,0.843155 1.89878,2.413911 -0.9424,5.517965 -3.44576,3.764554 z m 12.57443,-0.273165 c -1.67664,-1.67664 -0.56099,-4.334544 1.81939,-4.334544 1.43607,0 2.51517,1.079104 2.51517,2.515171 0,1.361748 -1.2217,2.604829 -2.56,2.604829 -0.62349,0 -1.27942,-0.290339 -1.77456,-0.785456 z m 12.8,0 c -1.56058,-1.560589 -0.52922,-4.334544 1.61162,-4.334544 1.51484,0 2.03926,0.267338 2.58156,1.316016 1.33696,2.585408 -2.1303,5.081389 -4.19318,3.018528 z m 13.26682,0.37528 c -1.4144,-1.085965 -1.51706,-3.303923 -0.19572,-4.229427 1.15658,-0.81009 2.94781,-0.619219 3.74912,0.399504 0.84996,1.080531 0.68244,2.835178 -0.35139,3.680099 -0.78704,0.643267 -2.4575,0.721427 -3.20201,0.149824 z m 12.71091,-0.253049 c -1.07575,-0.84617 -1.18176,-2.838173 -0.20317,-3.816775 0.91587,-0.915869 2.8783,-0.863686 3.78422,0.100624 2.21069,2.353181 -1.03366,5.719933 -3.58105,3.716151 z m 12.74227,-0.122231 c -1.64163,-1.641651 -0.52474,-4.334544 1.79779,-4.334544 1.67274,0 2.53677,0.864016 2.53677,2.536775 0,2.322537 -2.6929,3.439424 -4.33456,1.797769 z M 2.0063761,27.271301 C 1.1725983,27.13794 0,25.770711 0,24.931902 0,23.938305 0.6756287,22.806496 1.4903439,22.435287 2.6173957,21.921767 3.3254947,21.994893 4.2473187,22.72 5.0543827,23.354836 5.5454896,23.36 65.12,23.36 c 59.57451,0 60.06562,-0.0052 60.87268,-0.64 0.4475,-0.352 1.08936,-0.64 1.42637,-0.64 0.86935,0 2.38712,0.841797 2.62217,1.454336 0.58338,1.520251 -0.37309,3.455687 -1.847,3.737442 -0.8937,0.170842 -2.75422,-0.515706 -2.75422,-1.016331 0,-0.23274 -18.40786,-0.335448 -60.120819,-0.335448 -51.592832,0 -60.1744005,0.06457 -60.4985756,0.455172 -0.4895804,0.589909 -1.9069688,1.041245 -2.8142293,0.89613 z m 327.0399939,0 C 328.15194,27.128238 327.04,25.749215 327.04,24.783017 c 0,-1.162652 0.33254,-1.73307 1.30288,-2.234853 1.22406,-0.63299 1.97715,-0.589042 2.94445,0.171836 0.80704,0.634836 1.29817,0.64 60.87267,0.64 59.5745,0 60.06563,-0.0052 60.87267,-0.64 1.3257,-1.042776 3.21783,-0.629372 3.89203,0.850344 0.53018,1.163602 0.43517,1.901116 -0.3647,2.830962 -0.9207,1.070315 -2.47898,1.156395 -3.76198,0.207816 l -0.9321,-0.689123 H 391.8872 c -50.58394,0 -60.00515,0.06889 -60.14749,0.43982 -0.20969,0.546419 -1.73929,1.064077 -2.69334,0.911482 z M 68.855779,12.059375 C 68.401232,11.575532 68.16,10.909851 68.16,10.139375 c 0,-1.590763 0.895949,-2.4593752 2.536774,-2.4593752 2.322538,0 3.439424,2.6928912 1.79777,4.3345452 -1.039293,1.039295 -2.685459,1.059576 -3.638765,0.04483 z m 12.889677,-0.04483 c -1.699782,-1.69978 -0.559955,-4.3345452 1.875168,-4.3345452 1.590765,0 2.459376,0.8959482 2.459376,2.5367742 0,2.322537 -2.692893,3.439425 -4.334544,1.797771 z M 94.745718,12.24 C 94.368867,11.932 93.975789,11.150579 93.872214,10.503509 93.422877,7.6963995 97.441232,6.4871365 98.757875,9.033243 100.03908,11.510822 96.911798,14.010335 94.745718,12.24 Z m 12.866842,-0.16 c -0.96966,-1.059419 -1.15341,-1.996755 -0.60088,-3.065229 0.5519,-1.0672697 1.07122,-1.3347712 2.59127,-1.3347712 1.29204,0 2.39705,1.2067245 2.39705,2.6177002 0,2.143772 -2.9571,3.34503 -4.38744,1.7823 z m 12.9106,0.05677 c -1.85328,-1.457785 -0.66783,-4.4567742 1.76168,-4.4567742 2.29243,0 3.36827,2.6959842 1.7297,4.3345452 -0.97165,0.971657 -2.35016,1.019917 -3.49138,0.122229 z m 12.7423,-0.122229 c -1.58157,-1.581561 -0.52801,-4.3345452 1.6588,-4.3345452 1.50623,0 2.22216,0.4363952 2.62858,1.6022618 0.92641,2.6575174 -2.30367,4.7159994 -4.28738,2.7322834 z m 187.158,0.06546 c -0.92105,-1.023237 -1.0851,-1.682414 -0.6963,-2.7977384 0.40644,-1.1658666 1.12234,-1.6022618 2.62858,-1.6022618 2.18682,0 3.24036,2.7529842 1.65882,4.3345452 -1.03133,1.031327 -2.6944,1.061639 -3.5911,0.06546 z m 12.84198,-0.06546 c -1.67664,-1.676641 -0.56099,-4.3345452 1.81939,-4.3345452 1.49127,0 2.51517,1.0736771 2.51517,2.6373992 0,2.224208 -2.73616,3.295526 -4.33456,1.697146 z m 12.8,0 c -1.56058,-1.56059 -0.52922,-4.3345452 1.61162,-4.3345452 1.52003,0 2.03936,0.2675015 2.59126,1.3347712 1.34538,2.601656 -2.12442,5.078208 -4.20288,2.999774 z m 13.03878,0.136598 c -0.96457,-0.898629 -1.16755,-1.985784 -0.58211,-3.1179 0.8408,-1.6258956 2.89795,-1.8822767 4.2505,-0.5297341 C 364.34739,10.078291 363.11357,12.8 360.8249,12.8 c -0.58656,0 -1.32183,-0.277266 -1.72068,-0.648857 z m 12.93895,-0.01437 C 370.96742,11.2906 370.86141,9.2985954 371.84,8.3199938 c 0.91587,-0.9158684 2.8783,-0.8636864 3.78422,0.1006243 2.21069,2.3531809 -1.03366,5.7199329 -3.58105,3.7161499 z m 12.74227,-0.122229 c -1.64163,-1.641655 -0.52474,-4.3345462 1.79779,-4.3345462 1.65955,0 2.53677,0.8659719 2.53677,2.5042192 0,2.390939 -2.65347,3.511405 -4.33456,1.830326 z"
       id="path3099"
       inkscape:connector-curvature="0" />
    <path
       style="fill:url(#linearGradient3115);stroke-width:0.31999999;fill-opacity:1"
       d="m 167.9038,48.912524 c -0.47349,-0.264979 -0.5438,-0.916 -0.5438,-5.035091 0,-2.601923 -0.0733,-4.804045 -0.16284,-4.89361 -0.0896,-0.08956 -2.42956,0.312727 -5.2,0.893975 -17.26842,3.622979 -16.731,3.53383 -17.22557,2.857468 -0.3244,-0.443654 -0.45159,-1.61535 -0.45159,-4.1603 v -3.542711 l -4.96,-4.952256 c -2.728,-2.72374 -4.96,-5.17174 -4.96,-5.44 0,-0.268259 2.232,-2.716259 4.96,-5.439999 l 4.96,-4.952256 v -3.30491 c 0,-3.6441097 0.28181,-4.5428341 1.42451,-4.5428341 0.41909,0 5.26107,0.936 10.75994,2.0799999 5.49887,1.144 10.19091,2.0800002 10.42675,2.0800002 0.33918,0 0.4288,-0.9949602 0.4288,-4.7608177 0,-5.02278715 0.21086,-5.77153996 1.51829,-5.39140176 0.30894,0.0898238 13.87878,5.30114186 30.15519,11.58070746 l 29.59347,11.417391 10.40653,-4.000709 c 5.72359,-2.200389 19.25475,-7.412167 30.06926,-11.5817282 14.62841,-5.6400238 19.79005,-7.50083179 20.16,-7.26782421 0.40717,0.25645577 0.51326,1.19105521 0.5856,5.15878931 0.0681,3.7371494 0.18425,4.8455931 0.50763,4.8455931 0.23061,0 4.90847,-0.9360002 10.39522,-2.0800002 5.48676,-1.1439999 10.32925,-2.0799999 10.76111,-2.0799999 1.16852,0 1.4477,0.8760723 1.4477,4.5428341 v 3.30491 L 317.92,19.2 c 2.728,2.72374 4.96,5.17174 4.96,5.439999 0,0.26826 -2.232,2.71626 -4.96,5.44 l -4.96,4.952256 v 3.542711 c 0,2.54495 -0.12719,3.716646 -0.45159,4.1603 -0.49457,0.676362 0.0428,0.765511 -17.22557,-2.857468 -2.77044,-0.581248 -5.11044,-0.983536 -5.2,-0.893975 -0.0896,0.08957 -0.16284,2.291687 -0.16284,4.89361 0,5.562649 -0.0684,5.683315 -2.69538,4.757337 -0.89354,-0.314957 -14.34878,-5.482627 -29.90052,-11.483708 -15.55175,-6.001085 -28.45724,-10.911063 -28.67886,-10.911063 -0.22163,0 -12.76947,4.766762 -27.8841,10.592803 -34.48612,13.292925 -32.19475,12.450522 -32.85734,12.079722 z M 190.56,38.080758 c 10.56,-4.0828 19.596,-7.567295 20.08,-7.74332 2.95667,-1.075308 -1.3935,-0.297866 -20,3.574305 l -20.88,4.345306 -0.0914,3.490909 c -0.10819,4.130934 -0.0375,4.428361 0.96001,4.040476 C 171.03086,45.632012 180,42.163558 190.56,38.080758 Z m 97.05098,3.819852 -0.091,-3.645436 -20.16,-4.192733 c -11.088,-2.306006 -20.592,-4.29961 -21.12,-4.430233 -3.03169,-0.750016 1.78144,1.240118 20.33016,8.406121 11.34641,4.383507 20.74278,7.865996 20.88082,7.738864 0.13803,-0.12713 0.21003,-1.871594 0.16,-3.876583 z M 157.6,38.278802 l 9.6,-2.012649 0.0842,-11.312917 c 0.0463,-6.222104 -0.0257,-11.42063 -0.16,-11.55228 -0.13429,-0.131651 -4.49216,-1.11643 -9.68416,-2.188397 -5.192,-1.071968 -9.692,-2.0270296 -10,-2.1223598 -0.5022,-0.1554368 -0.56,0.1001366 -0.56,2.4760378 v 2.649366 l 5.14751,5.181824 c 4.4051,4.434454 5.10039,5.266973 4.82079,5.772198 -0.1797,0.324706 -2.49609,2.748574 -5.14752,5.386373 L 146.88,35.351996 v 2.484003 c 0,2.157818 0.0735,2.482125 0.56,2.469728 0.308,-0.0078 4.88,-0.919965 10.16,-2.026925 z m 152.8,-0.442803 v -2.484003 l -4.82078,-4.795998 c -2.65143,-2.637799 -4.96782,-5.061667 -5.14752,-5.386373 -0.2796,-0.505225 0.41569,-1.337744 4.82079,-5.772198 L 310.4,14.215603 v -2.649366 c 0,-2.3752343 -0.0579,-2.6316122 -0.56,-2.4777885 -0.308,0.094367 -4.808,1.0488285 -10,2.1210245 -5.192,1.072197 -9.54987,2.057764 -9.68416,2.190148 -0.13429,0.132384 -0.20629,5.332083 -0.16,11.554886 l 0.0842,11.314187 9.44,1.99384 c 5.192,1.096611 9.764,2.008153 10.16,2.025651 0.68756,0.03037 0.72,-0.08009 0.72,-2.452186 z M 196.1746,30.234946 c 13.9602,-2.90678 25.44489,-5.347772 25.52155,-5.424427 0.20341,-0.203409 0.57675,-0.122329 -26.59991,-5.776725 C 181.33731,16.171102 169.972,13.893895 169.84,13.973335 c -0.132,0.07944 -0.24,4.959937 -0.24,10.84555 0,10.225815 0.0265,10.701114 0.59621,10.701114 0.32792,0 12.0182,-2.378275 25.97839,-5.285053 z M 287.68,24.818885 c 0,-5.885613 -0.108,-10.766111 -0.24,-10.84555 -0.20184,-0.121473 -48.47894,9.788856 -51.17624,10.505464 -0.61491,0.163368 -0.75035,0.296411 -0.42376,0.416272 0.94476,0.346735 50.0982,10.566557 50.96,10.595437 l 0.88,0.02949 z M 144.32,24.56186 v -6.798139 l -3.43621,3.436207 -3.43621,3.436208 3.35049,3.361932 c 1.84277,1.849062 3.38907,3.361931 3.43621,3.361931 0.0471,0 0.0857,-3.059162 0.0857,-6.798139 z m 6.31466,3.52373 3.28559,-3.274408 -3.27441,-3.285591 C 148.84492,19.718515 147.26086,18.24 147.12572,18.24 c -0.13515,0 -0.24572,2.952 -0.24572,6.559999 0,3.608 0.10554,6.56 0.23454,6.56 0.12899,0 1.71305,-1.473484 3.52012,-3.274409 z M 310.4,24.799999 C 310.4,21.192 310.29446,18.24 310.16546,18.24 c -0.12899,0 -1.71305,1.473484 -3.52012,3.274409 l -3.28559,3.274408 3.27441,3.285591 c 1.80092,1.807076 3.38498,3.285591 3.52012,3.285591 0.13515,0 0.24572,-2.952 0.24572,-6.56 z M 316.39814,21.20186 312.96,17.763721 v 6.876278 6.876279 l 3.43814,-3.438139 3.43814,-3.43814 z M 211.799,19.692337 c -0.19821,-0.19821 -41.63506,-16.1723371 -41.951,-16.1723371 -0.21465,0 -0.38203,7.6622441 -0.168,7.6905981 0.044,0.0058 9.224,1.934003 20.4,4.284832 18.7936,3.953163 22.11757,4.595475 21.719,4.196907 z m 54.441,-4.011545 c 11,-2.287008 20.324,-4.233524 20.72,-4.325591 0.69729,-0.162114 0.72,-0.28833 0.72,-4.0012978 0,-2.1086467 -0.1116,-3.8339033 -0.248,-3.8339033 -0.31594,0 -41.75279,15.9741271 -41.951,16.1723371 -0.3458,0.345793 1.73762,-0.05681 20.759,-4.011545 z M 68.98351,41.172601 c -1.675299,-1.675299 -0.631772,-4.372602 1.691661,-4.372602 0.684051,0 1.312586,0.278666 1.857431,0.823511 0.682358,0.682358 0.791401,1.021356 0.636185,1.977836 -0.236214,1.455616 -0.751824,1.971226 -2.20744,2.20744 -0.95648,0.155216 -1.295478,0.04617 -1.977837,-0.636185 z m 12.761946,-0.03806 c -1.617821,-1.617817 -0.526006,-4.334544 1.74199,-4.334544 1.516736,0 2.592554,1.043706 2.592554,2.515171 0,1.361748 -1.221686,2.604829 -2.56,2.604829 -0.623478,0 -1.27943,-0.290339 -1.774544,-0.785456 z M 94.657949,40.94718 c -0.814157,-0.81416 -0.940464,-1.140349 -0.774423,-2 0.255767,-1.324179 1.26457,-2.147181 2.631924,-2.147181 1.490553,0 2.36455,0.937655 2.36455,2.536775 0,0.976572 -0.187984,1.404643 -0.843155,1.92 -1.181386,0.92928 -2.23672,0.832582 -3.378896,-0.309594 z m 13.065211,0.309594 c -1.07573,-0.84617 -1.18176,-2.838173 -0.20316,-3.816775 0.76161,-0.761606 2.44596,-0.844272 3.41223,-0.167465 1.42666,0.999267 1.18224,3.560972 -0.40891,4.285955 -1.14881,0.52343 -1.84677,0.448224 -2.80016,-0.301715 z m 12.7423,-0.122231 c -0.97166,-0.971654 -1.01992,-2.350163 -0.12223,-3.491389 1.44235,-1.833657 4.45677,-0.633411 4.45677,1.774544 0,1.256183 -1.27485,2.502301 -2.56,2.502301 -0.62348,0 -1.27943,-0.290339 -1.77454,-0.785456 z m 13.41105,0.411187 c -1.47702,-0.71518 -1.79504,-2.776294 -0.61105,-3.960275 1.69018,-1.690192 4.33454,-0.560384 4.33454,1.851943 0,1.913395 -1.90196,2.990332 -3.72349,2.108332 z m 186.64666,-0.288956 c -1.11036,-0.873399 -1.18397,-2.834336 -0.14282,-3.804308 0.98496,-0.917632 2.64429,-0.856908 3.63421,0.132989 1.62502,1.625047 0.33331,4.334544 -2.06646,4.334544 -0.31997,0 -0.96122,-0.298451 -1.42493,-0.663225 z m 12.74227,-0.122231 c -0.97165,-0.971654 -1.0199,-2.350163 -0.12221,-3.491389 1.44234,-1.833657 4.45677,-0.633411 4.45677,1.774544 0,1.256183 -1.27485,2.502301 -2.56,2.502301 -0.62349,0 -1.27942,-0.290339 -1.77456,-0.785456 z m 13.39734,0.405063 c -1.50627,-0.728224 -1.69612,-3.299712 -0.315,-4.267072 0.96627,-0.676807 2.65062,-0.594141 3.41222,0.167465 0.97859,0.978602 0.87258,2.970605 -0.20317,3.816775 -0.91699,0.721312 -1.80713,0.808307 -2.89405,0.282832 z m 12.58039,-0.282832 c -1.07575,-0.84617 -1.18176,-2.838173 -0.20317,-3.816775 0.7616,-0.761606 2.44595,-0.844272 3.41222,-0.167465 1.42666,0.999267 1.18224,3.560972 -0.40889,4.285955 -1.1488,0.52343 -1.84679,0.448224 -2.80016,-0.301715 z m 12.74227,-0.122231 c -1.63862,-1.638649 -0.56282,-4.334544 1.72973,-4.334544 1.36176,0 2.60483,1.221687 2.60483,2.56 0,1.315552 -1.24445,2.56 -2.56,2.56 -0.62349,0 -1.27942,-0.290339 -1.77456,-0.785456 z m 13.41107,0.411187 c -1.47702,-0.71518 -1.79504,-2.776294 -0.61107,-3.960275 1.63866,-1.638653 4.33456,-0.562848 4.33456,1.729715 0,1.943965 -1.92893,3.099498 -3.72349,2.23056 z M 0.99641469,26.639999 C 0.62544682,26.331999 0.23264777,25.617769 0.12352792,25.05282 -0.04360394,24.187524 0.0843449,23.866424 0.93538461,23.015384 1.7831756,22.167593 2.1074512,22.03749 2.951823,22.206364 3.505223,22.317044 4.1947926,22.62189 4.4841994,22.8838 4.9461306,23.301842 12.351516,23.36 65.12,23.36 c 52.76848,0 60.17387,-0.05816 60.6358,-0.4762 0.28941,-0.26191 0.97898,-0.566756 1.53238,-0.677436 0.83892,-0.167784 1.16789,-0.03952 1.979,0.771584 1.14218,1.142178 1.23887,2.19751 0.30959,3.378897 -0.84424,1.073283 -2.77237,1.180402 -3.65677,0.203154 -0.57528,-0.635672 -0.98559,-0.64 -60.689597,-0.64 -59.6837364,0 -60.1149457,0.0045 -60.750403,0.64 -0.8002781,0.800279 -2.5671804,0.840855 -3.48358531,0.08 z M 327.70323,26.356845 c -0.92928,-1.181387 -0.83257,-2.236719 0.3096,-3.378897 0.81111,-0.811105 1.14007,-0.939368 1.97898,-0.771584 0.55341,0.11068 1.24297,0.415526 1.53238,0.677436 0.46195,0.418042 7.86733,0.4762 60.63581,0.4762 52.76848,0 60.17386,-0.05816 60.63581,-0.4762 0.28941,-0.26191 0.97897,-0.566756 1.53238,-0.677436 0.84435,-0.168874 1.16864,-0.03877 2.01642,0.80902 0.85104,0.85104 0.97901,1.17214 0.81187,2.037436 -0.10912,0.564949 -0.50192,1.279179 -0.8729,1.587179 -0.91641,0.760855 -2.68329,0.720279 -3.48358,-0.08 -0.63546,-0.635457 -1.06666,-0.64 -60.7504,-0.64 -59.704,0 -60.11434,0.0043 -60.6896,0.64 -0.88438,0.977248 -2.81254,0.870129 -3.65677,-0.203154 z M 68.945456,12.014545 c -1.638653,-1.638651 -0.562848,-4.3345452 1.729715,-4.3345452 1.361747,0 2.604829,1.2216871 2.604829,2.5600002 0,1.315551 -1.244448,2.56 -2.56,2.56 -0.623478,0 -1.27943,-0.290339 -1.774544,-0.785455 z m 12.8,0 c -1.625648,-1.625647 -0.460595,-4.3345452 1.864218,-4.3345452 2.24862,0 3.304089,2.7153272 1.68487,4.3345452 C 84.79943,12.509661 84.143478,12.8 83.52,12.8 c -0.623478,0 -1.27943,-0.290339 -1.774544,-0.785455 z m 13.397322,0.40506 c -1.066804,-0.515756 -1.551434,-1.959888 -1.057712,-3.1518346 0.4735,-1.143135 1.183088,-1.5877706 2.533897,-1.5877706 1.381466,0 2.261037,0.9868381 2.261037,2.5367742 0,2.023057 -1.85161,3.11445 -3.737222,2.202831 z m 12.580382,-0.282831 c -1.76697,-1.389897 -0.6754,-4.4567742 1.58626,-4.4567742 1.93067,0 3.10425,1.7487674 2.3674,3.5276872 -0.65321,1.576986 -2.56027,2.025133 -3.95366,0.929087 z m 12.7423,-0.122229 c -1.58727,-1.587261 -0.46254,-4.3345452 1.77454,-4.3345452 1.31555,0 2.56,1.2444487 2.56,2.5600002 0,1.315551 -1.24445,2.56 -2.56,2.56 -0.62348,0 -1.27943,-0.290339 -1.77454,-0.785455 z m 13.36781,0.571281 C 133.29499,12.369251 132.48,10.7646 132.48,9.9213454 c 0,-1.0557209 1.40162,-2.2413456 2.64967,-2.2413456 2.30077,0 3.41461,3.0507782 1.62717,4.4567742 -0.79632,0.626386 -2.01688,0.813859 -2.92357,0.449052 z m 186.6899,-0.449052 c -1.80964,-1.423448 -0.67165,-4.4567742 1.672,-4.4567742 1.20521,0 2.60483,1.2070755 2.60483,2.2464918 0,2.3743084 -2.45523,3.6431714 -4.27683,2.2102824 z m 12.74227,-0.122229 c -1.63933,-1.639335 -0.4599,-4.3345452 1.8968,-4.3345452 1.33424,0 2.43776,1.1849741 2.43776,2.6177002 0,1.256182 -1.27485,2.5023 -2.56,2.5023 -0.62349,0 -1.27942,-0.290339 -1.77456,-0.785455 z m 13.39734,0.40506 c -1.50627,-0.728223 -1.69612,-3.2997111 -0.315,-4.2670704 C 348.12986,6.904316 350.4,8.0677326 350.4,10.22924 c 0,2.010309 -1.85763,3.099065 -3.73722,2.190365 z m 12.58039,-0.282831 c -1.75735,-1.382311 -0.77923,-4.4567742 1.41785,-4.4567742 1.35082,0 2.06042,0.4446356 2.53392,1.5877706 1.02007,2.4626646 -1.83408,4.5347856 -3.95177,2.8690036 z m 12.74227,-0.122229 c -1.63862,-1.638651 -0.56282,-4.3345452 1.72973,-4.3345452 1.36176,0 2.60483,1.2216871 2.60483,2.5600002 0,1.315551 -1.24445,2.56 -2.56,2.56 -0.62349,0 -1.27942,-0.290339 -1.77456,-0.785455 z m 12.8,0 c -1.62563,-1.625647 -0.46058,-4.3345452 1.86422,-4.3345452 2.24864,0 3.3041,2.7153272 1.6849,4.3345452 C 387.83942,12.509661 387.18349,12.8 386.56,12.8 c -0.62349,0 -1.27942,-0.290339 -1.77456,-0.785455 z"
       id="path3097"
       inkscape:connector-curvature="0" />
    <path
       style="fill:url(#linearGradient3115);stroke-width:0.31999999;fill-opacity:1"
       d="m 167.76,48.595957 c -0.28379,-0.286595 -0.4,-1.779936 -0.4,-5.139958 0,-3.582438 -0.0974,-4.732816 -0.4,-4.722925 -0.22,0.0072 -5.08,0.998544 -10.8,2.203005 -7.21295,1.518829 -10.57161,2.099751 -10.96,1.895664 -0.48238,-0.253475 -0.56,-0.790006 -0.56,-3.870803 v -3.576544 l -5.14751,-5.181824 c -4.4051,-4.434454 -5.10039,-5.266973 -4.82079,-5.772198 0.1797,-0.324706 2.49609,-2.748574 5.14752,-5.386373 L 144.64,14.248002 v -3.564819 c 0,-2.7199524 0.10972,-3.6558756 0.46294,-3.9490235 0.36736,-0.3048809 2.5537,0.050404 10.5895,1.7208176 C 161.26205,9.6127396 166.16573,10.56 166.5895,10.56 H 167.36 V 5.969596 c 0,-3.9720268 0.0754,-4.6563368 0.56,-5.07984376 C 168.4316,0.4426173 171.05144,1.3925757 198.22994,11.880156 214.59241,18.19407 228.27596,23.36 228.63782,23.36 c 0.36187,0 14.04639,-5.166646 30.41006,-11.481435 C 286.25698,1.3784901 288.84787,0.43910006 289.36,0.88816091 289.84449,1.3129799 289.92,1.9981755 289.92,5.969596 V 10.56 h 0.7743 c 0.42587,0 5.32702,-0.9493541 10.89146,-2.1096757 8.09372,-1.687742 10.21086,-2.0319043 10.5857,-1.7208176 0.36008,0.2988423 0.46854,1.2140672 0.46854,3.9536763 v 3.564819 l 4.82078,4.795999 c 2.65144,2.637799 4.96783,5.061667 5.14751,5.386373 0.27961,0.505225 -0.41568,1.337744 -4.82078,5.772198 L 312.64,35.384396 v 3.548621 c 0,2.53815 -0.11956,3.647846 -0.41989,3.897094 -0.31022,0.257459 -3.20482,-0.233773 -11.08278,-1.880819 -5.86459,-1.226112 -10.78389,-2.229293 -10.93178,-2.229293 -0.14788,0 -0.30863,2.180519 -0.35721,4.845594 -0.0732,4.016441 -0.17541,4.900435 -0.59718,5.166089 -0.38602,0.243146 -7.76205,-2.47496 -30.56051,-11.261712 L 228.63898,25.887759 199.03949,37.310377 C 182.75977,43.592815 169.152,48.793052 168.8,48.866457 c -0.352,0.0734 -0.82,-0.04832 -1.04,-0.2705 z M 189.87378,38.512828 C 200.6352,34.350883 209.908,30.787647 210.48,30.594526 c 1.19236,-0.402571 1.48906,-1.355065 0.32,-1.027318 -0.396,0.111019 -2.088,0.47546 -3.76,0.809869 -1.672,0.334409 -10.70313,2.204372 -20.06918,4.155469 -9.36605,1.951098 -17.10605,3.547453 -17.2,3.547453 -0.0939,0 -0.17082,1.8 -0.17082,4 0,2.707958 0.11428,4 0.35378,4 0.19458,0 9.15858,-3.405229 19.92,-7.567171 z M 287.68,42.079999 c 0,-2.2 -0.0616,-4 -0.13695,-4 -0.0753,0 -5.72733,-1.160649 -12.56,-2.579222 -14.97025,-3.108061 -29.31669,-6.060778 -29.44766,-6.060778 -0.0525,0 -0.0954,0.144 -0.0954,0.32 0,0.176 0.18,0.320887 0.4,0.321972 0.22,0.0011 0.832,0.232206 1.36,0.513604 1.26662,0.675044 39.56279,15.460222 40.08,15.47387 0.29923,0.0079 0.4,-0.997152 0.4,-3.989446 z m -129.84,-3.735888 9.52,-1.980025 V 24.763869 13.163654 l -2.32,-0.503553 c -4.93118,-1.070308 -17.6536,-3.7001012 -17.90036,-3.7001012 -0.1428,0 -0.25964,1.2617422 -0.25964,2.8038722 v 2.803872 L 151.84,19.52 c 2.728,2.72374 4.96,5.09974 4.96,5.279999 0,0.18026 -2.232,2.55626 -4.96,5.28 l -4.96,4.952256 v 2.643872 c 0,2.527847 0.0316,2.643962 0.72,2.645939 0.396,0.0013 5.004,-0.88894 10.24,-1.977955 z M 310.4,37.676127 v -2.643872 l -4.96,-4.952256 c -2.728,-2.72374 -4.96,-5.09974 -4.96,-5.28 0,-0.180259 2.232,-2.556259 4.96,-5.279999 l 4.96,-4.952256 v -2.803872 c 0,-1.54213 -0.11684,-2.8038722 -0.25964,-2.8038722 -0.24676,0 -12.96918,2.6297932 -17.90036,3.7001012 l -2.32,0.503553 v 11.601247 11.601245 l 9.2,1.945367 c 5.06,1.069949 9.668,1.959565 10.24,1.976925 l 1.04,0.03156 z M 195.42749,30.545414 c 14.04288,-2.912021 25.73659,-5.364742 25.98602,-5.45049 0.2776,-0.09543 0.33877,-0.270641 0.15772,-0.451698 C 221.30842,24.380423 170.99365,13.763266 170,13.760937 c -0.31229,-7.32e-4 -0.4,2.419896 -0.4,11.039062 0,6.072 0.0664,11.04 0.14749,11.04 0.0811,0 11.63713,-2.382563 25.68,-5.294585 z M 287.68,24.799999 C 287.68,16.129227 287.5934,13.76 287.27643,13.76 c -0.22197,0 -11.84931,2.38254 -25.83854,5.294533 -21.53772,4.483285 -26.91802,5.716444 -25.90189,5.936676 5.16321,1.119051 51.47086,10.804473 51.744,10.822457 0.31278,0.02059 0.4,-2.380956 0.4,-11.013667 z m -143.04,-0.16 c 0,-5.110625 -0.0944,-6.719999 -0.39428,-6.719999 -0.56763,0 -6.64572,6.135296 -6.64572,6.708271 0,0.582048 6.0604,6.731728 6.634,6.731728 0.31511,0 0.406,-1.504335 0.406,-6.72 z m 6.07986,3.360144 3.34842,-3.359856 -3.18814,-3.200144 C 149.12667,19.680064 147.50931,18.24 147.286,18.24 c -0.3148,0 -0.406,1.473597 -0.406,6.559999 0,3.608 0.11057,6.56 0.24572,6.56 0.13514,0 1.7525,-1.511935 3.59414,-3.359856 z M 310.4,24.799999 c 0,-5.086402 -0.0912,-6.559999 -0.406,-6.559999 -0.22331,0 -1.84067,1.440064 -3.59414,3.200143 l -3.18814,3.200144 3.34842,3.359856 c 1.84164,1.847921 3.459,3.359856 3.59414,3.359856 0.13515,0 0.24572,-2.952 0.24572,-6.56 z m 6.15428,3.446004 c 1.71914,-1.712698 3.12572,-3.330122 3.12572,-3.594275 0,-0.582048 -6.0604,-6.731728 -6.634,-6.731728 -0.31511,0 -0.406,1.504335 -0.406,6.719999 0,5.110626 0.0944,6.72 0.39428,6.72 0.21685,0 1.80085,-1.401298 3.52,-3.113996 z M 211.83262,19.76 C 211.8259,19.395848 172.16812,3.936317 170.34827,3.5884319 L 169.6,3.4453907 l 3.5e-4,3.9573045 3.5e-4,3.9573048 19.91965,4.131901 c 10.95581,2.272545 20.27965,4.240168 20.71965,4.372495 1.20595,0.36268 1.60076,0.3368 1.59262,-0.104396 z m 55.44663,-4.15807 20.39925,-4.24193 6.4e-4,-3.9200002 c 7.4e-4,-3.2746671 -0.0783,-3.9199999 -0.48003,-3.9199999 -0.26449,0 -9.63725,3.528 -20.82836,7.8400001 -11.19111,4.312 -20.47871,7.84 -20.63911,7.84 -0.1604,0 -0.29164,0.232794 -0.29164,0.517322 0,0.381042 0.18967,0.465849 0.72,0.32193 0.396,-0.107466 9.89966,-2.10426 21.11925,-4.437322 z M 69.769674,41.510655 c -0.434682,-0.219952 -1.010682,-0.79383 -1.28,-1.275283 -0.438948,-0.784688 -0.439133,-0.965722 -0.0019,-1.747514 0.268323,-0.479676 0.880323,-1.091676 1.36,-1.36 0.782124,-0.437504 0.962969,-0.437116 1.75214,0.0038 1.33025,0.743162 1.822759,1.984093 1.237015,3.116797 -0.257959,0.498839 -0.846592,1.079015 -1.308074,1.289277 -1.000835,0.456013 -0.798473,0.459123 -1.759267,-0.02704 z m 12.771683,-0.06429 c -1.715917,-0.927529 -1.842563,-3.018848 -0.250352,-4.134077 1.061081,-0.743209 1.796317,-0.634201 2.853609,0.423095 1.122016,1.122013 1.181626,1.958067 0.215386,3.020909 -0.933523,1.026854 -1.802176,1.239523 -2.818643,0.690073 z M 96,41.667186 c -0.980054,-0.303504 -1.92,-1.46743 -1.92,-2.377513 0,-1.006512 1.23991,-2.489674 2.081347,-2.489674 0.782397,0 2.297303,0.874323 2.519875,1.454336 C 99.355715,40.012038 97.653178,42.179148 96,41.667186 Z m 12.59424,-0.08182 c -0.8607,-0.325591 -1.71424,-1.518707 -1.71424,-2.396231 0,-0.851907 1.0648,-2.002934 2.09119,-2.26054 1.67709,-0.420925 3.14966,1.530803 2.51478,3.333068 -0.34287,0.973322 -1.91526,1.693088 -2.89173,1.323703 z m 12.48809,-0.276119 c -1.80713,-1.101948 -1.60911,-3.351353 0.37459,-4.255187 1.56232,-0.711837 3.58475,1.071623 3.15535,2.782499 -0.17757,0.707504 -1.74333,2.081044 -2.37227,2.081044 -0.088,0 -0.60895,-0.27376 -1.15767,-0.608356 z m 12.92174,0.107101 c -1.53531,-0.828233 -1.58129,-3.184765 -0.0813,-4.167581 0.95529,-0.625929 2.11432,-0.405696 3.02839,0.575444 0.84748,0.90966 0.82226,1.949366 -0.0711,2.93208 -0.94701,1.041692 -1.80392,1.238364 -2.87593,0.660057 z m 187.39017,0.186343 C 320.52739,41.252882 319.68,40.059782 319.68,39.189138 c 0,-0.851907 1.0648,-2.002934 2.0912,-2.26054 2.4839,-0.623421 3.74266,3.314867 1.44006,4.50558 -0.5167,0.267204 -0.98262,0.476695 -1.03536,0.465536 -0.0528,-0.01117 -0.40451,-0.144816 -0.78166,-0.29702 z m 12.4881,-0.293444 c -1.80714,-1.101948 -1.60912,-3.351353 0.37459,-4.255187 1.5623,-0.711837 3.58473,1.071623 3.15533,2.782499 -0.17757,0.707504 -1.74333,2.081044 -2.37226,2.081044 -0.088,0 -0.60896,-0.27376 -1.15766,-0.608356 z m 13.05417,0.109063 c -1.66285,-0.699181 -1.7879,-3.138131 -0.21376,-4.169543 0.9553,-0.625929 2.11434,-0.405696 3.02839,0.575444 0.81974,0.879868 0.82537,1.865078 0.0166,2.893289 -0.8104,1.030269 -1.58919,1.223037 -2.8312,0.70081 z m 13.03901,0.06942 c -1.8463,-0.920483 -2.02115,-3.315379 -0.30678,-4.201917 1.29676,-0.670582 1.83424,-0.61193 2.74582,0.299635 1.00083,1.000832 1.0289,2.403843 0.0654,3.271079 -1.01091,0.909971 -1.63158,1.066393 -2.50448,0.631203 z m 12.83414,0.02291 c -0.43465,-0.219952 -1.01065,-0.793831 -1.28,-1.275283 -0.43894,-0.784688 -0.43913,-0.965722 -0.003,-1.747514 0.26832,-0.479677 0.88032,-1.091677 1.36,-1.36 0.78212,-0.437504 0.96295,-0.437117 1.75213,0.0038 1.33024,0.743162 1.82275,1.984093 1.23703,3.116797 -0.25799,0.498838 -0.8466,1.079014 -1.3081,1.289277 -1.00083,0.456012 -0.79846,0.459123 -1.75926,-0.02704 z m 12.77168,-0.06429 c -1.7159,-0.92753 -1.84256,-3.018848 -0.25033,-4.134077 1.06109,-0.74321 1.79632,-0.634202 2.8536,0.423094 1.12201,1.122013 1.18163,1.958068 0.21539,3.020909 -0.93354,1.026855 -1.80218,1.239523 -2.81866,0.690074 z M 1.1631548,26.536774 C 0.06101176,25.669828 0.01362183,24.079388 1.0606244,23.09578 1.9847568,22.227603 3.1877531,22.206545 4.2473187,23.04 5.0543827,23.674836 5.5454896,23.68 65.12,23.68 c 59.57451,0 60.06562,-0.0052 60.87268,-0.64 1.38481,-1.089293 3.02106,-0.80311 3.77807,0.660793 0.56051,1.083901 0.23262,2.220383 -0.86175,2.986914 -0.98344,0.688825 -1.92571,0.64515 -2.75528,-0.127708 -0.68191,-0.635297 -1.12928,-0.64 -60.889867,-0.64 -59.7183634,0 -60.2094546,0.0052 -61.0165343,0.64 -1.0412899,0.819079 -2.0227435,0.811688 -3.0841639,-0.02323 z M 328.37101,26.687707 c -1.09437,-0.766531 -1.42227,-1.903013 -0.86176,-2.986914 0.75702,-1.463903 2.39325,-1.750086 3.77808,-0.660793 0.80704,0.634836 1.29817,0.64 60.87267,0.64 59.5745,0 60.06563,-0.0052 60.87267,-0.64 1.08426,-0.852869 2.37351,-0.812724 3.23155,0.100624 0.98455,1.047987 0.91904,2.557311 -0.14739,3.39615 -1.06141,0.834913 -2.04285,0.842304 -3.08416,0.02323 -0.80707,-0.634848 -1.29817,-0.64 -61.01651,-0.64 -59.76061,0 -60.20797,0.0047 -60.88989,0.64 -0.82957,0.772858 -1.77184,0.816533 -2.75526,0.127708 z M 69.769674,12.390654 c -0.434682,-0.219951 -1.010682,-0.793828 -1.28,-1.275282 -0.438948,-0.784688 -0.439133,-0.965721 -0.0019,-1.747513 0.268323,-0.4796774 0.880323,-1.0916774 1.36,-1.36 0.782124,-0.4375052 0.962969,-0.4371168 1.75214,0.00377 1.33025,0.7431629 1.822759,1.9840954 1.237015,3.1168 -0.257959,0.498837 -0.846592,1.079012 -1.308074,1.289277 -1.000835,0.456011 -0.798473,0.459122 -1.759267,-0.02705 z m 12.771683,-0.06428 C 80.82544,11.398839 80.698794,9.3075198 82.291005,8.1922923 83.352086,7.4490802 84.087322,7.5580901 85.144614,8.6153845 86.26663,9.7373988 86.32624,10.573454 85.36,11.636295 c -0.933523,1.026854 -1.802176,1.239522 -2.818643,0.690074 z m 12.74271,-0.03002 c -1.630662,-0.879677 -1.52952,-3.4216853 0.168528,-4.2355378 2.310317,-1.1073065 4.575345,1.9769398 2.707405,3.6866258 -1.01911,0.932772 -1.865066,1.094235 -2.875933,0.548912 z m 13.310173,0.186341 C 107.7274,12.132883 106.88,10.939782 106.88,10.069137 c 0,-0.8519042 1.0648,-2.0029311 2.09119,-2.2605391 2.4839,-0.6234204 3.74265,3.3148671 1.44006,4.5055811 -0.51671,0.267202 -0.98262,0.476693 -1.03536,0.465537 -0.0527,-0.01116 -0.40448,-0.144816 -0.78165,-0.297022 z m 12.83465,0.0098 c -0.85355,-0.342068 -1.32778,-0.938272 -1.59583,-2.006267 -0.17678,-0.7043285 -0.0339,-1.0546392 0.74966,-1.8382095 0.53243,-0.5324303 1.2782,-0.9680547 1.65728,-0.9680547 0.37908,0 1.12485,0.4356244 1.65728,0.9680538 0.78037,0.7803689 0.92679,1.1371056 0.75521,1.8400004 -0.38626,1.582375 -1.91103,2.530498 -3.2236,2.004477 z m 12.57518,-0.196178 c -2.47897,-1.337302 -0.68424,-5.4065167 1.91051,-4.3317362 0.92165,0.3817638 1.68542,1.4841164 1.68542,2.4325962 0,0.616217 -1.3022,1.994398 -2.08,2.201369 -0.352,0.09367 -1.03417,-0.04234 -1.51593,-0.302229 z m 187.28559,0.0943 c -0.43465,-0.219951 -1.00032,-0.774066 -1.25699,-1.231368 -1.04083,-1.8543553 1.27255,-4.1672811 3.12701,-3.1263995 1.68874,0.9478506 1.7185,3.4192975 0.0516,4.2812925 -1.11606,0.577136 -0.94556,0.570351 -1.9216,0.07648 z m 12.59159,-0.203694 c -1.68019,-1.021802 -1.70192,-2.8517986 -0.0476,-4.010549 1.04538,-0.7322045 1.78093,-0.6110598 2.86362,0.4716425 0.78038,0.780369 0.92678,1.1371056 0.7552,1.8400005 -0.45283,1.855081 -2.05843,2.618896 -3.57123,1.698906 z m 12.92281,0.109392 c -1.53529,-0.828235 -1.58128,-3.1847634 -0.0813,-4.16758 0.9553,-0.6259319 2.11434,-0.4056986 3.02839,0.5754412 0.84748,0.9096614 0.82227,1.9493678 -0.0711,2.9320818 -0.94701,1.041693 -1.80394,1.238364 -2.87594,0.660057 z M 360.32,12.574007 c -2.28886,-0.836711 -2.52752,-3.3998104 -0.42102,-4.5217374 1.04384,-0.5559526 1.64521,-0.4571757 2.51558,0.4131846 0.8519,0.8519239 1.02106,2.2411578 0.37526,3.0822758 -0.35046,0.456458 -1.63446,1.290593 -1.8888,1.227007 -0.0556,-0.01389 -0.31702,-0.104224 -0.58102,-0.20073 z m 12.48966,-0.183353 c -0.43465,-0.219951 -1.01065,-0.793828 -1.28,-1.275282 -0.43894,-0.784688 -0.43913,-0.965721 -0.003,-1.747513 0.26832,-0.4796774 0.88032,-1.0916774 1.36,-1.36 0.78212,-0.4375052 0.96295,-0.4371168 1.75213,0.00377 1.33024,0.7431629 1.82275,1.9840954 1.23703,3.1168 -0.25799,0.498837 -0.8466,1.079012 -1.3081,1.289277 -1.00083,0.456011 -0.79846,0.459122 -1.75926,-0.02705 z m 12.77168,-0.06428 c -1.7159,-0.92753 -1.84256,-3.0188492 -0.25033,-4.1340767 1.06109,-0.7432121 1.79632,-0.6342022 2.8536,0.4230922 1.12201,1.1220143 1.18163,1.9580695 0.21539,3.0209105 -0.93354,1.026854 -1.80218,1.239522 -2.81866,0.690074 z"
       id="path3095"
       inkscape:connector-curvature="0" />
  </g>
</svg>
