<?xml version="1.0" encoding="UTF-8" standalone="no"?>
<!-- Created with Inkscape (http://www.inkscape.org/) -->

<svg
   xmlns:dc="http://purl.org/dc/elements/1.1/"
   xmlns:cc="http://creativecommons.org/ns#"
   xmlns:rdf="http://www.w3.org/1999/02/22-rdf-syntax-ns#"
   xmlns:svg="http://www.w3.org/2000/svg"
   xmlns="http://www.w3.org/2000/svg"
   xmlns:xlink="http://www.w3.org/1999/xlink"
   xmlns:sodipodi="http://sodipodi.sourceforge.net/DTD/sodipodi-0.dtd"
   xmlns:inkscape="http://www.inkscape.org/namespaces/inkscape"
   version="1.1"
   id="svg1059"
   width="409.28"
   height="40.959999"
   viewBox="0 0 409.28 40.959999"
   sodipodi:docname="divider-7.svg"
   inkscape:version="0.92.2 5c3e80d, 2017-08-06">
  <metadata
     id="metadata1065">
    <rdf:RDF>
      <cc:Work
         rdf:about="">
        <dc:format>image/svg+xml</dc:format>
        <dc:type
           rdf:resource="http://purl.org/dc/dcmitype/StillImage" />
        <dc:title></dc:title>
      </cc:Work>
    </rdf:RDF>
  </metadata>
  <defs
     id="defs1063">
    <linearGradient
       inkscape:collect="always"
       id="linearGradient1090">
       <stop offset="0%" stop-color="#AA771C" stop-opacity="1"/>
       <stop offset="33%" stop-color="#BF953F" stop-opacity="1"/>
       <stop offset="66%" stop-color="#FBF5B7" stop-opacity="1"/>
       <stop offset="100%" stop-color="#FCF6BA" stop-opacity="1"/>
    </linearGradient>
    <linearGradient
       inkscape:collect="always"
       xlink:href="#linearGradient1090"
       id="linearGradient1092"
       x2="0%" y2="100%"
       gradientUnits="userSpaceOnUse" />
  </defs>
  <sodipodi:namedview
     pagecolor="#ffffff"
     bordercolor="#666666"
     borderopacity="1"
     objecttolerance="10"
     gridtolerance="10"
     guidetolerance="10"
     inkscape:pageopacity="0"
     inkscape:pageshadow="2"
     id="namedview1061"
     showgrid="false"
     inkscape:zoom="2.8733386"
     inkscape:cx="204.64"
     inkscape:cy="20.48"
     inkscape:window-x="0"
     inkscape:window-y="0"
     inkscape:window-maximized="0"
     inkscape:current-layer="svg1059" />
  <g
     id="g1069"
     style="fill:url(#linearGradient1092);fill-opacity:1">
    <path
       style="fill:url(#linearGradient1092);stroke-width:0.31999999;fill-opacity:1"
       d="M 14.693432,31.987148 C 10.924044,27.052081 7.7952294,22.741581 7.7405101,22.408259 7.5953261,21.523878 21.092556,0.3564263 21.94416,0.13294229 22.436601,0.00371243 26.759437,2.6529207 38.663654,10.379324 l 16.055338,10.420675 h 68.232498 68.23249 L 188.8,18.4 186.41602,16 h -64.3938 -64.393798 l -1.204128,0.817142 c -0.857875,0.58217 -1.437068,0.759384 -2.014211,0.616279 -2.379104,-0.58991 -3.063299,-3.252253 -1.231837,-4.793326 1.166807,-0.981803 2.469476,-0.922603 3.626996,0.164828 C 57.474941,13.434073 58.09032,13.44 122.7493,13.44 h 65.26804 l 7.75133,7.774994 c 6.24207,6.261128 7.75133,7.941227 7.75133,8.628741 0,1.030397 -0.99628,1.695787 -1.84,1.228889 -0.308,-0.170441 -2.14155,-1.903508 -4.07454,-3.851259 l -3.51454,-3.541366 H 124.3817 54.672474 l -15.987783,8.64 c -8.79328,4.752 -16.246543,8.64 -16.562805,8.64 -0.376748,0 -2.938161,-3.093939 -7.428454,-8.972851 z M 37.236438,29.919999 C 47.966474,24.1328 51.382762,22.150746 51.097955,21.877857 50.60648,21.406946 23.552926,3.8929545 22.989396,3.6808745 22.706241,3.5743113 21.306688,5.4964085 18.88,9.3245745 c -2.024,3.1929145 -3.721501,5.9095805 -3.772225,6.0370365 -0.05072,0.127455 1.938667,1.549047 4.420867,3.159095 5.93353,3.848709 5.932357,3.794845 0.151358,6.94907 -2.288,1.248378 -4.16,2.416892 -4.16,2.596699 0,0.447672 6.985618,9.689598 7.258482,9.602926 0.120165,-0.03817 6.626245,-3.525402 14.457956,-7.749402 z M 16.772325,23.859094 19.944649,22.136973 16.772325,20.059199 13.6,17.981425 12.96,18.736693 c -0.352,0.415397 -0.984357,1.386445 -1.405237,2.157885 l -0.765238,1.402619 1.245238,1.633177 c 0.68488,0.898248 1.317237,1.637152 1.405237,1.64201 0.088,0.0049 1.587546,-0.766123 3.332325,-1.71329 z m 353.787675,8.45247 -15.84,-8.605268 -69.76546,-0.01315 -69.76546,-0.01315 -3.51454,3.541366 c -1.93299,1.947751 -3.76654,3.680818 -4.07454,3.851259 -0.84372,0.466898 -1.84,-0.198492 -1.84,-1.228889 0,-0.687514 1.50926,-2.367613 7.75133,-8.628741 L 221.26266,13.44 h 65.26804 c 64.65896,0 65.27436,-0.0059 65.94405,-0.635077 1.15754,-1.087431 2.46019,-1.146631 3.62701,-0.164828 1.83146,1.541073 1.14726,4.203416 -1.23184,4.793326 -0.57715,0.143105 -1.15635,-0.03411 -2.01421,-0.616279 L 351.65158,16 h -64.3938 -64.3938 l -2.38398,2.4 -2.38398,2.399999 h 68.23249 68.23251 L 370.61635,10.379324 C 382.52058,2.6529207 386.84339,0.00371243 387.33584,0.13294229 388.18746,0.3564263 401.68467,21.523878 401.53949,22.408259 c -0.0547,0.333322 -3.18352,4.643822 -6.95293,9.578889 -5.20864,6.819437 -7.01341,8.96767 -7.52,8.95127 -0.36659,-0.01187 -7.79456,-3.893955 -16.50656,-8.626854 z m 19.68,0.755312 c 1.936,-2.570415 3.52,-4.820594 3.52,-5.000401 0,-0.179807 -1.872,-1.348321 -4.16,-2.596699 -5.78099,-3.154225 -5.78218,-3.100361 0.15136,-6.94907 2.48221,-1.610048 4.47158,-3.03164 4.42086,-3.159095 C 394.1215,15.234155 392.424,12.517489 390.4,9.3245745 387.83187,5.2732808 386.58221,3.5711887 386.26397,3.6910959 385.68682,3.9085538 358.6919,21.393738 358.18285,21.879845 c -0.2833,0.270514 3.18131,2.286059 13.92,8.097988 7.86342,4.255808 14.36915,7.743388 14.45715,7.750176 0.088,0.0068 1.744,-2.09072 3.68,-4.661133 z m 7.00525,-9.136502 1.24521,-1.633177 -0.76521,-1.402619 C 397.30435,20.123138 396.672,19.15209 396.32,18.736693 l -0.64,-0.755268 -3.17232,2.077774 -3.17232,2.077774 3.17232,1.722121 c 1.74477,0.947167 3.24432,1.718148 3.33232,1.71329 0.088,-0.0049 0.72035,-0.743762 1.40525,-1.64201 z m -231.69101,7.112319 c -2.70863,-1.093067 -1.91225,-5.250694 1.00576,-5.250694 2.54112,0 3.67804,3.10497 1.73545,4.739554 -1.02957,0.866325 -1.59828,0.97237 -2.74121,0.51114 z m 10.88,0.0069 c -1.72858,-0.714935 -2.20972,-2.917865 -0.95571,-4.375739 1.61965,-1.882954 4.68147,-0.62184 4.68147,1.928219 0,1.755124 -2.08625,3.12562 -3.72576,2.44752 z m 10.88,0 c -1.72858,-0.714935 -2.20972,-2.917865 -0.95571,-4.375739 1.61965,-1.882954 4.68147,-0.62184 4.68147,1.928219 0,1.755124 -2.08625,3.12562 -3.72576,2.44752 z m 32.84576,0.09108 c -1.93642,-0.734714 -2.5017,-2.908703 -1.16147,-4.466817 1.57054,-1.825863 4.68147,-0.625636 4.68147,1.806155 0,1.650989 -2.06575,3.21243 -3.52,2.660662 z m 10.88,0 c -1.93642,-0.734714 -2.5017,-2.908703 -1.16147,-4.466817 1.57054,-1.825863 4.68147,-0.625636 4.68147,1.806155 0,1.650989 -2.06575,3.21243 -3.52,2.660662 z m 9.97825,-0.580757 c -1.28147,-1.078284 -1.38193,-2.581412 -0.25972,-3.88606 1.57054,-1.825863 4.68147,-0.625636 4.68147,1.806155 0,1.186227 -1.16449,2.507924 -2.42175,2.748694 -0.76771,0.147016 -1.20377,0.0012 -2,-0.668789 z M 0.78545456,24.174545 C -0.94021808,22.448872 0.27709468,19.52 2.72,19.52 c 1.5605053,0 2.72,1.159494 2.72,2.719999 0,1.560506 -1.1594947,2.72 -2.72,2.72 -0.7933558,0 -1.3922516,-0.24316 -1.93454544,-0.785454 z m 403.83998544,0 C 402.89978,22.448872 404.11709,19.52 406.56,19.52 c 1.56051,0 2.72,1.159494 2.72,2.719999 0,1.560506 -1.15949,2.72 -2.72,2.72 -0.79334,0 -1.39226,-0.24316 -1.93456,-0.785454 z M 195.28,15.486581 c -8.99931,-8.4744036 -9.60822,-9.2287031 -8.10104,-10.0353223 0.85242,-0.4561977 34.06966,-0.4561977 34.92208,0 1.50803,0.8070727 0.89804,1.564273 -8.01377,9.9477743 -5.21252,4.903506 -8.92087,8.156221 -9.36,8.20995 -0.56572,0.06922 -2.66429,-1.735052 -9.44727,-8.122402 z m 19.28,-4.406373 3.2,-3.0482453 -13.11579,-0.015981 -13.11579,-0.015982 1.43579,1.4222003 c 0.78968,0.782211 3.73756,3.574873 6.55084,6.205916 l 5.11504,4.783715 3.36496,-3.141689 C 209.84577,15.542213 212.8,12.756743 214.56,11.080208 Z"
       id="path1083"
       inkscape:connector-curvature="0" />
    <path
       style="fill:url(#linearGradient1092);stroke-width:0.31999999;fill-opacity:1"
       d="M 21.579933,40.7151 C 20.876001,40.228447 7.68,22.729741 7.68,22.282936 7.68,21.839398 19.339136,3.2665423 21.032587,1.0124348 21.545729,0.3294047 22.031879,-0.00354608 22.38226,0.08808051 22.683461,0.1668465 30.061072,4.8592508 38.77695,10.515646 L 54.624,20.799999 h 68.27999 68.27999 L 188.8,18.4 186.41602,16 H 121.84801 C 57.706666,16 57.27577,16.0042 56.64,16.64 c -1.496656,1.496654 -4.48,0.239647 -4.48,-1.887611 0,-2.273801 2.56463,-3.419081 4.481997,-2.001512 L 57.574083,13.44 h 65.055357 65.05536 l 7.9609,7.965683 c 7.23186,7.236198 7.94173,8.042088 7.75151,8.799999 -0.16209,0.645815 -0.40803,0.834317 -1.08853,0.834317 -0.69513,0 -1.64709,-0.770155 -4.54868,-3.68 l -3.66956,-3.68 H 124.34651 54.60257 l -16.030855,8.64 c -8.816971,4.752 -16.170549,8.637795 -16.341285,8.635101 -0.170737,-0.0026 -0.46346,-0.110695 -0.650497,-0.24 z M 37.16025,30.008644 c 7.897862,-4.263245 14.352464,-7.827245 14.343558,-7.92 C 51.475325,21.791985 23.282983,3.6799999 22.849699,3.6799999 c -0.34243,0 -7.226776,10.3314881 -7.711908,11.5734251 -0.0814,0.208395 1.852125,1.677595 4.375135,3.324463 5.918702,3.863369 5.920003,3.730415 -0.06804,6.950288 l -4.395109,2.363327 3.755109,4.933783 c 2.06531,2.713577 3.809222,4.93399 3.87536,4.934246 0.06614,2.56e-4 6.582137,-3.487642 14.479999,-7.750888 z M 16.88,23.863296 c 1.628,-0.867187 2.952102,-1.659187 2.942448,-1.76 -0.02296,-0.239822 -6.381794,-4.303364 -6.485935,-4.144768 C 11.624449,20.56583 10.88,21.815874 10.88,22.083388 c 0,0.544519 2.36214,3.542288 2.715035,3.445625 0.178731,-0.04896 1.656965,-0.79853 3.284965,-1.665717 z m 353.84,8.460892 -16,-8.634939 -69.76522,-0.0046 -69.76522,-0.0046 -3.66956,3.68 c -2.90159,2.909845 -3.85355,3.68 -4.54868,3.68 -0.6805,0 -0.92644,-0.188502 -1.08853,-0.834317 -0.19022,-0.757911 0.51965,-1.563801 7.75151,-8.799999 L 221.5952,13.44 h 65.05536 65.05536 l 0.9321,-0.689123 c 1.91734,-1.417569 4.48198,-0.272289 4.48198,2.001512 0,2.127258 -2.98336,3.384265 -4.48,1.887611 C 352.00422,16.004229 351.57334,16 287.43199,16 h -64.56801 l -2.38398,2.4 -2.38398,2.399999 h 68.27558 68.27557 l 15.85059,-10.284123 c 8.71782,-5.6562681 16.09741,-10.34867245 16.3991,-10.42756514 0.35146,-0.09190531 0.83668,0.2401163 1.35056,0.92412394 C 389.94086,3.2665423 401.6,21.839398 401.6,22.282936 c 0,0.446805 -13.196,17.945511 -13.89994,18.432164 -0.18704,0.129305 -0.48406,0.237107 -0.66006,0.239561 -0.176,0.0026 -7.52,-3.881257 -16.32,-8.630473 z m 19.8143,0.422707 3.70016,-4.853101 -4.39721,-2.364473 c -5.99047,-3.221178 -5.98912,-3.087899 -0.0702,-6.951433 2.52301,-1.646868 4.45655,-3.116068 4.37514,-3.324463 -0.48688,-1.246414 -7.37011,-11.5734251 -7.71402,-11.5734251 -0.43485,0 -28.62566,18.1115111 -28.6528,18.4083261 -0.0208,0.226917 28.56621,15.671347 28.84167,15.582044 0.11939,-0.0387 1.88214,-2.254268 3.91724,-4.923475 z m 6.67738,-8.738584 c 0.65357,-0.875428 1.18832,-1.741644 1.18832,-1.924923 0,-0.267514 -0.74445,-1.517558 -2.45651,-4.12486 -0.10154,-0.154625 -6.46237,3.901608 -6.48595,4.136012 -0.0208,0.20695 5.75267,3.421749 6.23414,3.471314 0.18243,0.01878 0.86643,-0.682114 1.52,-1.557543 z m -231.74709,6.836571 c -1.73508,-0.729544 -2.07498,-3.388991 -0.56805,-4.444485 2.55193,-1.78744 5.66172,1.328245 3.75066,3.757766 -0.78182,0.993922 -1.88558,1.232082 -3.18261,0.686719 z m 10.90763,0.01162 c -1.2417,-0.522096 -1.76412,-1.519679 -1.50874,-2.880999 0.24358,-1.298397 1.22418,-2.055503 2.66227,-2.055503 2.20399,0 3.37863,2.487359 2.00145,4.238164 -0.77675,0.987483 -1.88428,1.232628 -3.15498,0.698337 z m 10.88,0 c -1.2417,-0.522096 -1.76412,-1.519679 -1.50874,-2.880999 0.24358,-1.298397 1.22418,-2.055503 2.66227,-2.055503 2.20399,0 3.37863,2.487359 2.00145,4.238164 -0.77675,0.987483 -1.88428,1.232628 -3.15498,0.698337 z m 32.99416,0.2548 c -0.96562,-0.15445 -2.00638,-1.549306 -2.00638,-2.689003 0,-2.009091 2.6616,-3.227938 4.39602,-2.013102 0.94346,0.660825 1.26692,2.482895 0.61688,3.474976 -0.55442,0.846159 -1.91541,1.401651 -3.00652,1.227128 z m 10.88,0 c -0.96562,-0.15445 -2.00638,-1.549306 -2.00638,-2.689003 0,-2.009091 2.6616,-3.227938 4.39602,-2.013102 0.94346,0.660825 1.26692,2.482895 0.61688,3.474976 -0.55442,0.846159 -1.91541,1.401651 -3.00652,1.227128 z m 10.88,0.0055 C 241.03861,30.954535 240,29.559688 240,28.422299 c 0,-2.908591 4.65414,-3.431803 5.27758,-0.593297 0.41147,1.873408 -1.32119,3.614884 -3.2712,3.28784 z M 1.3965062,24.585731 C 0.64343933,24.221089 0,23.048296 0,22.040327 0,21.098291 1.7033317,19.52 2.72,19.52 c 1.1225616,0 2.72,1.597438 2.72,2.719999 0,1.074821 -1.6021722,2.727813 -2.6153846,2.698343 C 2.4150769,24.92643 1.7724278,24.767755 1.3965062,24.585731 Z M 404.77539,24.024615 C 404.21149,23.46072 403.84,22.751956 403.84,22.239999 c 0,-1.122561 1.59744,-2.719999 2.72,-2.719999 1.01667,0 2.72,1.578291 2.72,2.520327 0,1.056488 -0.6552,2.183868 -1.49034,2.564385 -1.24636,0.567886 -2.01401,0.420151 -3.01427,-0.580097 z M 195.36,15.520992 c -5.26837,-4.972549 -8.68308,-8.4300306 -8.75039,-8.8599979 -0.23955,-1.5301437 -0.11314,-1.5409942 17.95259,-1.5409942 11.05135,0 17.13456,0.1148944 17.53884,0.3312588 1.46912,0.7862483 0.85267,1.545703 -8.04964,9.9171093 -5.00068,4.702454 -8.96115,8.184605 -9.36,8.229558 -0.51504,0.05805 -2.89525,-2.002178 -9.3314,-8.076934 z m 17.92,-3.168762 4.48,-4.3196971 -13.04,-0.016266 c -7.172,-0.00895 -13.04,0.048119 -13.04,0.1268128 0,0.078694 2.90136,2.8825843 6.44747,6.2308673 l 6.44748,6.087786 2.11252,-1.894903 c 1.16189,-1.042197 4.12853,-3.838767 6.59253,-6.2146 z"
       id="path1081"
       inkscape:connector-curvature="0" />
    <path
       style="fill:url(#linearGradient1092);stroke-width:0.31999999;fill-opacity:1"
       d="M 21.068889,40.079999 C 20.366959,39.318207 18.446141,36.826082 9.3386698,24.860873 8.4264013,23.662353 7.68,22.500313 7.68,22.278562 7.68,21.867637 20.462395,1.5804536 21.364267,0.55999999 c 0.272209,-0.308 0.652607,-0.55854994 0.845329,-0.55677765 C 22.402318,0.00499462 29.76,4.6832472 38.56,10.399339 l 16,10.392895 68.31199,0.0039 68.31199,0.0039 L 188.8,18.4 186.41602,16 H 121.84801 C 57.706666,16 57.27577,16.004229 56.64,16.64 55.720259,17.55974 53.940582,17.489674 52.945456,16.494545 51.303802,14.852891 52.420688,12.16 54.743226,12.16 c 0.830108,0 1.474051,0.217276 1.896774,0.64 0.635811,0.635812 1.066666,0.64 65.8424,0.64 h 65.2024 l 7.9176,7.922353 c 4.35468,4.357294 7.9176,8.144494 7.9176,8.416 0,0.679686 -0.64317,1.261646 -1.39435,1.261646 -0.36949,0 -2.15427,-1.509113 -4.35223,-3.68 l -3.7259,-3.68 H 124.29066 54.533795 l -15.986896,8.634707 c -8.792795,4.749091 -16.139958,8.637091 -16.32703,8.64 -0.187072,0.0029 -0.705013,-0.390707 -1.15098,-0.874707 z M 37.178054,30.023876 c 7.888071,-4.254867 14.338212,-7.818867 14.333648,-7.92 C 51.50111,21.869304 23.455373,3.7117932 22.910057,3.586461 c -0.475614,-0.109312 -8.00742,11.612395 -7.739802,12.04541 0.0985,0.159378 2.133272,1.549877 4.521713,3.089998 5.682289,3.664067 5.683932,3.56973 -0.116919,6.714239 -2.345723,1.271564 -4.255492,2.440624 -4.24393,2.597912 0.02375,0.323061 7.141709,9.725979 7.362517,9.725979 0.07836,0 6.59635,-3.481254 14.484418,-7.736123 z M 16.776346,23.947075 c 1.68501,-0.909109 3.062243,-1.737109 3.060519,-1.84 -0.0017,-0.102892 -1.459324,-1.109726 -3.239111,-2.237409 -2.549302,-1.615253 -3.291462,-1.954773 -3.497452,-1.6 -0.143812,0.247683 -0.76054,1.234666 -1.370508,2.193295 l -1.109032,1.742961 1.325404,1.697039 c 0.728972,0.933371 1.424656,1.697038 1.545965,1.697038 0.121309,0 1.599206,-0.743816 3.284215,-1.652924 z m 353.956744,8.367631 -15.98688,-8.634707 h -69.75687 -69.75686 l -3.7259,3.68 c -2.19796,2.170887 -3.98274,3.68 -4.35223,3.68 -0.7531,0 -1.39435,-0.582406 -1.39435,-1.2664 0,-0.27412 3.56506,-4.06132 7.92236,-8.416 L 221.60471,13.44 h 65.19765 c 64.77098,0 65.20183,-0.0042 65.83764,-0.64 0.42272,-0.422724 1.06666,-0.64 1.89677,-0.64 2.32253,0 3.43942,2.692891 1.79779,4.334545 C 355.33942,17.489674 353.55974,17.55974 352.64,16.64 352.00422,16.004229 351.57334,16 287.43199,16 h -64.56801 l -2.38398,2.4 -2.38398,2.399999 68.31199,-0.0039 68.31199,-0.0039 16,-10.392895 c 8.8,-5.7160918 16.1577,-10.39434438 16.3504,-10.39611666 0.19274,-0.00177229 0.57312,0.24877765 0.84534,0.55677765 C 388.80883,1.570515 401.6,21.86557 401.6,22.272068 c 0,0.395425 -11.82835,16.135787 -13.38208,17.807931 -0.4497,0.484 -0.97072,0.877619 -1.15779,0.874707 -0.18707,-0.0029 -7.53424,-3.890909 -16.32704,-8.64 z m 19.59526,0.725293 c 1.97975,-2.596 3.58077,-4.864 3.55783,-5.04 -0.023,-0.176 -1.93268,-1.34506 -4.24391,-2.597911 -5.72957,-3.105813 -5.72889,-3.021082 -0.0542,-6.680219 2.38845,-1.540121 4.4232,-2.93062 4.52173,-3.089998 0.26762,-0.433015 -7.26419,-12.154722 -7.73981,-12.04541 -0.54461,0.1251696 -28.59107,18.28268 -28.60166,18.516957 -0.008,0.173943 28.44976,15.641768 28.79613,15.651813 0.0904,0.0026 1.78419,-2.119232 3.76393,-4.715232 z m 7.00547,-9.137038 1.32541,-1.697039 -1.10902,-1.742961 c -0.60999,-0.958629 -1.22669,-1.945612 -1.3705,-2.193295 -0.20601,-0.354773 -0.94816,-0.01525 -3.49747,1.6 -1.77978,1.127683 -3.23738,2.134929 -3.2391,2.238323 -0.004,0.222843 5.77033,3.430232 6.24108,3.466815 0.17831,0.01386 0.92064,-0.738472 1.6496,-1.671843 z m -232.43728,6.656641 c -1.35934,-0.952119 -1.09826,-3.866735 0.3978,-4.440825 1.89062,-0.725499 3.98566,0.515666 3.98566,2.361222 0,2.058455 -2.63136,3.306824 -4.38346,2.079603 z m 10.88,0 c -1.35934,-0.952119 -1.09826,-3.866735 0.3978,-4.440825 1.89062,-0.725499 3.98566,0.515666 3.98566,2.361222 0,2.058455 -2.63136,3.306824 -4.38346,2.079603 z m 10.88,0 c -1.35934,-0.952119 -1.09826,-3.866735 0.3978,-4.440825 1.89062,-0.725499 3.98566,0.515666 3.98566,2.361222 0,2.058455 -2.63136,3.306824 -4.38346,2.079603 z m 32.36892,-0.305057 c -2.07819,-2.078185 0.35791,-5.226459 3.2002,-4.135768 0.81974,0.314563 1.52242,1.962776 1.2893,3.024181 -0.42307,1.926187 -3.02955,2.571544 -4.4895,1.111587 z m 10.88,0 c -2.07819,-2.078185 0.35791,-5.226459 3.2002,-4.135768 0.81974,0.314563 1.52242,1.962776 1.2893,3.024181 -0.42307,1.926187 -3.02955,2.571544 -4.4895,1.111587 z m 10.88,0 c -2.07819,-2.078185 0.35791,-5.226459 3.2002,-4.135768 0.81974,0.314563 1.52242,1.962776 1.2893,3.024181 -0.42307,1.926187 -3.02955,2.571544 -4.4895,1.111587 z M 0.93538461,24.024615 c -1.21375787,-1.213758 -1.21375787,-2.355473 0,-3.569231 1.21375789,-1.213758 2.35547299,-1.213758 3.56923079,0 1.2137577,1.213758 1.2137577,2.355473 0,3.569231 -1.2137578,1.213758 -2.3554729,1.213758 -3.56923079,0 z m 403.84000539,0 C 404.21149,23.46072 403.84,22.751956 403.84,22.239999 c 0,-1.122561 1.59744,-2.719999 2.72,-2.719999 1.12256,0 2.72,1.597438 2.72,2.719999 0,1.122562 -1.59744,2.72 -2.72,2.72 -0.51197,0 -1.22074,-0.37149 -1.78461,-0.935384 z M 195.36,15.503304 c -4.752,-4.491666 -8.67683,-8.4134088 -8.72183,-8.7149845 -0.23042,-1.543895 -0.65501,-1.5083196 18.00183,-1.5083196 18.55911,0 18.06436,-0.039421 18.07301,1.4399999 0.004,0.6831667 -17.19943,16.7835272 -18.03112,16.8749842 -0.50171,0.05517 -2.9649,-2.082952 -9.32189,-8.09168 z M 212.53618,13.12 l 5.23321,-4.9600002 -6.46316,-0.086427 c -3.55473,-0.047535 -9.46645,-0.047535 -13.13715,0 l -6.674,0.086427 6.53425,6.1491742 6.53426,6.149174 1.36969,-1.189174 C 206.6866,18.615128 209.65791,15.848 212.53618,13.12 Z"
       id="path1079"
       inkscape:connector-curvature="0" />
    <path
       style="fill:url(#linearGradient1092);stroke-width:0.31999999;fill-opacity:1"
       d="M 21.227979,40.258252 C 18.946982,37.774089 7.6574787,22.520682 7.7729786,22.079009 7.9873373,21.2593 20.792547,1.1819368 21.487428,0.57604383 21.833794,0.27403409 22.343063,0.12103286 22.632391,0.23205874 22.919005,0.34204284 30.21749,5.0148229 38.851245,10.616015 l 15.697737,10.183984 h 68.477498 68.4775 L 189.12,18.4 186.73602,16 H 121.89761 C 57.46559,16 57.055562,16.004 56.48,16.64 c -1.375094,1.519462 -4.32,0.210615 -4.32,-1.92 0,-2.15856 2.969008,-3.430992 4.48,-1.92 0.635811,0.635812 1.066666,0.64 65.8424,0.64 h 65.2024 l 7.9176,7.922353 c 4.35468,4.357294 7.9176,8.144494 7.9176,8.416 0,0.636292 -0.62911,1.261646 -1.26922,1.261646 -0.27567,0 -2.15252,-1.656 -4.17078,-3.68 l -3.66956,-3.68 H 124.43321 54.455978 l -15.776586,8.527898 c -8.677123,4.690342 -16.000901,8.586556 -16.275063,8.658249 -0.274161,0.0717 -0.803519,-0.201859 -1.17635,-0.607894 z M 37.52,29.865036 c 7.7,-4.148004 13.997827,-7.632549 13.995171,-7.743431 -0.0065,-0.270789 -28.313735,-18.6016051 -28.725415,-18.6016051 -0.293179,0 -7.220736,10.6029581 -7.637995,11.6903181 -0.122657,0.31964 1.14225,1.311612 4.162609,3.264425 2.386345,1.542891 4.420109,3.005543 4.519475,3.250337 0.387522,0.954678 -0.285908,1.548777 -4.029611,3.554919 -2.134841,1.144 -4.076576,2.224 -4.314967,2.4 -0.612577,0.452257 6.784865,10.194803 7.528705,9.915421 C 23.294087,37.491714 29.82,34.013042 37.52,29.865036 Z M 16.792121,23.971477 c 1.676334,-0.895687 3.047191,-1.723687 3.046351,-1.84 -0.0015,-0.214008 -5.374982,-3.764405 -6.143901,-4.059467 -0.255727,-0.09813 -0.929835,0.666446 -1.744668,1.978814 l -1.327915,2.138738 1.287452,1.705219 c 0.708099,0.93787 1.410607,1.705218 1.561128,1.705218 0.150521,0 1.64522,-0.732835 3.321553,-1.628522 z m 353.970119,8.338922 -15.95779,-8.6304 H 284.837 214.86956 l -3.66956,3.68 c -2.01826,2.024 -3.89511,3.68 -4.17078,3.68 -0.64192,0 -1.26922,-0.625904 -1.26922,-1.2664 0,-0.27412 3.56506,-4.06132 7.92236,-8.416 L 221.60471,13.44 h 65.19765 c 64.77098,0 65.20183,-0.0042 65.83764,-0.64 1.51101,-1.510992 4.48,-0.23856 4.48,1.92 0,2.130615 -2.9449,3.439462 -4.32,1.92 C 352.22445,16.004011 351.8144,16 287.38239,16 h -64.83841 l -2.38398,2.4 -2.38398,2.399999 h 68.4775 68.47749 l 15.69776,-10.183984 c 8.63373,-5.6011921 15.93222,-10.27397216 16.21885,-10.38395626 0.28931,-0.11102588 0.79859,0.0419754 1.14496,0.34398509 0.69488,0.60589297 13.50009,20.68325617 13.71443,21.50296517 0.0827,0.315989 -2.39264,3.832787 -6.32064,8.980191 -6.98755,9.156748 -7.60256,9.905689 -8.12215,9.891199 -0.18931,-0.0053 -7.52521,-3.89328 -16.30198,-8.64 z m 19.80218,0.485898 c 2.88128,-3.773538 3.56953,-4.864534 3.22755,-5.116298 -0.23907,-0.176 -2.17818,-1.255206 -4.30912,-2.398235 -2.13091,-1.14303 -3.95159,-2.279316 -4.04589,-2.525081 -0.35773,-0.932237 0.30138,-1.556231 4.52282,-4.28194 3.02524,-1.953335 4.29116,-2.9447 4.16844,-3.264425 -0.41724,-1.08736 -7.3448,-11.6903181 -7.63798,-11.6903181 -0.50816,0 -28.72893,18.3707171 -28.6431,18.6456711 0.10364,0.332162 28.48627,15.615416 28.80396,15.510136 0.13812,-0.04577 1.89911,-2.241545 3.91332,-4.87951 z m 6.80614,-8.901516 1.28746,-1.705219 -1.32791,-2.138738 c -0.81485,-1.312368 -1.48896,-2.076945 -1.74467,-1.978814 -0.96461,0.370149 -6.1352,3.86915 -6.05958,4.100574 0.10032,0.306995 5.687,3.379593 6.19571,3.407547 0.19885,0.01093 0.94089,-0.74748 1.64899,-1.68535 z m -232.2886,6.823071 c -0.92985,-0.543308 -1.37539,-2.10317 -0.91689,-3.210082 0.47487,-1.146446 1.18321,-1.587771 2.54844,-1.587771 1.32223,0 2.56649,1.241108 2.56649,2.56 0,1.928662 -2.47196,3.246392 -4.19804,2.237853 z m 10.88,0 c -0.92985,-0.543308 -1.37539,-2.10317 -0.91689,-3.210082 0.47007,-1.134868 1.18274,-1.587771 2.49844,-1.587771 1.30278,0 2.28014,0.896266 2.50428,2.296491 0.1569,0.980194 0.0509,1.313893 -0.63519,2 -0.86223,0.862226 -2.44055,1.09155 -3.45064,0.501362 z m 10.88,0 c -0.92985,-0.543308 -1.37539,-2.10317 -0.91689,-3.210082 0.47007,-1.134868 1.18274,-1.587771 2.49844,-1.587771 1.30278,0 2.28014,0.896266 2.50428,2.296491 0.1569,0.980194 0.0509,1.313893 -0.63519,2 -0.86223,0.862226 -2.44055,1.09155 -3.45064,0.501362 z m 32.32076,-0.283691 c -0.57,-0.46156 -0.74818,-0.926934 -0.74818,-1.954162 0,-1.58681 0.92831,-2.56 2.44195,-2.56 1.3157,0 2.02837,0.452903 2.49844,1.587771 0.47132,1.137859 -0.003,2.702914 -0.97778,3.224459 -0.92289,0.493915 -2.40623,0.356367 -3.21443,-0.298068 z M 229.8674,30.21649 c -0.68611,-0.686107 -0.79209,-1.019806 -0.63519,-2 0.22414,-1.400225 1.2015,-2.296491 2.50428,-2.296491 1.3157,0 2.02837,0.452903 2.49844,1.587771 0.32362,0.781273 0.32362,1.163185 0,1.944459 -0.74403,1.79627 -2.94958,2.182212 -4.36753,0.764261 z m 10.91806,0.03805 c -2.13892,-2.138913 0.64028,-5.477879 3.35169,-4.026775 0.97451,0.521544 1.4491,2.0866 0.97778,3.224459 -0.73392,1.771838 -2.94939,2.182398 -4.32947,0.802316 z M 0.93538461,24.024615 c -1.21375787,-1.213758 -1.21375787,-2.355473 0,-3.569231 1.21375789,-1.213758 2.35547299,-1.213758 3.56923079,0 1.2137577,1.213758 1.2137577,2.355473 0,3.569231 -1.2137578,1.213758 -2.3554729,1.213758 -3.56923079,0 z m 403.84000539,0 C 404.21149,23.46072 403.84,22.751956 403.84,22.239999 c 0,-1.122561 1.59744,-2.719999 2.72,-2.719999 1.12256,0 2.72,1.597438 2.72,2.719999 0,1.122562 -1.59744,2.72 -2.72,2.72 -0.51197,0 -1.22074,-0.37149 -1.78461,-0.935384 z M 199.42227,19.25519 c -2.58625,-2.433645 -6.43027,-6.047745 -8.54227,-8.031331 -4.24371,-3.9856851 -4.44748,-4.2380899 -4.15795,-5.1503164 0.1972,-0.6213405 0.54231,-0.6335427 17.91795,-0.6335427 21.74154,0 20.482,-0.529432 13.76,5.7838591 -2.112,1.983586 -5.95602,5.597686 -8.54227,8.031331 -2.58625,2.433645 -4.93423,4.424809 -5.21773,4.424809 -0.2835,0 -2.63148,-1.991164 -5.21773,-4.424809 z M 212.07834,13.6 l 5.75248,-5.4400002 -6.49387,-0.086427 c -3.57163,-0.047535 -9.50955,-0.047535 -13.19539,0 l -6.70152,0.086427 6.55053,6.1592842 6.55053,6.159284 0.89238,-0.719284 C 205.92429,19.363677 208.91447,16.592 212.07834,13.6 Z"
       id="path1077"
       inkscape:connector-curvature="0" />
    <path
       style="fill:url(#linearGradient1092);stroke-width:0.31999999;fill-opacity:1"
       d="M 21.217905,40.239999 C 20.099779,39.008386 7.9761213,23.030117 7.7882266,22.540471 7.600145,22.050338 20.407344,1.5419237 21.511803,0.56464434 22.014012,0.12026478 22.277369,0.08048866 22.829715,0.36559337 23.209372,0.56156091 30.601029,5.3114709 39.255619,10.920949 l 15.735623,10.19905 h 68.184378 c 37.50141,0 68.18438,-0.111603 68.18438,-0.248008 0,-0.136405 -1.04739,-1.288405 -2.32753,-2.56 L 186.70495,16 H 121.88207 C 57.46559,16 57.055562,16.004 56.48,16.64 c -0.724349,0.800394 -2.403552,0.840684 -3.334282,0.08 -0.376851,-0.308 -0.769929,-1.089421 -0.873504,-1.736491 -0.156902,-0.980194 -0.05092,-1.313893 0.635184,-2 1.02176,-1.021757 2.670375,-1.104443 3.658884,-0.183509 0.682297,0.635659 1.129276,0.64 65.902738,0.64 h 65.21578 l 7.9176,7.922353 c 4.35468,4.357294 7.9176,8.144494 7.9176,8.416 0,0.636292 -0.62911,1.261646 -1.26922,1.261646 -0.27567,0 -2.15252,-1.656 -4.17078,-3.68 l -3.66956,-3.68 H 124.40828 54.406112 l -15.982579,8.64 c -8.790417,4.752 -16.110692,8.64 -16.267275,8.64 -0.156583,0 -0.578842,-0.324 -0.938353,-0.72 z M 37.241146,30.047415 c 7.853369,-4.241921 14.278192,-7.805921 14.277379,-7.92 C 51.516925,21.90283 23.015181,3.3446329 22.73177,3.3836434 22.579959,3.4045394 18.207434,10.075999 15.689682,14.128235 l -0.924677,1.488236 4.445767,2.831764 c 2.445172,1.557471 4.526311,3.032051 4.624753,3.276845 0.383526,0.953701 -0.290906,1.547507 -4.009227,3.529941 -2.119958,1.130263 -4.062587,2.210262 -4.316953,2.4 -0.380286,0.283665 0.197167,1.212301 3.249051,5.224978 2.041344,2.684 3.822317,4.88 3.957717,4.88 0.135399,0 6.671665,-3.470662 14.525033,-7.712584 z M 16.820777,23.972382 c 1.660573,-0.89519 3.016964,-1.72319 3.014203,-1.84 -0.0055,-0.230898 -5.291339,-3.745294 -6.076071,-4.039765 -0.336692,-0.126344 -0.879665,0.461412 -1.809006,1.958207 l -1.327915,2.138738 1.287452,1.705219 c 0.708099,0.93787 1.423502,1.705218 1.589784,1.705218 0.166282,0 1.660981,-0.732427 3.321553,-1.627617 z m 353.976443,8.333707 -15.92279,-8.62609 h -70.00244 -70.00243 l -3.66956,3.68 c -2.01826,2.024 -3.89511,3.68 -4.17078,3.68 -0.64192,0 -1.26922,-0.625904 -1.26922,-1.2664 0,-0.27412 3.56506,-4.06132 7.92236,-8.416 L 221.60471,13.44 h 65.21102 c 64.76872,0 65.21569,-0.0043 65.898,-0.64 0.98851,-0.920934 2.63712,-0.838248 3.65888,0.183509 1.57888,1.578882 0.34013,4.296491 -1.95847,4.296491 -0.62854,0 -1.2624,-0.25131 -1.61414,-0.64 C 352.22445,16.004012 351.8144,16 287.39793,16 h -64.82288 l -2.32752,2.311991 c -1.28014,1.271595 -2.32753,2.423595 -2.32753,2.56 0,0.136405 30.68297,0.248008 68.18438,0.248008 h 68.18439 l 15.73561,-10.19905 c 8.6546,-5.6094781 16.04624,-10.35938809 16.42589,-10.55535563 0.55235,-0.28510471 0.81571,-0.24532859 1.31792,0.19905097 1.10448,0.97727936 13.91165,21.48569366 13.72359,21.97582666 -0.18791,0.489646 -12.31156,16.467915 -13.4297,17.699528 -0.35949,0.396 -0.80854,0.713741 -0.99786,0.70609 -0.18931,-0.0076 -7.50947,-3.895652 -16.267,-8.64 z m 19.72438,0.57391 c 3.05187,-4.012677 3.62934,-4.941313 3.24906,-5.224978 -0.25437,-0.189738 -2.19431,-1.269737 -4.31098,-2.4 -2.11667,-1.130262 -3.92627,-2.255308 -4.02134,-2.500102 -0.36333,-0.935572 0.30732,-1.560072 4.62505,-4.306684 l 4.45162,-2.831764 -0.92471,-1.488236 c -2.51772,-4.052236 -6.89027,-10.7236952 -7.04208,-10.7445916 -0.36908,-0.050803 -28.78,18.5517136 -28.70121,18.7925886 0.0983,0.300525 28.05929,15.506749 28.59801,15.55266 0.20077,0.01712 2.03524,-2.164893 4.07658,-4.848893 z m 6.86314,-9.00401 1.30166,-1.72401 -1.3432,-2.118952 c -0.93405,-1.473501 -1.48941,-2.064265 -1.8232,-1.939417 -0.96806,0.362092 -6.06669,3.834209 -5.99024,4.079317 0.0974,0.312275 5.69213,3.397772 6.19181,3.414772 0.19885,0.0068 0.94726,-0.763504 1.66317,-1.71171 z m -232.34917,6.76401 c -1.30587,-0.991637 -1.29676,-3.285609 0.017,-4.283744 0.80242,-0.609636 2.4466,-0.525264 3.3047,0.169582 0.57,0.461561 0.74818,0.926934 0.74818,1.954162 0,1.027228 -0.17818,1.492602 -0.74818,1.954162 -0.85434,0.691808 -2.54387,0.796503 -3.3217,0.205838 z m 10.88,0 c -1.89686,-1.440417 -0.92074,-4.681943 1.41826,-4.709823 1.29023,-0.01538 1.84111,0.29314 2.3783,1.331958 0.60533,1.170578 0.3347,2.636704 -0.60867,3.297468 -0.8339,0.584089 -2.47024,0.625358 -3.18789,0.0804 z m 11.0377,0.185826 c -0.22371,-0.09001 -0.62796,-0.591455 -0.89835,-1.114331 -0.91604,-1.771414 0.26563,-3.791495 2.21787,-3.791495 1.23804,0 1.79067,0.319792 2.31934,1.342135 0.60533,1.170578 0.3347,2.636704 -0.60867,3.297468 -0.66464,0.465535 -2.19964,0.600394 -3.03019,0.266223 z m 32.34327,-0.266223 c -1.35934,-0.952119 -1.09826,-3.866735 0.3978,-4.440825 1.56722,-0.601397 3.07278,-0.03012 3.66059,1.388993 0.47132,1.137859 -0.003,2.702914 -0.97778,3.224459 -0.8504,0.45512 -2.30038,0.373868 -3.08061,-0.172627 z m 10.88,0 c -0.94337,-0.660764 -1.214,-2.12689 -0.60867,-3.297468 1.04195,-2.014909 3.8274,-1.803938 4.64708,0.351971 0.39366,1.035414 -0.10073,2.659434 -0.94757,3.112649 -0.85969,0.46009 -2.30708,0.381815 -3.09084,-0.167152 z m 10.74618,-0.125441 c -0.57,-0.46156 -0.74818,-0.926934 -0.74818,-1.954162 0,-1.61014 0.9372,-2.565665 2.50091,-2.549823 1.21178,0.01228 1.98981,0.553777 2.4195,1.683929 0.39366,1.035414 -0.10073,2.659434 -0.94757,3.112649 -0.93228,0.498942 -2.41308,0.36458 -3.22466,-0.292593 z M 1.0738444,24.201469 C -0.76332563,22.621202 0.30339277,19.712 2.72,19.712 c 2.4166074,0 3.4833258,2.909202 1.6461555,4.489469 -0.4850144,0.417192 -1.2257843,0.75853 -1.6461555,0.75853 -0.4203712,0 -1.1611412,-0.341338 -1.6461556,-0.75853 z m 403.8400156,0 C 403.07667,22.621202 404.14339,19.712 406.56,19.712 c 2.41661,0 3.48333,2.909202 1.64614,4.489469 -0.48499,0.417192 -1.22576,0.75853 -1.64614,0.75853 -0.42038,0 -1.16115,-0.341338 -1.64614,-0.75853 z M 195.59267,15.632745 c -4.70397,-4.42599 -8.68115,-8.3105631 -8.83817,-8.6323845 -0.1876,-0.3844759 -0.14673,-0.752344 0.11918,-1.0727453 0.35343,-0.4258563 2.60363,-0.4876153 17.76632,-0.4876153 15.16269,0 17.41289,0.061759 17.76632,0.4876153 0.26591,0.3204013 0.30678,0.6882694 0.11918,1.0727453 -0.45626,0.9351004 -17.33906,16.6796385 -17.8855,16.6796385 -0.27207,0 -4.34337,-3.621264 -9.04733,-8.047254 z M 211.93692,13.76 l 5.92241,-5.6000002 -6.50812,-0.086427 c -3.57947,-0.047535 -9.52876,-0.047535 -13.22064,0 l -6.71251,0.086427 6.55685,6.1678372 6.55685,6.167838 0.74137,-0.567838 C 205.68088,19.615527 208.67959,16.84 211.93692,13.76 Z"
       id="path1075"
       inkscape:connector-curvature="0" />
    <path
       style="fill:url(#linearGradient1092);stroke-width:0.31999999;fill-opacity:1"
       d="M 21.33548,40.236399 C 20.605248,39.497743 8.7237712,23.997856 8.0026605,22.843174 7.6386922,22.260368 8.2935974,21.100934 14.546656,11.257778 20.189262,2.375557 21.625229,0.32075676 22.187548,0.32402687 22.568396,0.32624169 30.08,5.0035378 38.88,10.718019 l 16,10.389964 68.24,0.006 c 37.532,0.0033 68.24,-0.105597 68.24,-0.242002 0,-0.136405 -1.04739,-1.288405 -2.32753,-2.56 L 186.70495,16 h -64.742 C 57.705488,16 57.214858,16.00479 56.407318,16.64 54.453363,18.17698 51.789587,16.494951 52.324035,14.061629 52.720029,12.258678 55.285347,11.479923 56.48,12.8 c 0.575587,0.636018 0.98559,0.64 65.8981,0.64 h 65.31891 l 7.9115,7.934703 c 4.35132,4.364088 7.91149,8.151288 7.91149,8.416 0,0.625298 -0.63384,1.249296 -1.269,1.249296 -0.27555,0 -2.2245,-1.728 -4.331,-3.84 l -3.83,-3.84 H 124.51677 54.943542 l -15.850048,8.56 c -8.717524,4.708 -16.119986,8.666381 -16.449914,8.7964 -0.416642,0.164192 -0.816195,0.01757 -1.3081,-0.48 z M 37.425962,30.004292 c 7.648281,-4.13604 13.95214,-7.658601 14.008579,-7.827915 0.09719,-0.29156 -28.664042,-19.1423791 -28.868507,-18.9211316 -0.05324,0.057615 -1.643168,2.5504889 -3.533163,5.5397195 -1.889995,2.9892311 -3.637869,5.7425141 -3.884164,6.1184071 -0.430222,0.656602 -0.271154,0.798028 4.050259,3.601058 2.473937,1.604688 4.582345,3.137238 4.685351,3.405667 0.303897,0.791944 -0.396506,1.33639 -4.561939,3.54614 -2.172811,1.15267 -4.024318,2.215097 -4.11446,2.36095 -0.09014,0.145853 1.507133,2.453031 3.549499,5.127062 2.657293,3.479145 3.86259,4.820387 4.237988,4.715996 0.288527,-0.08024 6.782279,-3.529913 14.430557,-7.665953 z M 19.757176,22.168472 C 19.856036,21.871892 14.017016,17.92 13.479952,17.92 c -0.13334,0 -0.847461,0.949016 -1.586936,2.108924 l -1.344501,2.108925 1.365742,1.870219 1.365743,1.87022 3.185407,-1.695365 c 1.751974,-0.932451 3.23327,-1.838954 3.291769,-2.014451 z m 365.955754,18.09378 c -0.67811,-0.35881 -8.01331,-4.308602 -16.30048,-8.777317 L 354.3449,23.359999 H 284.76745 215.19 l -3.83,3.84 c -2.1065,2.112 -4.05545,3.84 -4.331,3.84 -0.63516,0 -1.269,-0.623998 -1.269,-1.249296 0,-0.264712 3.56017,-4.051912 7.91149,-8.416 L 221.58299,13.44 h 65.31891 c 64.9125,0 65.32252,-0.004 65.8981,-0.64 1.19466,-1.320077 3.75997,-0.541322 4.15597,1.261629 0.53443,2.433322 -2.12935,4.115351 -4.0833,2.578371 C 352.06515,16.004789 351.5745,16 287.31705,16 h -64.742 l -2.32752,2.311991 c -1.28014,1.271595 -2.32753,2.423595 -2.32753,2.56 0,0.136405 30.708,0.245305 68.24,0.242 l 68.24,-0.006 16,-10.389965 c 8.8,-5.7144805 16.31162,-10.39177659 16.69245,-10.39399141 0.56233,-0.00327 1.9983,2.05153011 7.64089,10.93375141 6.31204,9.935978 6.91066,10.998295 6.53581,11.598509 -1.10601,1.771029 -13.50182,17.743123 -13.88413,17.88983 -0.24153,0.09268 -0.99398,-0.125056 -1.67209,-0.483865 z m 4.8311,-7.336064 c 2.03056,-2.658598 3.61818,-4.953148 3.52807,-5.099001 -0.0901,-0.145853 -1.94167,-1.20828 -4.11447,-2.36095 -4.16544,-2.20975 -4.86585,-2.754196 -4.56195,-3.54614 0.10301,-0.268429 2.21142,-1.800979 4.68534,-3.405667 4.32141,-2.80303 4.48048,-2.944456 4.05028,-3.601058 -0.24631,-0.375893 -1.99418,-3.129176 -3.88416,-6.1184071 -1.89002,-2.9892306 -3.47994,-5.4821045 -3.53319,-5.5397195 -0.20435,-0.2211492 -28.96569,18.6295026 -28.86854,18.9209326 0.11801,0.354127 28.03705,15.538211 28.62061,15.565661 0.21232,0.01 2.04742,-2.157056 4.07801,-4.815651 z m 6.8449,-12.894235 C 396.64838,18.870379 395.93338,17.92 395.80003,17.92 c -0.53449,0 -6.37632,3.951156 -6.27798,4.246157 0.0581,0.174225 1.53046,1.080708 3.27193,2.014409 l 3.16637,1.697636 1.38749,-1.867147 1.38752,-1.867148 z M 164.85578,30.299375 c -1.0148,-1.080207 -0.94432,-2.857422 0.14738,-3.71615 1.55041,-1.21956 3.66188,-0.509875 4.13901,1.391166 0.22058,0.878883 -0.5588,2.57607 -1.31651,2.86683 -1.06304,0.407928 -2.28748,0.184531 -2.96988,-0.541846 z m 10.88,0 c -1.0148,-1.080207 -0.94432,-2.857422 0.14738,-3.71615 1.55041,-1.21956 3.66188,-0.509875 4.13901,1.391166 0.22058,0.878883 -0.5588,2.57607 -1.31651,2.86683 -1.06304,0.407928 -2.28748,0.184531 -2.96988,-0.541846 z m 10.88,0 c -1.0148,-1.080207 -0.94432,-2.857422 0.14738,-3.71615 1.55041,-1.21956 3.66188,-0.509875 4.13901,1.391166 0.22058,0.878883 -0.5588,2.57607 -1.31651,2.86683 -1.06304,0.407928 -2.28748,0.184531 -2.96988,-0.541846 z m 32.97749,0.52645 c -0.66779,-0.26868 -1.42047,-2.034503 -1.21544,-2.851434 0.73331,-2.921734 4.98217,-2.518307 4.98217,0.473053 0,1.948648 -1.88173,3.136806 -3.76673,2.378381 z m 10.88,0 c -0.66779,-0.26868 -1.42047,-2.034503 -1.21544,-2.851434 0.73331,-2.921734 4.98217,-2.518307 4.98217,0.473053 0,1.948648 -1.88173,3.136806 -3.76673,2.378381 z m 10.88,0 c -0.66779,-0.26868 -1.42047,-2.034503 -1.21544,-2.851434 0.73331,-2.921734 4.98217,-2.518307 4.98217,0.473053 0,1.948648 -1.88173,3.136806 -3.76673,2.378381 z M 1.6,24.553649 C -0.01794076,23.719643 -0.34745066,21.503226 0.96933632,20.31155 1.7933658,19.565814 3.7615232,19.6193 4.551111,20.408888 5.3783302,21.236107 5.4008627,23.225494 4.592,24.018934 3.7709078,24.824371 2.5488707,25.042767 1.6,24.553649 Z m 403.9889,0.108754 c -1.02807,-0.427598 -1.4929,-1.191309 -1.4929,-2.452861 0,-1.551974 0.89261,-2.433542 2.464,-2.433542 1.56864,0 2.528,0.935076 2.528,2.463999 0,1.815069 -1.86128,3.103615 -3.4991,2.422404 z M 195.38268,15.341097 C 190.53021,10.754701 186.56,6.8235013 186.56,6.6050974 c 0,-1.1359622 0.45212,-1.1650975 18.08,-1.1650975 17.62788,0 18.08,0.029135 18.08,1.1650975 0,0.5275763 -17.52137,17.0749016 -18.08,17.0749016 -0.23905,0 -4.40484,-3.752505 -9.25732,-8.338902 z m 15.99952,-1.008534 c 3.59579,-3.38109 6.5378,-6.2610899 6.5378,-6.3999997 0,-0.1389101 -5.988,-0.2525635 -13.30667,-0.2525635 -8.87776,0 -13.27056,0.1083248 -13.19817,0.3254618 0.14406,0.4322035 12.82999,12.4337284 13.16704,12.4566824 0.1442,0.0098 3.2042,-2.748491 6.8,-6.129581 z"
       id="path1073"
       inkscape:connector-curvature="0" />
    <path
       style="fill:url(#linearGradient1092);stroke-width:0.31999999;fill-opacity:1"
       d="m 17.070548,34.479999 c -2.594945,-3.388 -5.707172,-7.446803 -6.916061,-9.019561 C 8.9034179,23.832803 8.0145709,22.378841 8.0912851,22.085485 8.3167587,21.223273 21.552526,0.57673333 21.986558,0.41017964 22.209208,0.32474105 29.629316,4.9493205 38.475686,10.687023 L 54.56,21.119209 l 68.4,3.84e-4 c 55.27313,3.31e-4 68.4,-0.07801 68.4,-0.408176 0,-0.22472 -0.97561,-1.37672 -2.16803,-2.56 L 187.02394,16 H 121.97901 56.934083 l -0.928528,0.686491 c -0.828237,0.612342 -1.035539,0.642165 -1.91927,0.276111 -0.544909,-0.225708 -1.129242,-0.669162 -1.298515,-0.985453 -1.223789,-2.286671 1.227529,-4.6951 3.253884,-3.196953 L 56.934083,13.44 h 65.198257 65.19825 l 7.93471,7.911495 c 4.36408,4.351322 7.9347,8.14969 7.9347,8.440818 0,0.291127 -0.22487,0.715946 -0.49971,0.944042 -0.43055,0.357324 -1.04013,-0.124411 -4.40462,-3.480818 l -3.90491,-3.895538 H 124.46228 54.533795 l -15.986896,8.634708 c -8.792795,4.749091 -16.160457,8.63709 -16.372584,8.639999 -0.212127,0.0029 -2.508822,-2.766707 -5.103767,-6.154707 z M 37.473645,30.182002 C 46.863056,25.116423 51.517978,22.437571 51.513898,22.102003 51.50648,21.49189 23.193296,3.072702 22.608074,3.2972726 22.186086,3.4592044 14.718703,15.063577 14.72185,15.552528 c 10e-4,0.15811 1.950418,1.549769 4.332002,3.092577 2.381584,1.542807 4.420764,3.041236 4.531513,3.329842 0.273849,0.713639 -0.534021,1.314648 -4.891501,3.638994 C 16.684239,26.685905 15.04,27.750759 15.04,27.980282 c 0,0.229523 1.604027,2.523855 3.564505,5.098517 2.4612,3.23225 3.75924,4.6812 4.193644,4.6812 0.346027,0 6.949999,-3.410099 14.675496,-7.577997 z M 16.776346,24.267075 c 1.890504,-1.019978 3.063196,-1.847097 3.062459,-2.16 -0.0014,-0.575388 -5.464777,-4.189026 -6.325067,-4.183552 -0.532591,0.0034 -2.953738,3.470341 -2.953738,4.229593 0,0.472005 2.507502,3.766883 2.866713,3.766883 0.157289,0 1.664624,-0.743816 3.349633,-1.652924 z m 353.956744,7.731992 -15.98688,-8.639068 h -69.92849 -69.92848 l -3.90491,3.895538 c -3.36449,3.356407 -3.97407,3.838142 -4.40462,3.480818 -0.27484,-0.228096 -0.49971,-0.652915 -0.49971,-0.944042 0,-0.291128 3.57062,-4.089496 7.9347,-8.440818 L 221.94941,13.44 h 65.19825 65.19826 l 0.89242,-0.659804 c 2.02636,-1.498147 4.47769,0.910282 3.25388,3.196953 -0.16928,0.316291 -0.7536,0.759745 -1.29849,0.985453 -0.88375,0.366054 -1.09104,0.336231 -1.9193,-0.276111 L 352.34592,16 h -65.06155 -65.06153 l -2.15142,2.16803 c -1.18328,1.192417 -2.15142,2.344417 -2.15142,2.56 0,0.308071 14.64053,0.391885 68.4,0.391574 l 68.4,-3.84e-4 16.08432,-10.432186 c 8.84637,-5.7377023 16.26646,-10.36228175 16.48912,-10.27684316 0.43216,0.16584057 13.66931,20.81120216 13.89373,21.66944616 0.15488,0.592177 -13.31904,18.357528 -14.01549,18.479442 -0.24842,0.04349 -7.64579,-3.808515 -16.43859,-8.560001 z m 19.9424,1.079732 c 1.96048,-2.574662 3.56451,-4.868994 3.56451,-5.098517 0,-0.229523 -1.64422,-1.294377 -3.65386,-2.366341 -4.3575,-2.324346 -5.16534,-2.925355 -4.89152,-3.638994 0.11076,-0.288606 2.14996,-1.787035 4.53152,-3.329842 2.3816,-1.542808 4.33098,-2.934467 4.332,-3.092577 0.003,-0.488951 -7.46422,-12.0933236 -7.8862,-12.2552554 -0.585,-0.2244791 -28.8984,18.1945974 -28.90583,18.8044584 -0.007,0.580618 27.56656,15.630153 28.66938,15.64759 0.49942,0.0079 1.60464,-1.209549 4.24,-4.670522 z m 6.75414,-8.867878 c 0.7097,-0.939992 1.29037,-1.866005 1.29037,-2.057805 0,-0.759252 -2.42115,-4.226204 -2.95373,-4.229593 -0.86144,-0.0055 -6.32371,3.608199 -6.32509,4.184466 0,0.481093 5.40896,3.72865 6.30845,3.786815 0.21431,0.01386 0.97031,-0.74389 1.68,-1.683883 z M 165.6,30.653498 c -1.72463,-0.989076 -1.92091,-2.671951 -0.45545,-3.905053 0.5415,-0.455645 1.12466,-0.828446 1.29589,-0.828446 0.78962,0 2.20982,1.049471 2.38961,1.765821 0.31413,1.251569 -0.11825,2.340612 -1.1388,2.868359 -1.10918,0.573582 -1.25242,0.580385 -2.09125,0.09932 z m 10.88,0 c -1.72463,-0.989076 -1.92091,-2.671951 -0.45545,-3.905053 0.5415,-0.455645 1.12466,-0.828446 1.29589,-0.828446 0.78962,0 2.20982,1.049471 2.38961,1.765821 0.31413,1.251569 -0.11825,2.340612 -1.1388,2.868359 -1.10918,0.573582 -1.25242,0.580385 -2.09125,0.09932 z m 10.88,0 c -1.72463,-0.989076 -1.92091,-2.671951 -0.45545,-3.905053 0.5415,-0.455645 1.12466,-0.828446 1.29589,-0.828446 0.78962,0 2.20982,1.049471 2.38961,1.765821 0.31413,1.251569 -0.11825,2.340612 -1.1388,2.868359 -1.10918,0.573582 -1.25242,0.580385 -2.09125,0.09932 z m 32.40407,-0.1144 c -1.61112,-0.874183 -1.57338,-3.28621 0.0647,-4.133278 1.24659,-0.644641 1.39753,-0.624334 2.5467,0.342625 1.48751,1.251656 1.26152,2.973415 -0.51441,3.919284 -0.87367,0.46532 -1.01872,0.456423 -2.09697,-0.128631 z m 10.88,0 c -1.61112,-0.874183 -1.57338,-3.28621 0.0647,-4.133278 1.24659,-0.644641 1.39753,-0.624334 2.5467,0.342625 1.48751,1.251656 1.26152,2.973415 -0.51441,3.919284 -0.87367,0.46532 -1.01872,0.456423 -2.09697,-0.128631 z m 10.88,0 c -1.61112,-0.874183 -1.57338,-3.28621 0.0647,-4.133278 1.24659,-0.644641 1.39753,-0.624334 2.5467,0.342625 1.48751,1.251656 1.26152,2.973415 -0.51441,3.919284 -0.87367,0.46532 -1.01872,0.456423 -2.09697,-0.128631 z M 1.1054546,23.854545 C 0.67345456,23.422545 0.32,22.695999 0.32,22.239999 0.32,21.173084 1.6530843,19.84 2.72,19.84 c 1.0669155,0 2.4,1.333084 2.4,2.399999 0,1.066916 -1.3330845,2.4 -2.4,2.4 -0.456,0 -1.1825454,-0.353454 -1.6145454,-0.785454 z m 403.8399854,0 c -0.432,-0.432 -0.78544,-1.158546 -0.78544,-1.614546 0,-1.066915 1.33309,-2.399999 2.4,-2.399999 1.06691,0 2.4,1.333084 2.4,2.399999 0,1.066916 -1.33309,2.4 -2.4,2.4 -0.456,0 -1.18256,-0.353454 -1.61456,-0.785454 z M 195.77788,15.44 c -4.59634,-4.356 -8.50634,-8.1599298 -8.68888,-8.4531768 -0.23889,-0.3837824 -0.21403,-0.6751872 0.0887,-1.04 0.37415,-0.4508208 2.30367,-0.5068233 17.46226,-0.5068233 15.15859,0 17.08811,0.056002 17.46226,0.5068233 0.30277,0.3648128 0.32763,0.6562176 0.0887,1.04 -0.6748,1.0840502 -17.06376,16.3731758 -17.551,16.3731758 -0.27782,0 -4.26578,-3.563999 -8.86212,-7.919999 z m 15.68766,-0.905457 c 3.46195,-3.270001 6.34102,-6.1500008 6.39792,-6.3999998 0.0881,-0.3871047 -1.8738,-0.4545434 -13.22346,-0.4545434 -11.34131,0 -13.31151,0.067633 -13.22346,0.4539328 0.16804,0.7372576 12.52929,12.3097644 13.169,12.3287184 0.33512,0.0099 3.27753,-2.525382 6.88,-5.928108 z"
       id="path1071"
       inkscape:connector-curvature="0" />
  </g>
</svg>
